<svg width="40" height="40" viewBox="0 0 40 40" fill="none" xmlns="http://www.w3.org/2000/svg">
<path d="M38.4851 15.0195C39.1624 17.8695 39.7804 25.975 37.8069 29.5461C35.9351 32.9344 32.6335 35.4867 29.5804 36.5523C25.464 37.9898 22.3788 38.0562 20.1976 37.6875C19.1429 37.5097 18.1382 37.1094 17.2501 36.5134C16.362 35.9173 15.6109 35.1391 15.0468 34.2305C12.1085 29.4797 10.6632 31.0187 7.23975 30.6344C-1.34072 29.6719 1.08271 16.2727 1.46084 15.0867C1.12256 19.1258 3.23818 22.3906 7.23975 23.0797C8.82256 23.3516 12.1085 21.9242 15.0468 26.6758C15.6109 27.5844 16.362 28.3626 17.2501 28.9587C18.1382 29.5547 19.1429 29.955 20.1976 30.1328C22.3788 30.5016 25.4562 30.4109 29.5804 28.9977C35.4944 26.9711 39.2233 21.1344 38.4851 15.0195Z" fill="#F3C4AD"/>
<path d="M38.4851 15.0196C39.2234 21.1344 35.4945 26.9712 29.5804 28.9977C25.4562 30.411 22.3789 30.5016 20.1976 30.1329C19.1429 29.955 18.1382 29.5548 17.2501 28.9587C16.3621 28.3627 15.611 27.5845 15.0468 26.6758C12.1085 21.9243 8.8226 23.3516 7.23979 23.0797C3.23823 22.3907 1.1226 19.1258 1.46088 15.0868C1.86713 10.2399 4.66166 2.49303 18.3109 2.13443C23.4828 1.9985 28.8749 3.02428 32.8812 6.29146C36.4195 9.17662 37.7984 11.2157 38.3554 14.1774C38.4085 14.4587 38.4518 14.7394 38.4851 15.0196Z" fill="#E8CFD0"/>
<path d="M36.6055 14.4236C37.7594 19.9618 34.5133 25.3165 29.1047 27.0509C25.4977 28.2064 22.7922 28.2392 20.8688 27.89C19.9376 27.7212 19.0509 27.3636 18.2633 26.839C17.4756 26.3144 16.8038 25.6341 16.2891 24.84C13.6344 20.7079 9.91334 21.8822 8.51725 21.6251C4.98756 20.9736 3.07975 18.1329 3.31803 14.6618C3.60397 10.4962 6.80162 3.87513 18.8008 3.76653C23.3469 3.72513 28.104 4.68685 31.6758 7.55638C34.8305 10.0923 36.0727 11.8673 36.6055 14.4236Z" fill="#DD494C"/>
<path d="M29.5093 16.414C31.2742 17.5671 31.8226 19.8523 30.7343 21.5194C29.646 23.1866 27.3328 23.6022 25.5671 22.4491C23.8015 21.296 23.2531 19.0101 24.3421 17.3437C25.4312 15.6773 27.7437 15.2609 29.5093 16.414Z" fill="#F3C4AD"/>
<path d="M28.6601 17.7141C29.664 18.3704 29.9765 19.6712 29.357 20.6196C28.7375 21.568 27.4211 21.8047 26.4164 21.1493C25.4117 20.4938 25.0992 19.1923 25.7187 18.2438C26.3383 17.2954 27.6555 17.0579 28.6601 17.7141Z" fill="#F58387"/>
<path d="M23.2126 27.8897C22.2814 27.721 21.3947 27.3633 20.607 26.8388C19.8194 26.3142 19.1475 25.6339 18.6329 24.8397C15.9782 20.7077 12.2571 21.8819 10.861 21.6249C7.33131 20.9733 5.4235 18.1327 5.66178 14.6616C5.94037 10.6026 8.98498 4.2134 20.2416 3.78832C19.7601 3.76942 19.2798 3.76207 18.8008 3.76629C6.80162 3.87488 3.60397 10.496 3.31803 14.6616C3.07975 18.1327 4.98756 20.9733 8.51725 21.6249C9.91334 21.8819 13.6344 20.7077 16.2891 24.8397C16.8038 25.6339 17.4756 26.3142 18.2633 26.8388C19.0509 27.3633 19.9376 27.721 20.8688 27.8897C22.0105 28.0872 23.1729 28.1365 24.3272 28.0364C23.9297 28.0027 23.5584 27.9525 23.2126 27.8897Z" fill="#A84045"/>
<path d="M7.94999 9.5292C7.85607 9.52914 7.76434 9.50086 7.68668 9.44804C7.60902 9.39521 7.54902 9.32028 7.51446 9.23295C7.4799 9.14562 7.47237 9.04993 7.49284 8.95827C7.51331 8.86661 7.56085 8.78321 7.62929 8.71889C9.54694 6.92084 12.2715 5.79318 15.7275 5.36732C15.8509 5.35211 15.9752 5.38654 16.0732 5.46304C16.1712 5.53953 16.2348 5.65183 16.2501 5.77521C16.2653 5.8986 16.2308 6.02298 16.1543 6.12098C16.0778 6.21898 15.9656 6.28258 15.8422 6.29779C12.5876 6.69889 10.0401 7.74358 8.27053 9.40287C8.18371 9.48432 8.06904 9.52952 7.94999 9.5292Z" fill="#F4F8FC"/>
<path d="M17.8394 6.13433C17.717 6.1339 17.5997 6.08563 17.5124 5.99984C17.4252 5.91405 17.3749 5.79754 17.3724 5.6752C17.3699 5.55286 17.4153 5.43439 17.499 5.34509C17.5827 5.2558 17.6979 5.20276 17.8202 5.19731C18.1442 5.18379 18.4784 5.17535 18.8135 5.17231H18.8179C18.9422 5.17176 19.0617 5.22062 19.15 5.30814C19.2383 5.39565 19.2882 5.51466 19.2887 5.63898C19.2893 5.7633 19.2404 5.88275 19.1529 5.97105C19.0654 6.05934 18.9464 6.10925 18.822 6.1098C18.497 6.11277 18.1731 6.12097 17.8593 6.13402C17.8526 6.13426 17.846 6.13433 17.8394 6.13433Z" fill="#F4F8FC"/>
<path d="M24.2969 33.2667C24.1726 33.2667 24.0533 33.3161 23.9654 33.404C23.8775 33.4919 23.8281 33.6112 23.8281 33.7355V37.8281C24.1406 37.8051 24.4531 37.7733 24.7656 37.7327V33.7355C24.7656 33.6112 24.7162 33.4919 24.6283 33.404C24.5404 33.3161 24.4212 33.2667 24.2969 33.2667Z" fill="#D1A695"/>
<path d="M26.7188 35.0068C26.5944 35.0068 26.4752 35.0562 26.3873 35.1441C26.2994 35.232 26.25 35.3512 26.25 35.4755V37.4809C26.5625 37.4187 26.875 37.348 27.1875 37.2689V35.4755C27.1875 35.3512 27.1381 35.232 27.0502 35.1441C26.9623 35.0562 26.8431 35.0068 26.7188 35.0068Z" fill="#D1A695"/>
<path d="M4.21875 24.0432C4.09443 24.0432 3.9752 24.0926 3.88729 24.1805C3.79939 24.2684 3.75 24.3877 3.75 24.512V29.1859C4.04402 29.4279 4.35622 29.6469 4.68383 29.8411C4.68616 29.8225 4.68738 29.8038 4.6875 29.785V24.512C4.6875 24.3877 4.63811 24.2684 4.55021 24.1805C4.4623 24.0926 4.34307 24.0432 4.21875 24.0432Z" fill="#D1A695"/>
<path d="M6.56232 26.875C6.43812 26.8716 6.31765 26.9176 6.22729 27.0029C6.13694 27.0882 6.08405 27.2058 6.08021 27.33L5.992 30.3872C6.29776 30.4761 6.6091 30.5445 6.92396 30.592L7.01771 27.3567C7.0212 27.2324 6.97518 27.1119 6.88978 27.0215C6.80438 26.9312 6.68659 26.8785 6.56232 26.875Z" fill="#D1A695"/>
</svg>
