<svg width="35" height="35" viewBox="0 0 35 35" fill="none" xmlns="http://www.w3.org/2000/svg">
<g clip-path="url(#clip0)">
<path d="M35 17.5C35 20.4381 34.2761 23.2066 32.9964 25.6375C32.7592 26.0887 32.677 25.1584 32.4029 25.585C29.2891 30.4248 23.3517 33.4011 17.17 33.4011C15.0283 33.4011 13.4796 33.2454 11.5827 32.5413C11.1917 32.3956 10.6326 33.6068 10.256 33.4346C8.1334 32.4687 6.23848 31.0912 4.67236 29.4041C4.24785 28.9468 4.87696 27.4771 4.50304 26.976C3.24044 25.2862 2.27521 23.3605 1.68663 21.2769C1.4419 20.4094 0.232422 20.5051 0.12373 19.5884C0.0416992 18.9034 0 18.2068 0 17.5C0 13.8599 1.11152 10.4795 3.01396 7.67949C3.24229 7.34248 3.48223 7.01436 3.73242 6.69512C4.4126 5.83105 5.17139 5.03193 5.99922 4.31006C6.67529 3.71943 7.39717 3.18076 8.15869 2.69951C10.8616 0.989844 14.0649 0 17.5 0C27.1646 0 35 7.83535 35 17.5Z" fill="#CBE2FF"/>
<path d="M27.0441 11.6035C27.862 11.2648 28.5133 10.5587 28.7421 9.63835C28.7485 9.61238 28.7548 9.5864 28.7609 9.56042C29.1186 8.03184 28.1932 6.49587 26.6741 6.09959C19.6997 4.28035 12.6911 2.60363 5.6484 1.06951C4.11448 0.735366 2.5941 1.68618 2.22134 3.21121C2.21498 3.23718 2.20883 3.26316 2.20281 3.2892C1.99035 4.21342 2.25148 5.13785 2.82755 5.81009" fill="#D56B3D"/>
<path d="M28.5165 10.5834C28.5104 10.6094 28.5042 10.6354 28.4981 10.6613C28.2691 11.5815 27.6176 12.2876 26.8 12.626C26.1704 12.8871 25.7138 13.4443 25.6051 14.1169C24.765 19.3279 23.5379 24.446 21.9239 29.4718C21.3053 31.3975 19.3755 32.5856 17.378 32.2677C13.0782 31.5834 8.84337 30.6291 4.67276 29.4048C4.24825 28.9475 3.84767 28.4676 3.47374 27.9665C2.21114 26.2767 1.24591 24.351 0.657333 22.2674C0.412607 21.3999 0.232822 20.5058 0.12413 19.5891C0.878134 15.9134 1.82765 12.2849 2.97403 8.70285C3.08204 8.36516 3.09229 8.01311 3.01436 7.6802C2.9419 7.37258 2.79561 7.08137 2.58302 6.83254C2.00743 6.16057 1.7463 5.23635 1.9589 4.31213C1.96436 4.28615 1.97052 4.26018 1.97735 4.2342C2.34991 2.7091 3.87022 1.75822 5.40421 2.0925C6.32296 2.29279 7.24171 2.49514 8.15909 2.70022C14.2752 4.06672 20.3653 5.54055 26.4302 7.12238C27.9491 7.51887 28.874 9.05422 28.5165 10.5834V10.5834Z" fill="#E7A52E"/>
<path d="M26.4181 11.6686C26.4146 11.6706 26.4105 11.672 26.4064 11.674C25.433 12.0767 24.7535 12.9277 24.5888 13.9518C24.5703 14.0646 24.5519 14.178 24.5327 14.2908C24.1055 16.8899 23.575 19.4834 22.9481 22.0517L22.9406 22.0818C22.3575 24.4661 21.691 26.8286 20.9432 29.1556C20.4763 30.6082 19.0455 31.4894 17.5402 31.2494C14.9843 30.8427 12.416 30.3314 9.90654 29.7312C7.75664 29.2171 5.59716 28.6244 3.47392 27.9654C2.21133 26.2756 1.24609 24.3499 0.657516 22.2663C0.97402 20.5081 1.33701 18.7547 1.74511 17.0109L1.75263 16.9808C2.35556 14.4064 3.05625 11.8545 3.85127 9.34298C3.88545 9.23361 3.92031 9.12423 3.95517 9.01554C4.20468 8.23419 4.11923 7.40363 3.733 6.69474C3.63183 6.50744 3.50879 6.32833 3.36523 6.16154C3.3625 6.15812 3.35976 6.1547 3.35703 6.15128C2.81357 5.50871 3.05146 4.50724 3.82734 4.18117C4.16914 4.03693 4.55742 3.99455 4.95048 4.07999C5.2998 4.15587 5.6498 4.23244 5.9998 4.30968C9.15459 5.00421 12.3347 5.73429 15.4683 6.48351C18.9491 7.31681 22.4703 8.1966 25.9348 9.10031C26.3237 9.20148 26.6512 9.41544 26.8904 9.69845C27.4346 10.3403 27.1939 11.3411 26.4181 11.6686V11.6686Z" fill="#FFD064"/>
<path d="M20.4986 10.1963C20.8636 10.1963 21.1595 9.90043 21.1595 9.53546C21.1595 9.1705 20.8636 8.87463 20.4986 8.87463C20.1337 8.87463 19.8378 9.1705 19.8378 9.53546C19.8378 9.90043 20.1337 10.1963 20.4986 10.1963Z" fill="#E7A52E"/>
<path d="M22.3756 10.9015C22.7406 10.9015 23.0365 10.6056 23.0365 10.2407C23.0365 9.8757 22.7406 9.57983 22.3756 9.57983C22.0107 9.57983 21.7148 9.8757 21.7148 10.2407C21.7148 10.6056 22.0107 10.9015 22.3756 10.9015Z" fill="#E7A52E"/>
<path d="M20.8701 12.0704C21.2351 12.0704 21.5309 11.7746 21.5309 11.4096C21.5309 11.0446 21.2351 10.7488 20.8701 10.7488C20.5052 10.7488 20.2093 11.0446 20.2093 11.4096C20.2093 11.7746 20.5052 12.0704 20.8701 12.0704Z" fill="#E7A52E"/>
<path d="M4.78201 13.0328C5.14697 13.0328 5.44284 12.737 5.44284 12.372C5.44284 12.007 5.14697 11.7112 4.78201 11.7112C4.41704 11.7112 4.12118 12.007 4.12118 12.372C4.12118 12.737 4.41704 13.0328 4.78201 13.0328Z" fill="#E7A52E"/>
<path d="M5.165 11.0643C5.52997 11.0643 5.82583 10.7685 5.82583 10.4035C5.82583 10.0385 5.52997 9.74268 5.165 9.74268C4.80004 9.74268 4.50417 10.0385 4.50417 10.4035C4.50417 10.7685 4.80004 11.0643 5.165 11.0643Z" fill="#E7A52E"/>
<path d="M6.56807 12.3551C6.93304 12.3551 7.2289 12.0592 7.2289 11.6943C7.2289 11.3293 6.93304 11.0334 6.56807 11.0334C6.20311 11.0334 5.90724 11.3293 5.90724 11.6943C5.90724 12.0592 6.20311 12.3551 6.56807 12.3551Z" fill="#E7A52E"/>
<path d="M31.9621 17.6068C32.5636 16.9572 32.8601 16.0435 32.6833 15.1118C32.6783 15.0855 32.6732 15.0593 32.6678 15.0331C32.354 13.4949 30.8713 12.4863 29.3257 12.7612C22.2292 14.0232 15.1613 15.429 8.12202 16.9786C6.58885 17.3161 5.60503 18.8154 5.90362 20.3566C5.90868 20.3828 5.91394 20.409 5.91941 20.4352C6.11259 21.3637 6.73624 22.0943 7.54048 22.4642" fill="#D56B3D"/>
<path d="M32.9969 25.638C32.7597 26.0892 32.5034 26.5287 32.2292 26.9553C29.1155 31.7951 23.6823 35.0005 17.5005 35.0005C15.3588 35.0005 13.306 34.6156 11.409 33.9115C11.018 33.7659 10.6331 33.6073 10.2565 33.4351C9.685 30.6562 9.22699 27.8549 8.88246 25.031C8.79974 24.3542 8.36498 23.7807 7.74564 23.4956C6.94174 23.1258 6.3183 22.395 6.12484 21.4667C6.11937 21.44 6.11391 21.4141 6.10912 21.3881C5.81039 19.8466 6.79408 18.3475 8.32738 18.0098C15.3663 16.4601 22.4347 15.0546 29.5311 13.7927C31.0767 13.5179 32.5594 14.5262 32.8732 16.0643C32.8787 16.0909 32.8834 16.1169 32.8889 16.1429C33.0653 17.0746 32.7693 17.9886 32.1677 18.638C31.7042 19.1384 31.5224 19.835 31.7049 20.4919C32.18 22.1988 32.6107 23.914 32.9969 25.638V25.638Z" fill="#E7A52E"/>
<path d="M32.2286 26.9558C29.1148 31.7956 23.6816 35.001 17.4998 35.001C15.3581 35.001 13.3053 34.6161 11.4083 33.912C11.3509 33.6399 11.2935 33.3672 11.2381 33.0938L11.232 33.063C10.7036 30.4729 10.2743 27.8615 9.94681 25.2481C9.93246 25.134 9.9181 25.0205 9.90443 24.907C9.77865 23.8775 9.13265 23.0005 8.17562 22.5603C8.17152 22.5589 8.16742 22.5568 8.16332 22.5548C7.40179 22.198 7.19877 21.189 7.76752 20.5676C8.01771 20.2948 8.35267 20.0932 8.74574 20.007C12.2416 19.2373 15.7943 18.4936 19.3052 17.7949C22.8155 17.097 26.3831 16.425 29.9078 15.7981C30.3029 15.7277 30.6898 15.7852 31.0254 15.9417C31.7883 16.2972 31.9872 17.3075 31.4199 17.9289C31.4171 17.9323 31.4144 17.9357 31.411 17.9385C30.6953 18.7116 30.4341 19.7685 30.7123 20.7679C30.7431 20.8779 30.7732 20.9887 30.8033 21.0994C31.3344 23.0326 31.8102 24.9877 32.2286 26.9558Z" fill="#FFD064"/>
<path d="M25.1514 19.1243C25.5164 19.1243 25.8122 18.8284 25.8122 18.4634C25.8122 18.0985 25.5164 17.8026 25.1514 17.8026C24.7864 17.8026 24.4906 18.0985 24.4906 18.4634C24.4906 18.8284 24.7864 19.1243 25.1514 19.1243Z" fill="#E7A52E"/>
<path d="M27.1516 18.9804C27.5166 18.9804 27.8125 18.6845 27.8125 18.3195C27.8125 17.9546 27.5166 17.6587 27.1516 17.6587C26.7867 17.6587 26.4908 17.9546 26.4908 18.3195C26.4908 18.6845 26.7867 18.9804 27.1516 18.9804Z" fill="#E7A52E"/>
<path d="M26.2723 20.6711C26.6373 20.6711 26.9331 20.3753 26.9331 20.0103C26.9331 19.6454 26.6373 19.3495 26.2723 19.3495C25.9073 19.3495 25.6115 19.6454 25.6115 20.0103C25.6115 20.3753 25.9073 20.6711 26.2723 20.6711Z" fill="#E7A52E"/>
<path d="M12.058 28.2687C12.4229 28.2687 12.7188 27.9728 12.7188 27.6079C12.7188 27.2429 12.4229 26.947 12.058 26.947C11.693 26.947 11.3971 27.2429 11.3971 27.6079C11.3971 27.9728 11.693 28.2687 12.058 28.2687Z" fill="#E7A52E"/>
<path d="M11.5831 26.3206C11.9481 26.3206 12.244 26.0247 12.244 25.6597C12.244 25.2948 11.9481 24.9989 11.5831 24.9989C11.2182 24.9989 10.9223 25.2948 10.9223 25.6597C10.9223 26.0247 11.2182 26.3206 11.5831 26.3206Z" fill="#E7A52E"/>
<path d="M13.3971 26.9054C13.762 26.9054 14.0579 26.6095 14.0579 26.2446C14.0579 25.8796 13.762 25.5837 13.3971 25.5837C13.0321 25.5837 12.7363 25.8796 12.7363 26.2446C12.7363 26.6095 13.0321 26.9054 13.3971 26.9054Z" fill="#E7A52E"/>
</g>
<defs>
<clipPath id="clip0">
<rect width="35" height="35" fill="white"/>
</clipPath>
</defs>
</svg>
