<svg width="40" height="40" viewBox="0 0 40 40" fill="none" xmlns="http://www.w3.org/2000/svg">
<g clip-path="url(#clip0)">
<path d="M24.9325 25.8412C24.7999 22.8144 27.4347 18.6335 27.8412 16.1003C28.4027 12.503 25.0496 7.34672 25.0496 7.34672L25.2112 6.24852L20.1681 5.31647L19.9315 6.34705C19.9315 6.34705 14.708 9.86346 14.1388 13.2298C13.7153 15.7596 14.2916 20.7619 13.0299 23.5164C11.7681 26.2708 7.95407 31.157 10.2946 37.0687C10.6726 38.0252 14.1438 39.2328 16.4223 39.6778C18.8538 40.1527 21.6342 40.378 22.3688 39.7801C26.9694 36.0185 25.065 28.868 24.9325 25.8412Z" fill="#FFF7F9"/>
<path d="M28.0139 15.9399C28.278 14.2263 27.6131 12.2076 26.8582 10.5597C25.1299 10.8223 23.3798 10.7452 21.6077 10.3285C19.9413 10.003 18.3861 9.46979 16.9421 8.72879C15.6023 9.9852 14.2607 11.612 14.0028 13.2033C13.5793 15.7331 14.2917 20.762 13.047 23.5198C12.3404 25.0587 11.0562 25.8494 10.0789 29.136C9.30237 31.7558 8.98579 34.6419 10.0271 37.2637C10.4052 38.2201 14.0563 39.4099 16.3348 39.8549C18.7663 40.3298 21.8287 40.5573 22.5634 39.9594C27.1436 36.2114 25.0821 28.8714 24.9529 25.8276C24.8203 22.8008 27.6244 18.4764 28.0139 15.9399Z" fill="#64260F"/>
<path opacity="0.2" d="M26.851 11.9528C26.851 11.9528 27.9671 13.8301 27.7943 15.438C27.68 16.4748 27.1111 18.3937 26.7226 19.6594C27.3143 18.2569 27.8691 16.9531 28.014 15.9399C28.2781 14.2262 27.6133 12.2076 26.8583 10.5596C25.1301 10.8223 23.3799 10.7452 21.6078 10.3285C19.9414 10.003 18.3862 9.46975 16.9422 8.72875C16.4756 9.22013 16.5422 9.69211 16.5422 9.69211C16.5422 9.69211 17.4635 11.3019 21.5954 12.1089C24.8091 12.7366 26.851 11.9528 26.851 11.9528Z" fill="#582E22"/>
<path d="M26.9824 10.9193C26.8429 11.6335 24.4482 11.7836 21.6426 11.2356C18.837 10.6876 16.6714 9.66441 16.8142 8.93325C16.9537 8.21909 19.3484 8.069 22.1541 8.61699C24.9597 9.16498 27.1219 10.2052 26.9824 10.9193Z" fill="#8F6E64"/>
<path opacity="0.3" d="M10.6652 37.0705C10.6652 37.0705 13.2097 34.7078 16.8655 35.4219C20.9804 36.2256 22.0386 39.5744 22.0386 39.5744C22.0386 39.5744 16.6667 40.3257 10.6652 37.0705Z" fill="#582E22"/>
<path d="M13.9597 13.4242C13.4819 15.9611 14.1014 20.7424 12.8903 23.4185C12.204 24.9437 10.8057 26.0475 10.0988 29.0339C16.1777 32.8868 22.7614 32.6193 25.6783 32.2358C26.1559 28.8868 25.2732 27.5317 25.2013 25.9113C25.0688 22.8845 27.7114 18.9346 28.0857 16.0245C28.1284 15.7151 28.1853 15.5144 28.0709 15.0154C22.5147 17.0723 15.6674 14.6228 13.9597 13.4242Z" fill="#8A5C53"/>
<path d="M21.7539 17.1708C19.5987 16.185 16.7658 17.1321 15.9065 19.4532C15.094 21.6247 16.3249 24.0893 18.442 24.9088C20.6748 25.7686 23.3434 24.5775 24.0842 22.3215C24.7477 20.2798 23.6163 18.0288 21.7539 17.1708Z" fill="#FFF7F9"/>
<path d="M23.3686 19.5691C22.998 18.7553 22.3391 18.0618 21.5151 17.6713C19.6526 16.8133 17.1964 17.6398 16.4341 19.6445C16.1486 20.3831 16.1589 21.1442 16.3557 21.8534C17.5796 22.0042 21.3214 22.1878 23.3686 19.5691Z" fill="#E74006"/>
<path d="M16.6926 22.6605C17.1072 23.43 17.7963 24.0588 18.6336 24.3812C20.5703 25.1302 22.8694 24.1141 23.5164 22.1575C22.4786 22.5903 19.3542 23.6747 16.6926 22.6605Z" fill="#E74006"/>
<path d="M9.88477 29.7688C15.5163 33.1106 22.5329 33.1571 25.6036 32.9802C25.6331 32.7388 25.6456 32.4941 25.6784 32.2357C25.6946 32.0624 25.7279 31.8923 25.7441 31.719C24.143 32.3242 20.7252 32.3804 17.7395 31.8502C14.3085 31.2506 11.5263 29.8599 10.179 28.7141C10.1591 28.8161 10.1222 28.9148 10.1022 29.0169C10.0956 29.0509 10.0923 29.0679 10.0686 29.0986C10.0051 29.3333 9.94495 29.551 9.88477 29.7688Z" fill="#C7C0C2"/>
<path d="M28.071 15.0154C28.0777 14.9814 28.0673 14.9441 28.0739 14.9101C25.8538 15.3414 20.0941 15.9993 14.0395 13.0162C14.0262 13.0842 14.0129 13.1522 14.003 13.2032C13.9897 13.2712 13.9731 13.3563 13.9768 13.4276C13.9569 13.5296 13.9336 13.6486 13.9274 13.771C15.2561 14.5601 21.7293 16.9365 28.1584 15.5621C28.134 15.4161 28.1332 15.2394 28.071 15.0154Z" fill="#C7C0C2"/>
<path d="M25.1188 6.81298C21.8557 6.52867 20.2901 5.9581 20.045 5.85727L19.935 6.33006C22.4739 7.24961 25.0532 7.32973 25.0532 7.32973L25.1188 6.81298Z" fill="#F7E1E7"/>
<path opacity="0.15" d="M25.1572 25.9557C25.0247 22.9289 27.7105 18.758 28.1 16.2215C28.6614 12.6241 25.0496 7.3467 25.0496 7.3467L25.1356 6.81627C24.5749 6.79501 23.9324 6.74014 23.266 6.62762L23.2037 7.12737C23.2037 7.12737 25.8112 11.2201 23.9644 17.6026C22.3919 23.0325 22.2555 22.9176 22.5737 28.6991C22.7526 32.2116 20.6376 37.8886 19.602 40.2988C20.9785 40.3912 22.1572 40.3213 22.577 39.9796C27.1265 36.208 25.2898 28.9825 25.1572 25.9557Z" fill="#292623"/>
<path d="M20.4126 4.51691C20.4126 4.51691 19.7452 4.95143 19.0135 5.444C20.9406 6.33233 24.5761 7.06006 26.1887 6.7572C25.6691 6.07319 25.1596 5.33817 25.1596 5.33817L20.4126 4.51691Z" fill="#FFF7F9"/>
<path opacity="0.5" d="M25.1598 5.33817L23.4868 5.0467L23.4008 5.57714L23.9837 6.75014C24.8642 6.8515 25.6526 6.88193 26.2059 6.76051C25.6864 6.07651 25.1598 5.33817 25.1598 5.33817Z" fill="#D6BDB4"/>
<path d="M20.2247 0.50829L19.3969 4.56553C19.3969 4.56553 22.4578 5.97541 26.1404 5.82971L26.8731 1.80687L20.2247 0.50829Z" fill="#E74006"/>
<path opacity="0.3" d="M26.8731 1.80691L24.8666 1.41501L24.1885 1.72386L23.4826 5.69901C24.3088 5.80741 25.2129 5.87809 26.1573 5.83307L26.8731 1.80691Z" fill="#AB6AB0"/>
<path d="M26.8665 1.84084C26.7735 2.31694 25.2041 2.39876 23.3677 2.04008C21.5313 1.68139 20.125 1.01837 20.218 0.542263C20.311 0.0661593 21.8804 -0.0156596 23.7168 0.343027C25.5532 0.701713 26.9595 1.36474 26.8665 1.84084Z" fill="#F4B2C9"/>
<path opacity="0.5" d="M14.8744 12.8085C15.3886 10.8083 17.7079 8.24278 18.5533 7.34876C16.9281 8.62004 14.3733 10.9454 14.0029 13.2032C13.9896 13.2712 13.973 13.3562 13.9767 13.4276C13.4989 15.9644 14.1184 20.7457 12.9073 23.4218C12.221 24.947 10.8227 26.0508 10.1159 29.0372C9.72409 30.3199 9.4584 31.6802 9.38971 33.0261C10.3601 28.9614 12.4139 27.0324 13.642 24.3596C15.0079 21.3431 14.2364 15.2612 14.8744 12.8085Z" fill="white"/>
</g>
<defs>
<clipPath id="clip0">
<rect width="40" height="40" fill="white"/>
</clipPath>
</defs>
</svg>
