<svg width="35" height="35" viewBox="0 0 35 35" fill="none" xmlns="http://www.w3.org/2000/svg">
<g clip-path="url(#clip0)">
<path d="M17.5 35C27.165 35 35 27.165 35 17.5C35 7.83502 27.165 0 17.5 0C7.83502 0 0 7.83502 0 17.5C0 27.165 7.83502 35 17.5 35Z" fill="#D5A150"/>
<path d="M28.3857 3.79822C30.7626 6.78621 32.1834 10.5687 32.1834 14.6835C32.1834 24.3485 24.3484 32.1835 14.6834 32.1835C10.5687 32.1835 6.78608 30.7626 3.7981 28.3857C7.00415 32.416 11.9501 35.0004 17.5003 35.0004C27.1653 35.0004 35.0003 27.1654 35.0003 17.5004C35.0003 11.9502 32.4159 7.0042 28.3857 3.79822Z" fill="#AD712C"/>
<path d="M9.5395 9.93171C9.17904 9.93171 8.81858 9.79417 8.54357 9.51916C7.03345 8.00904 7.03345 5.55179 8.54357 4.04153C9.27516 3.30995 10.2477 2.9071 11.2824 2.9071C12.317 2.9071 13.2896 3.31001 14.0212 4.04153C14.5712 4.59162 14.5712 5.48336 14.0212 6.03345C13.471 6.5834 12.5793 6.58347 12.0293 6.03345C11.8297 5.83391 11.5645 5.72399 11.2824 5.72399C11.0003 5.72399 10.735 5.83391 10.5355 6.03345C10.1236 6.44539 10.1236 7.11551 10.5355 7.52731C11.0856 8.0774 11.0856 8.96914 10.5355 9.51916C10.2604 9.79424 9.89996 9.93171 9.5395 9.93171Z" fill="#C98A2E"/>
<path d="M11.2821 9.24423C12.6434 9.24423 13.7469 8.14072 13.7469 6.77946C13.7469 5.41821 12.6434 4.3147 11.2821 4.3147C9.92087 4.3147 8.81735 5.41821 8.81735 6.77946C8.81735 8.14072 9.92087 9.24423 11.2821 9.24423Z" fill="#674230"/>
<path d="M8.82899 6.54395C8.8281 6.55345 8.82728 6.56289 8.82646 6.57239C8.75926 7.38785 9.42918 8.07527 10.2469 8.0456C10.301 8.04362 10.3557 8.03993 10.4105 8.03439C11.5707 7.91736 12.5011 6.97926 12.6097 5.81818C12.6106 5.80868 12.6115 5.79924 12.6122 5.78981C12.6794 4.97442 12.0095 4.28693 11.1918 4.3166C11.1376 4.31858 11.083 4.32227 11.0282 4.32781C9.86798 4.44477 8.93768 5.38287 8.82899 6.54395Z" fill="#7A5436"/>
<path d="M3.9058 21.1992C3.54534 21.1992 3.18489 21.0617 2.90988 20.7867C1.39975 19.2765 1.39975 16.8193 2.90988 15.309C3.64146 14.5775 4.61407 14.1747 5.64869 14.1747C6.68331 14.1747 7.65593 14.5776 8.38751 15.3091C8.93753 15.8592 8.93753 16.7509 8.38751 17.301C7.83735 17.851 6.94561 17.851 6.39559 17.301C6.19605 17.1015 5.93081 16.9916 5.64869 16.9916C5.36657 16.9916 5.10127 17.1015 4.9018 17.301C4.48987 17.713 4.48987 18.3831 4.9018 18.7949C5.45189 19.345 5.45189 20.2367 4.9018 20.7867C4.62672 21.0618 4.26619 21.1992 3.9058 21.1992Z" fill="#C98A2E"/>
<path d="M5.64842 20.5127C7.00967 20.5127 8.11319 19.4092 8.11319 18.0479C8.11319 16.6866 7.00967 15.5831 5.64842 15.5831C4.28717 15.5831 3.18365 16.6866 3.18365 18.0479C3.18365 19.4092 4.28717 20.5127 5.64842 20.5127Z" fill="#674230"/>
<path d="M3.1952 17.8124C3.19431 17.8219 3.19349 17.8313 3.19267 17.8408C3.12547 18.6563 3.7954 19.3437 4.61311 19.314C4.66725 19.312 4.72187 19.3084 4.77669 19.3028C5.93696 19.1858 6.86726 18.2477 6.97595 17.0866C6.97684 17.0771 6.97766 17.0677 6.97841 17.0582C7.04561 16.2429 6.37569 15.5554 5.55797 15.585C5.50383 15.587 5.44921 15.5907 5.39439 15.5962C4.23426 15.7132 3.30396 16.6513 3.1952 17.8124Z" fill="#7A5436"/>
<path d="M8.83513 28.2409C8.47467 28.2409 8.11421 28.1034 7.8392 27.8284C6.32907 26.3182 6.32907 23.861 7.8392 22.3507C8.57078 21.6192 9.54333 21.2163 10.578 21.2163C11.6127 21.2163 12.5853 21.6192 13.3168 22.3507C13.8669 22.9008 13.8669 23.7926 13.3168 24.3427C12.7667 24.8926 11.8749 24.8927 11.3249 24.3427C11.1254 24.1431 10.8601 24.0332 10.578 24.0332C10.2959 24.0332 10.0306 24.1431 9.83112 24.3427C9.41919 24.7546 9.41919 25.4247 9.83112 25.8365C10.3812 26.3866 10.3812 27.2784 9.83112 27.8284C9.55605 28.1034 9.19552 28.2409 8.83513 28.2409Z" fill="#C98A2E"/>
<path d="M10.5786 27.5553C11.9398 27.5553 13.0433 26.4518 13.0433 25.0905C13.0433 23.7292 11.9398 22.6257 10.5786 22.6257C9.21731 22.6257 8.1138 23.7292 8.1138 25.0905C8.1138 26.4518 9.21731 27.5553 10.5786 27.5553Z" fill="#674230"/>
<path d="M8.12455 24.8533C8.12366 24.8628 8.12284 24.8722 8.12202 24.8817C8.05483 25.6972 8.72475 26.3846 9.54246 26.3549C9.5966 26.3529 9.65122 26.3492 9.70605 26.3437C10.8663 26.2267 11.7966 25.2886 11.9053 24.1275C11.9062 24.118 11.907 24.1086 11.9078 24.0991C11.975 23.2837 11.305 22.5963 10.4873 22.6259C10.4332 22.6279 10.3786 22.6316 10.3237 22.6371C9.16355 22.7541 8.23331 23.6922 8.12455 24.8533Z" fill="#7A5436"/>
<path d="M16.5822 33.1702C16.2218 33.1702 15.8613 33.0327 15.5863 32.7577C14.0762 31.2476 14.0762 28.7903 15.5863 27.2801C16.3179 26.5485 17.2904 26.1456 18.3251 26.1456C19.3597 26.1456 20.3324 26.5485 21.064 27.2801C21.614 27.8301 21.614 28.7219 21.064 29.272C20.5138 29.8219 19.622 29.822 19.072 29.272C18.8725 29.0724 18.6072 28.9625 18.3251 28.9625C18.043 28.9625 17.7777 29.0724 17.5782 29.272C17.1663 29.6839 17.1663 30.354 17.5782 30.7658C18.1283 31.3159 18.1283 32.2077 17.5782 32.7577C17.3032 33.0328 16.9426 33.1702 16.5822 33.1702Z" fill="#C98A2E"/>
<path d="M18.3248 32.4847C19.686 32.4847 20.7895 31.3812 20.7895 30.0199C20.7895 28.6587 19.686 27.5552 18.3248 27.5552C16.9635 27.5552 15.86 28.6587 15.86 30.0199C15.86 31.3812 16.9635 32.4847 18.3248 32.4847Z" fill="#674230"/>
<path d="M15.8707 29.7834C15.8698 29.7929 15.869 29.8024 15.8682 29.8119C15.801 30.6273 16.4709 31.3148 17.2886 31.2851C17.3428 31.2831 17.3974 31.2794 17.4522 31.2739C18.6125 31.1568 19.5428 30.2188 19.6515 29.0577C19.6524 29.0482 19.6532 29.0387 19.6539 29.0293C19.7211 28.2139 19.0512 27.5265 18.2335 27.5561C18.1793 27.5581 18.1247 27.5618 18.0699 27.5673C16.9097 27.6843 15.9794 28.6224 15.8707 29.7834Z" fill="#7A5436"/>
<path d="M17.9902 13.4611C17.6297 13.4611 17.2692 13.3236 16.9942 13.0486C15.4841 11.5385 15.4841 9.08121 16.9942 7.57095C17.7258 6.83936 18.6984 6.43652 19.7331 6.43652C20.7677 6.43652 21.7403 6.83943 22.4719 7.57095C23.0219 8.12103 23.0219 9.01278 22.4719 9.56287C21.9217 10.1128 21.03 10.1129 20.4799 9.56287C20.2804 9.36333 20.0152 9.25341 19.7331 9.25341C19.4509 9.25341 19.1856 9.36333 18.9862 9.56287C18.5742 9.9748 18.5742 10.6449 18.9862 11.0567C19.5362 11.6068 19.5362 12.4986 18.9862 13.0486C18.7111 13.3237 18.3506 13.4611 17.9902 13.4611Z" fill="#C98A2E"/>
<path d="M19.7328 12.775C21.094 12.775 22.1975 11.6715 22.1975 10.3102C22.1975 8.94897 21.094 7.84546 19.7328 7.84546C18.3715 7.84546 17.268 8.94897 17.268 10.3102C17.268 11.6715 18.3715 12.775 19.7328 12.775Z" fill="#674230"/>
<path d="M17.2796 10.0752C17.2788 10.0847 17.2779 10.0941 17.2771 10.1036C17.2099 10.9191 17.8798 11.6065 18.6976 11.5768C18.7517 11.5749 18.8063 11.5712 18.8611 11.5656C20.0214 11.4486 20.9517 10.5105 21.0604 9.34943C21.0613 9.33993 21.0621 9.33049 21.0629 9.32106C21.1301 8.50567 20.4601 7.81818 19.6424 7.84785C19.5883 7.84983 19.5337 7.85352 19.4788 7.85906C18.3186 7.97602 17.3883 8.91412 17.2796 10.0752Z" fill="#7A5436"/>
<path d="M26.4408 26.1276C26.0804 26.1276 25.7199 25.9901 25.4449 25.7151C23.9348 24.205 23.9348 21.7477 25.4449 20.2375C26.1765 19.5059 27.149 19.103 28.1837 19.103C29.2184 19.103 30.191 19.5059 30.9225 20.2375C31.4726 20.7875 31.4726 21.6793 30.9225 22.2294C30.3724 22.7793 29.4806 22.7794 28.9306 22.2294C28.7311 22.0298 28.4658 21.9199 28.1837 21.9199C27.9016 21.9199 27.6363 22.0298 27.4368 22.2294C27.0249 22.6413 27.0249 23.3114 27.4368 23.7232C27.9869 24.2733 27.9869 25.1651 27.4368 25.7151C27.1618 25.9902 26.8012 26.1276 26.4408 26.1276Z" fill="#C98A2E"/>
<path d="M28.1835 25.4428C29.5447 25.4428 30.6482 24.3393 30.6482 22.9781C30.6482 21.6168 29.5447 20.5133 28.1835 20.5133C26.8222 20.5133 25.7187 21.6168 25.7187 22.9781C25.7187 24.3393 26.8222 25.4428 28.1835 25.4428Z" fill="#674230"/>
<path d="M25.7302 22.7408C25.7293 22.7503 25.7285 22.7598 25.7278 22.7693C25.6606 23.5847 26.3305 24.2722 27.1482 24.2425C27.2023 24.2405 27.257 24.2368 27.3118 24.2313C28.472 24.1142 29.4023 23.1762 29.511 22.0151C29.5119 22.0056 29.5127 21.9961 29.5135 21.9867C29.5807 21.1713 28.9108 20.4839 28.0931 20.5135C28.0389 20.5155 27.9843 20.5192 27.9295 20.5247C26.7693 20.6417 25.839 21.5798 25.7302 22.7408Z" fill="#7A5436"/>
<path d="M25.7373 12.7478C25.3768 12.7478 25.0164 12.6102 24.7414 12.3352C23.2312 10.8251 23.2312 8.36783 24.7414 6.85757C25.4729 6.12599 26.4455 5.72314 27.4802 5.72314C28.5149 5.72314 29.4874 6.12605 30.219 6.85757C30.769 7.40766 30.769 8.29941 30.219 8.84949C29.6688 9.39944 28.7771 9.39951 28.2271 8.84949C28.0275 8.65002 27.7623 8.54003 27.4802 8.54003C27.1981 8.54003 26.9328 8.64995 26.7333 8.84949C26.3214 9.26143 26.3214 9.93155 26.7333 10.3434C27.2834 10.8934 27.2834 11.7852 26.7333 12.3352C26.4582 12.6103 26.0977 12.7478 25.7373 12.7478Z" fill="#C98A2E"/>
<path d="M27.4799 12.0611C28.8412 12.0611 29.9447 10.9576 29.9447 9.59636C29.9447 8.23511 28.8412 7.13159 27.4799 7.13159C26.1186 7.13159 25.0151 8.23511 25.0151 9.59636C25.0151 10.9576 26.1186 12.0611 27.4799 12.0611Z" fill="#674230"/>
<path d="M25.0258 9.36085C25.0249 9.37035 25.024 9.37978 25.0233 9.38928C24.9561 10.2048 25.626 10.8922 26.4437 10.8625C26.4979 10.8605 26.5525 10.8568 26.6073 10.8513C27.7676 10.7343 28.6979 9.79616 28.8066 8.63507C28.8075 8.62557 28.8083 8.61614 28.809 8.60671C28.8762 7.79132 28.2063 7.10383 27.3886 7.13349C27.3345 7.13548 27.2798 7.13917 27.225 7.14471C26.0648 7.26167 25.1345 8.19976 25.0258 9.36085Z" fill="#7A5436"/>
<path d="M15.1733 21.1983C14.8129 21.1983 14.4524 21.0608 14.1774 20.7858C12.6673 19.2756 12.6673 16.8184 14.1774 15.3081C14.909 14.5765 15.8815 14.1737 16.9162 14.1737C17.9509 14.1737 18.9235 14.5766 19.655 15.3081C20.2051 15.8582 20.2051 16.75 19.655 17.3001C19.1049 17.85 18.2131 17.8501 17.6631 17.3001C17.4636 17.1005 17.1983 16.9906 16.9162 16.9906C16.6341 16.9906 16.3688 17.1005 16.1693 17.3001C15.7574 17.712 15.7574 18.3821 16.1693 18.7939C16.7194 19.344 16.7194 20.2357 16.1693 20.7858C15.8942 21.0608 15.5337 21.1983 15.1733 21.1983Z" fill="#C98A2E"/>
<path d="M16.9159 20.5127C18.2772 20.5127 19.3807 19.4092 19.3807 18.0479C19.3807 16.6866 18.2772 15.5831 16.9159 15.5831C15.5547 15.5831 14.4512 16.6866 14.4512 18.0479C14.4512 19.4092 15.5547 20.5127 16.9159 20.5127Z" fill="#674230"/>
<path d="M14.4627 17.8124C14.4618 17.8219 14.461 17.8313 14.4602 17.8408C14.393 18.6563 15.0629 19.3437 15.8806 19.314C15.9348 19.312 15.9894 19.3084 16.0442 19.3028C17.2045 19.1858 18.1348 18.2477 18.2435 17.0866C18.2443 17.0771 18.2452 17.0677 18.2459 17.0582C18.3131 16.2429 17.6432 15.5554 16.8255 15.585C16.7713 15.587 16.7167 15.5907 16.6619 15.5962C15.5018 15.7132 14.5715 16.6513 14.4627 17.8124Z" fill="#7A5436"/>
<path d="M8.87312 20.6688C9.16481 20.6688 9.40127 20.4324 9.40127 20.1407C9.40127 19.849 9.16481 19.6125 8.87312 19.6125C8.58143 19.6125 8.34497 19.849 8.34497 20.1407C8.34497 20.4324 8.58143 20.6688 8.87312 20.6688Z" fill="#AD712C"/>
<path d="M12.3944 20.6688C12.6861 20.6688 12.9226 20.4324 12.9226 20.1407C12.9226 19.849 12.6861 19.6125 12.3944 19.6125C12.1028 19.6125 11.8663 19.849 11.8663 20.1407C11.8663 20.4324 12.1028 20.6688 12.3944 20.6688Z" fill="#AD712C"/>
<path d="M10.6337 17.4993C10.9254 17.4993 11.1619 17.2628 11.1619 16.9711C11.1619 16.6795 10.9254 16.443 10.6337 16.443C10.3421 16.443 10.1056 16.6795 10.1056 16.9711C10.1056 17.2628 10.3421 17.4993 10.6337 17.4993Z" fill="#AD712C"/>
<path d="M4.29649 23.8384C4.58817 23.8384 4.82463 23.6019 4.82463 23.3102C4.82463 23.0186 4.58817 22.7821 4.29649 22.7821C4.0048 22.7821 3.76834 23.0186 3.76834 23.3102C3.76834 23.6019 4.0048 23.8384 4.29649 23.8384Z" fill="#AD712C"/>
<path d="M11.3382 31.5845C11.6299 31.5845 11.8663 31.348 11.8663 31.0563C11.8663 30.7647 11.6299 30.5282 11.3382 30.5282C11.0465 30.5282 10.8101 30.7647 10.8101 31.0563C10.8101 31.348 11.0465 31.5845 11.3382 31.5845Z" fill="#AD712C"/>
<path d="M13.4507 28.7677C13.7424 28.7677 13.9788 28.5313 13.9788 28.2396C13.9788 27.9479 13.7424 27.7114 13.4507 27.7114C13.159 27.7114 12.9225 27.9479 12.9225 28.2396C12.9225 28.5313 13.159 28.7677 13.4507 28.7677Z" fill="#AD712C"/>
<path d="M16.972 24.5419C17.2637 24.5419 17.5002 24.3054 17.5002 24.0137C17.5002 23.7221 17.2637 23.4856 16.972 23.4856C16.6803 23.4856 16.4439 23.7221 16.4439 24.0137C16.4439 24.3054 16.6803 24.5419 16.972 24.5419Z" fill="#AD712C"/>
<path d="M22.6057 22.4295C22.8974 22.4295 23.1339 22.193 23.1339 21.9013C23.1339 21.6096 22.8974 21.3732 22.6057 21.3732C22.314 21.3732 22.0776 21.6096 22.0776 21.9013C22.0776 22.193 22.314 22.4295 22.6057 22.4295Z" fill="#AD712C"/>
<path d="M21.1978 23.8384C21.4895 23.8384 21.726 23.6019 21.726 23.3102C21.726 23.0186 21.4895 22.7821 21.1978 22.7821C20.9061 22.7821 20.6697 23.0186 20.6697 23.3102C20.6697 23.6019 20.9061 23.8384 21.1978 23.8384Z" fill="#AD712C"/>
<path d="M23.3102 25.9498C23.6019 25.9498 23.8383 25.7134 23.8383 25.4217C23.8383 25.13 23.6019 24.8936 23.3102 24.8936C23.0185 24.8936 22.782 25.13 22.782 25.4217C22.782 25.7134 23.0185 25.9498 23.3102 25.9498Z" fill="#AD712C"/>
<path d="M23.3102 30.1756C23.6019 30.1756 23.8383 29.9391 23.8383 29.6474C23.8383 29.3557 23.6019 29.1193 23.3102 29.1193C23.0185 29.1193 22.782 29.3557 22.782 29.6474C22.782 29.9391 23.0185 30.1756 23.3102 30.1756Z" fill="#AD712C"/>
<path d="M31.0564 15.3867C31.3481 15.3867 31.5845 15.1503 31.5845 14.8586C31.5845 14.5669 31.3481 14.3304 31.0564 14.3304C30.7647 14.3304 30.5282 14.5669 30.5282 14.8586C30.5282 15.1503 30.7647 15.3867 31.0564 15.3867Z" fill="#AD712C"/>
<path d="M28.9439 29.4721C29.2356 29.4721 29.472 29.2356 29.472 28.9439C29.472 28.6522 29.2356 28.4158 28.9439 28.4158C28.6522 28.4158 28.4157 28.6522 28.4157 28.9439C28.4157 29.2356 28.6522 29.4721 28.9439 29.4721Z" fill="#AD712C"/>
<path d="M18.3808 2.71132C18.6725 2.71132 18.909 2.47486 18.909 2.18317C18.909 1.89149 18.6725 1.65503 18.3808 1.65503C18.0892 1.65503 17.8527 1.89149 17.8527 2.18317C17.8527 2.47486 18.0892 2.71132 18.3808 2.71132Z" fill="#AD712C"/>
<path d="M5.70451 9.04946C5.99619 9.04946 6.23265 8.813 6.23265 8.52131C6.23265 8.22962 5.99619 7.99316 5.70451 7.99316C5.41282 7.99316 5.17636 8.22962 5.17636 8.52131C5.17636 8.813 5.41282 9.04946 5.70451 9.04946Z" fill="#AD712C"/>
<path d="M2.88755 13.2753C3.17924 13.2753 3.41569 13.0388 3.41569 12.7471C3.41569 12.4555 3.17924 12.219 2.88755 12.219C2.59586 12.219 2.35941 12.4555 2.35941 12.7471C2.35941 13.0388 2.59586 13.2753 2.88755 13.2753Z" fill="#AD712C"/>
<path d="M10.9864 14.3306C11.2781 14.3306 11.5146 14.0941 11.5146 13.8024C11.5146 13.5108 11.2781 13.2743 10.9864 13.2743C10.6947 13.2743 10.4583 13.5108 10.4583 13.8024C10.4583 14.0941 10.6947 14.3306 10.9864 14.3306Z" fill="#AD712C"/>
<path d="M13.0989 13.2753C13.3906 13.2753 13.6271 13.0388 13.6271 12.7471C13.6271 12.4555 13.3906 12.219 13.0989 12.219C12.8072 12.219 12.5708 12.4555 12.5708 12.7471C12.5708 13.0388 12.8072 13.2753 13.0989 13.2753Z" fill="#AD712C"/>
<path d="M10.9864 12.219C11.2781 12.219 11.5146 11.9826 11.5146 11.6909C11.5146 11.3992 11.2781 11.1627 10.9864 11.1627C10.6947 11.1627 10.4583 11.3992 10.4583 11.6909C10.4583 11.9826 10.6947 12.219 10.9864 12.219Z" fill="#AD712C"/>
<path d="M20.8451 17.4993C21.1368 17.4993 21.3733 17.2628 21.3733 16.9711C21.3733 16.6795 21.1368 16.443 20.8451 16.443C20.5534 16.443 20.317 16.6795 20.317 16.9711C20.317 17.2628 20.5534 17.4993 20.8451 17.4993Z" fill="#AD712C"/>
<path d="M16.2676 6.93703C16.5592 6.93703 16.7957 6.70057 16.7957 6.40888C16.7957 6.1172 16.5592 5.88074 16.2676 5.88074C15.9759 5.88074 15.7394 6.1172 15.7394 6.40888C15.7394 6.70057 15.9759 6.93703 16.2676 6.93703Z" fill="#AD712C"/>
<path d="M22.9584 13.2753C23.2501 13.2753 23.4865 13.0388 23.4865 12.7471C23.4865 12.4555 23.2501 12.219 22.9584 12.219C22.6667 12.219 22.4302 12.4555 22.4302 12.7471C22.4302 13.0388 22.6667 13.2753 22.9584 13.2753Z" fill="#AD712C"/>
<path d="M24.0147 16.443C24.3063 16.443 24.5428 16.2066 24.5428 15.9149C24.5428 15.6232 24.3063 15.3867 24.0147 15.3867C23.723 15.3867 23.4865 15.6232 23.4865 15.9149C23.4865 16.2066 23.723 16.443 24.0147 16.443Z" fill="#AD712C"/>
<path d="M26.1271 16.443C26.4187 16.443 26.6552 16.2066 26.6552 15.9149C26.6552 15.6232 26.4187 15.3867 26.1271 15.3867C25.8354 15.3867 25.5989 15.6232 25.5989 15.9149C25.5989 16.2066 25.8354 16.443 26.1271 16.443Z" fill="#AD712C"/>
<path d="M26.1271 18.5563C26.4187 18.5563 26.6552 18.3198 26.6552 18.0281C26.6552 17.7365 26.4187 17.5 26.1271 17.5C25.8354 17.5 25.5989 17.7365 25.5989 18.0281C25.5989 18.3198 25.8354 18.5563 26.1271 18.5563Z" fill="#AD712C"/>
<path d="M22.2539 5.8799C22.5456 5.8799 22.7821 5.64344 22.7821 5.35175C22.7821 5.06007 22.5456 4.82361 22.2539 4.82361C21.9623 4.82361 21.7258 5.06007 21.7258 5.35175C21.7258 5.64344 21.9623 5.8799 22.2539 5.8799Z" fill="#AD712C"/>
<path d="M24.3664 4.82375C24.6581 4.82375 24.8946 4.58729 24.8946 4.2956C24.8946 4.00392 24.6581 3.76746 24.3664 3.76746C24.0747 3.76746 23.8383 4.00392 23.8383 4.2956C23.8383 4.58729 24.0747 4.82375 24.3664 4.82375Z" fill="#AD712C"/>
</g>
<defs>
<clipPath id="clip0">
<rect width="35" height="35" fill="white"/>
</clipPath>
</defs>
</svg>
