<svg width="35" height="35" viewBox="0 0 35 35" fill="none" xmlns="http://www.w3.org/2000/svg">
<g clip-path="url(#clip0)">
<path d="M32.4417 7.42177C31.1092 5.64176 29.2987 4.29407 27.1313 3.46841C25.9788 3.02942 24.7745 2.73088 23.5566 2.54236C22.2131 2.33434 20.8462 2.27346 19.4897 2.36532C16.9938 2.53461 14.4736 3.49325 12.7862 5.36725C12.2543 5.95792 11.8716 6.58811 11.5803 7.25061C11.0524 8.45064 10.7183 9.852 10.7015 11.1658C10.6783 12.9805 10.3765 14.635 9.41925 16.1918C8.41923 17.818 8.20534 19.8413 8.64861 21.6803C8.94047 22.891 9.53728 24.0171 10.392 24.9247C11.4596 26.0585 12.7929 26.9386 14.2533 27.4788C15.0845 27.7862 15.9476 28.0073 16.8232 28.144C18.6755 28.4337 20.5309 28.4623 22.3939 28.3627C23.6901 28.2933 24.9884 28.1486 26.2474 27.8241C28.832 27.1581 31.1185 25.7821 32.6558 23.5508C35.8343 18.9379 35.7982 11.9065 32.4417 7.42177Z" fill="#704138"/>
<path d="M32.4412 7.42352C31.1087 5.64324 29.2983 4.29581 27.1305 3.46962C25.9783 3.03089 24.7738 2.73262 23.5556 2.54357C22.2845 2.34677 20.9916 2.28188 19.7069 2.35371C20.3128 2.38709 20.9168 2.45064 21.516 2.54357C22.7339 2.73262 23.9377 3.03089 25.0907 3.46962C27.2577 4.29581 29.0684 5.64324 30.4006 7.42352C33.7577 11.908 33.7932 18.9391 30.6155 23.5521C29.0775 25.7834 26.7909 27.1596 24.2063 27.8253C22.9473 28.15 21.649 28.2945 20.3531 28.3642C20.0837 28.3783 19.8142 28.3906 19.5448 28.3989C20.493 28.4323 21.4418 28.4149 22.3935 28.3642C23.6896 28.2945 24.9879 28.15 26.2469 27.8253C28.8313 27.1596 31.1178 25.7834 32.6554 23.5521C35.8338 18.9391 35.7975 11.908 32.4412 7.42352Z" fill="#633029"/>
<path d="M11.5803 7.25105C11.0524 8.45107 10.7183 9.85244 10.7015 11.1662C10.6783 12.981 10.3765 14.6355 9.41925 16.1922C8.41923 17.8184 8.20534 19.8417 8.64861 21.6807C8.94047 22.8915 9.53728 24.0175 10.392 24.9251C11.4596 26.059 12.7929 26.9391 14.2533 27.4793C15.0845 27.7866 15.9476 28.0075 16.8232 28.1444C18.1439 28.3511 19.1615 28.3856 20.482 28.2029C23.1966 27.8275 26.1588 26.3994 27.8621 24.197C29.53 22.0404 30.154 19.2206 30.228 16.5426C30.29 14.2875 29.8998 12.0212 29.1866 9.88502C27.7222 5.50014 24.661 2.01515 19.4897 2.36576C16.9935 2.53505 14.4736 3.49368 12.7862 5.36769C12.2543 5.95836 11.8716 6.58828 11.5803 7.25105Z" fill="#FFC1B8"/>
<path d="M30.2274 16.5432C30.1531 19.2209 29.5299 22.0408 27.8615 24.197C26.1584 26.4003 23.1957 27.8281 20.4816 28.2033C19.5176 28.3373 18.7149 28.3547 17.8388 28.2735C18.0332 28.2553 18.2337 28.2321 18.441 28.2033C21.1556 27.8281 24.1177 26.4003 25.8216 24.197C27.4892 22.0408 28.1136 19.2209 28.187 16.5432C28.2497 14.2879 27.8593 12.0218 27.1458 9.88508C25.8505 6.00622 23.3052 2.83152 19.1537 2.39412C19.2658 2.38264 19.3769 2.37356 19.4888 2.36609C24.6603 2.01574 27.7216 5.50074 29.1857 9.88508C29.8989 12.0218 30.2893 14.2879 30.2274 16.5432Z" fill="#FFB3A8"/>
<path d="M13.5393 8.51778C13.1497 9.30418 12.8712 10.16 12.723 11.05C12.3892 13.0541 12.6055 14.484 11.5093 16.2854C9.44707 19.6745 11.1176 23.7181 14.5041 25.2802C16.9338 26.4012 19.701 26.2394 22.1803 25.5192C28.3775 23.7187 29.1938 16.7257 27.5068 11.0214C26.3788 7.2088 23.7061 4.18603 19.7373 4.27282C16.9952 4.33263 14.7401 6.09582 13.5393 8.51778Z" fill="#E57670"/>
<path d="M22.1802 25.5177C20.6269 25.9687 18.9617 26.201 17.3365 26.036C18.242 25.9513 19.1395 25.7681 20.002 25.5177C26.1992 23.7171 27.0158 16.7236 25.3285 11.0196C24.3268 7.63021 22.1022 4.86566 18.8314 4.35484C19.1264 4.3057 19.4293 4.27766 19.7379 4.27072C23.7063 4.18447 26.3792 7.20724 27.5066 11.0196C29.194 16.7239 28.3777 23.7171 22.1802 25.5177Z" fill="#E05C56"/>
<path d="M21.8664 15.577C23.6812 17.5952 26.666 15.9893 26.5597 13.479C26.4962 11.9775 25.6516 10.2042 24.7567 9.0108C24.0336 8.0463 23.0958 7.20889 21.9922 6.70635C20.8776 6.19872 19.3198 5.64544 18.2097 6.48952C17.4591 7.06016 17.5472 8.08021 17.9665 8.82602C18.4535 9.69226 19.5054 9.8434 20.0776 10.6335C21.1366 12.095 20.6506 14.2251 21.8664 15.577Z" fill="#FFC1B8"/>
<path d="M24.8646 16.2577C25.2133 15.7608 25.4176 15.1394 25.3882 14.4502C25.3247 12.9485 24.4803 11.1751 23.5853 9.98176C22.8619 9.01726 21.9243 8.17959 20.8204 7.6773C19.927 7.27009 18.7475 6.83349 17.7435 7.11281C17.8311 6.87675 17.9817 6.6626 18.2094 6.48929C19.3195 5.64495 20.8773 6.19877 21.9916 6.70665C23.0955 7.20894 24.0331 8.04634 24.7565 9.01031C25.6515 10.2042 26.4959 11.977 26.5594 13.4788C26.6139 14.7634 25.8588 15.8115 24.8646 16.2577Z" fill="#FFB3A8"/>
<path d="M24.0122 11.7493C22.6797 9.96933 20.8692 8.62163 18.7018 7.79571C17.5493 7.35672 16.345 7.05845 15.1271 6.86966C13.7836 6.66164 12.4167 6.60076 11.0602 6.69289C8.56429 6.86191 6.04407 7.82055 4.35671 9.69456C3.82479 10.2852 3.44214 10.9154 3.15081 11.5779C2.62289 12.7779 2.28884 14.1796 2.27202 15.4931C2.24852 17.3078 1.94704 18.9626 0.989746 20.5194C-0.0102766 22.1456 -0.224167 24.1686 0.219101 26.0076C0.510964 27.2186 1.10777 28.3447 1.96253 29.2523C3.03011 30.3858 4.36339 31.2659 5.82377 31.8061C6.65503 32.1138 7.5178 32.3346 8.39365 32.4716C10.246 32.761 12.1013 32.7899 13.9644 32.69C15.2606 32.6209 16.5589 32.4761 17.8179 32.1517C20.4025 31.4857 22.689 30.1097 24.2263 27.8782C27.4048 23.2652 27.3687 16.2338 24.0122 11.7493Z" fill="#704138"/>
<path d="M24.0126 11.7487C22.6801 9.96841 20.8697 8.62098 18.7019 7.7948C17.5497 7.3558 16.3451 7.0578 15.1272 6.86874C13.8562 6.67194 12.5629 6.60678 11.2783 6.67861C11.8842 6.71199 12.4882 6.77555 13.0874 6.86874C14.3053 7.0578 15.5093 7.3558 16.6624 7.7948C18.8293 8.62098 20.6398 9.96841 21.972 11.7487C25.329 16.2329 25.3646 23.264 22.1869 27.8772C20.6488 30.1085 18.3623 31.4845 15.7777 32.1505C14.5187 32.4749 13.2204 32.6194 11.9245 32.6891C11.6551 32.7035 11.3856 32.7155 11.1165 32.7238C12.0644 32.7572 13.0132 32.7398 13.9648 32.6891C15.261 32.6194 16.5593 32.4749 17.8183 32.1505C20.4029 31.4845 22.6892 30.1083 24.2268 27.8772C27.4052 23.2643 27.3689 16.2332 24.0126 11.7487Z" fill="#633029"/>
<path d="M3.15081 11.5772C2.62289 12.7772 2.28884 14.1789 2.27202 15.4924C2.24852 17.3071 1.94704 18.9619 0.989746 20.5187C-0.0102766 22.1449 -0.224167 24.1679 0.219101 26.0069C0.510964 27.2179 1.10777 28.3439 1.96253 29.2516C3.03011 30.3851 4.36339 31.2652 5.82377 31.8054C6.65503 32.1131 7.51807 32.3339 8.39365 32.4709C9.71438 32.6773 10.732 32.712 12.0522 32.5293C14.7671 32.1536 17.729 30.7258 19.4326 28.5231C21.1005 26.3666 21.7245 23.5468 21.7985 20.869C21.8605 18.6137 21.4703 16.3474 20.7568 14.2114C19.2927 9.82656 16.2315 6.34156 11.0605 6.69217C8.56429 6.86147 6.04433 7.8201 4.35671 9.69384C3.82479 10.2845 3.44214 10.9147 3.15081 11.5772Z" fill="#FFC1B8"/>
<path d="M21.7988 20.8695C21.7248 23.547 21.1013 26.3668 19.4329 28.5233C17.7298 30.7266 14.7671 32.1541 12.053 32.5296C11.089 32.6634 10.2863 32.6807 9.41022 32.5998C9.60461 32.5816 9.80515 32.5581 10.0124 32.5296C12.7272 32.1541 15.6891 30.7266 17.393 28.5233C19.0606 26.3668 19.685 23.547 19.7584 20.8695C19.8211 18.6139 19.4307 16.3482 18.7172 14.2114C17.4219 10.3323 14.8768 7.15757 10.7253 6.72017C10.8372 6.70896 10.9486 6.69988 11.0605 6.69214C16.2317 6.34179 19.293 9.82679 20.7571 14.2114C21.4706 16.3482 21.861 18.6142 21.7988 20.8695Z" fill="#FFB3A8"/>
<path d="M5.1109 12.8424C4.72104 13.6285 4.44253 14.4843 4.29433 15.3743C3.96054 17.3787 4.17683 18.8086 3.08068 20.6097C1.01842 23.9991 2.68895 28.0425 6.07541 29.6046C8.5051 30.7256 11.2723 30.564 13.7517 29.8436C19.9492 28.043 20.7652 21.05 19.0781 15.346C17.9502 11.5334 15.2775 8.51063 11.3086 8.59715C8.56652 8.65696 6.31146 10.4204 5.1109 12.8424Z" fill="#E57670"/>
<path d="M13.7515 29.844C12.1982 30.2947 10.533 30.527 8.9079 30.3623C9.81339 30.2774 10.7109 30.0944 11.5734 29.844C17.7706 28.0431 18.5872 21.0499 16.8998 15.3459C15.8982 11.9562 13.6738 9.19169 10.403 8.68086C10.6981 8.63173 11.0006 8.60369 11.3093 8.59702C15.2776 8.51077 17.9508 11.5333 19.078 15.3459C20.7653 21.0499 19.949 28.0431 13.7515 29.844Z" fill="#E05C56"/>
<path d="M13.4378 19.9023C15.2526 21.9205 18.2377 20.3143 18.1312 17.8043C18.0676 16.3028 17.223 14.5292 16.3282 13.3361C15.6051 12.3716 14.6672 11.5339 13.5639 11.0314C12.449 10.524 10.8915 9.97072 9.78115 10.8145C9.03053 11.3852 9.11865 12.4055 9.53788 13.1513C10.0249 14.0175 11.0768 14.1687 11.649 14.9585C12.7081 16.4203 12.2221 18.5504 13.4378 19.9023Z" fill="#FFC1B8"/>
<path d="M16.436 20.5838C16.7848 20.0866 16.989 19.4655 16.9597 18.7763C16.8961 17.2745 16.0515 15.5009 15.1567 14.3078C14.4333 13.343 13.4958 12.5056 12.3919 12.0031C11.4984 11.5961 10.3189 11.1596 9.31488 11.4386C9.40247 11.2025 9.55307 10.9884 9.78085 10.8154C10.8909 9.97101 12.4487 10.5248 13.563 11.0325C14.6669 11.5347 15.6045 12.3724 16.3279 13.3364C17.223 14.5303 18.0673 16.3031 18.1308 17.8048C18.1853 19.0895 17.4302 20.1373 16.436 20.5838V20.5838Z" fill="#FFB3A8"/>
<path d="M5.9354 17.6736C5.84888 18.4581 5.53833 19.2047 5.23045 19.9393C4.80934 20.9436 4.38423 21.9586 4.20986 23.0248C4.03549 24.0911 4.13242 25.2294 4.70253 26.1435C5.39387 27.2516 6.71913 27.8562 8.03879 27.9205C9.20384 27.9774 10.685 27.3611 10.5996 26.0132C10.5182 24.7261 9.16458 24.0532 8.81264 22.882C8.42758 21.6013 8.56697 20.4675 8.77846 19.1601C9.02466 17.6367 9.97689 15.9638 8.5109 14.7056C7.90287 14.1838 6.73809 14.1258 6.25557 14.8671C5.71777 15.6933 6.03607 16.7601 5.9354 17.6736Z" fill="#FFC1B8"/>
<path d="M15.0711 22.7216C14.6737 23.2922 14.4174 23.9499 14.0249 24.519C13.6318 25.0891 13.0152 25.3969 12.5439 25.9022C11.6312 26.8798 12.53 27.8461 13.6929 27.7981C15.9149 27.7059 17.724 25.7468 17.6396 23.4858C17.5761 21.7776 16.0903 21.2591 15.0711 22.7216Z" fill="#FFC1B8"/>
<path d="M13.6933 27.7979C12.995 27.8267 12.3921 27.49 12.2193 27.0042C12.379 27.0406 12.5501 27.0574 12.7277 27.0496C14.9499 26.958 16.7591 24.9986 16.6744 22.7376C16.6621 22.4004 16.594 22.1091 16.4843 21.8706C17.1003 21.9192 17.6034 22.5069 17.6397 23.4861C17.7236 25.7468 15.9155 27.7057 13.6933 27.7979V27.7979Z" fill="#FFB3A8"/>
<path d="M8.93323 16.7166C8.96447 17.3991 9.06781 17.9388 8.77088 18.5762C8.5164 19.122 8.13615 19.5984 7.84669 20.125C7.34788 21.0321 7.33693 22.2436 7.72039 23.1934C7.97914 23.8343 8.53803 24.4751 9.22189 24.6674C10.1696 24.9334 11.007 24.2327 11.846 23.9248C12.6009 23.6479 13.2465 23.7534 13.9419 24.1576C14.3414 24.39 14.8578 24.7229 15.3697 24.5689C15.9865 24.383 16.5403 23.6583 16.7267 23.0743C17.5254 20.5728 15.7612 17.6846 13.9811 16.0485C13.0778 15.2183 12.132 14.4477 10.8681 14.6106C9.68492 14.763 8.87395 15.4261 8.93323 16.7166Z" fill="#D33737"/>
<path d="M16.7266 23.0741C16.5404 23.6584 15.9866 24.3831 15.37 24.5684C15.1989 24.62 15.028 24.617 14.8608 24.5821C14.9863 24.3885 15.0833 24.1871 15.1428 24.0002C15.9412 21.4989 14.1767 18.6102 12.3972 16.9744C11.4939 16.1445 10.548 15.3736 9.28365 15.5362C9.25268 15.5399 9.2217 15.5445 9.19153 15.549C9.51463 15.0104 10.116 14.7079 10.8682 14.6109C12.1323 14.4475 13.0773 15.2184 13.9807 16.0483C15.7612 17.685 17.5255 20.5729 16.7266 23.0741Z" fill="#C42626"/>
<path d="M13.9403 19.1746C13.9403 19.9674 13.2975 20.6101 12.5047 20.6101C11.7119 20.6101 11.0695 19.9674 11.0695 19.1746C11.0695 18.3818 11.7119 17.739 12.5047 17.739C13.2975 17.739 13.9403 18.3818 13.9403 19.1746Z" fill="#FFC1B8"/>
<path d="M12.7461 20.5897C12.333 20.6602 11.9312 20.5467 11.6241 20.3077C11.7026 20.3077 11.783 20.3008 11.8631 20.2872C12.6447 20.1539 13.1704 19.4126 13.0375 18.631C12.9744 18.2625 12.7763 17.9507 12.5031 17.7389C13.1918 17.7368 13.8009 18.2321 13.9203 18.9336C14.0535 19.7152 13.5275 20.4567 12.7461 20.5897Z" fill="#FFB3A8"/>
</g>
<defs>
<clipPath id="clip0">
<rect width="35" height="35" fill="white"/>
</clipPath>
</defs>
</svg>
