<svg width="40" height="40" viewBox="0 0 40 40" fill="none" xmlns="http://www.w3.org/2000/svg">
<path d="M31.7837 6.32516C30.2823 5.62591 27.0329 6.14007 25.84 8.135C24.6472 10.1299 22.5288 16.3615 16.4207 17.8011C12.9038 18.6238 9.16076 18.6238 6.19922 21.7293C3.93693 24.0944 2.55898 27.6524 4.73901 32.3209C6.8162 36.7633 11.3614 39.0255 16.6263 38.3469C21.7473 37.7093 25.4698 34.4598 28.4725 30.8813C34.7658 23.3952 35.3622 15.4566 34.8892 11.0554C34.5601 7.74424 31.7837 6.32516 31.7837 6.32516Z" fill="#614256"/>
<path opacity="0.2" d="M34.91 11.0554C34.7866 9.96538 34.4164 9.08103 33.9639 8.40234C32.7505 8.7314 29.9535 9.28669 30.5293 11.549C30.5499 11.6312 30.5705 11.6929 30.591 11.7752C29.789 9.88312 27.4238 7.84705 25.4083 8.9782C25.0587 9.65689 24.6474 10.5001 24.1332 11.405C24.524 12.5567 25.6963 15.107 26.6423 16.4849C26.6423 16.4849 28.5756 15.9913 30.4471 14.0786C30.7144 13.8113 30.8584 13.4822 30.879 13.0709C33.1207 25.349 24.38 39.3957 11.7935 34.5626C4.98603 31.9507 4.43074 25.5546 5.82925 22.1612C3.81376 24.5263 2.70318 27.9197 4.75981 32.3209C6.837 36.7632 11.3821 39.0255 16.6471 38.3468C21.7681 37.7093 25.4906 34.4598 28.4933 30.8813C34.766 23.3952 35.383 15.4566 34.91 11.0554Z" fill="#391827"/>
<path d="M23.6394 21.1326C20.8629 17.5952 9.8394 19.3434 7.74163 23.251C6.56936 25.431 6.87785 28.228 8.19409 30.1201C10.2507 33.0816 15.3306 34.0894 18.8474 32.403C23.3309 30.2435 25.6343 23.6829 23.6394 21.1326Z" fill="url(#paint0_linear)"/>
<path d="M12.6982 20.7419C12.2869 19.1377 7.63892 21.2355 7.98855 22.3666C8.33817 23.5183 13.0067 21.8524 12.6982 20.7419Z" fill="#91717E"/>
<path d="M13.9942 20.2074C13.7063 18.9528 15.9892 18.6238 16.3182 19.4875C16.8118 20.7215 14.241 21.3591 13.9942 20.2074Z" fill="#91717E"/>
<path opacity="0.1" d="M34.9102 11.0551C34.5605 7.74393 31.7841 6.34542 31.7841 6.34542C31.1465 6.03693 30.2005 5.97523 29.2339 6.11919C31.0848 8.29922 32.2366 10.9317 32.7713 13.7904C33.5322 17.7597 32.1337 21.7701 29.9537 25.0196C25.1823 32.0738 15.3311 32.9993 8.79099 28.1457C7.10456 26.8911 5.78832 25.3487 4.80114 23.6211C3.50546 25.8628 3.09413 28.7627 4.76 32.3206C6.8372 36.7629 11.3823 39.0252 16.6473 38.3465C21.7683 37.709 25.4908 34.4595 28.4935 30.881C34.7662 23.3949 35.3832 15.4563 34.9102 11.0551Z" fill="#8A5C53"/>
<path d="M31.969 0.484253L31.0641 5.2762C31.0641 5.2762 22.7347 5.46129 22.1794 12.1659C22.1794 12.1659 24.4829 10.8291 25.4289 10.6646C25.4289 10.6646 24.4417 12.207 25.0176 15.5182C25.0176 15.5182 27.7735 15.0657 29.4599 13.0091C29.4599 13.0091 29.2337 15.3537 30.6733 16.999C30.6733 16.999 32.6888 15.909 33.5526 13.6672C33.5526 13.6672 34.1696 17.9039 34.6426 20.2484C34.6426 20.2484 39.7636 11.6723 32.3392 5.66695L33.9022 0.751615L31.969 0.484253Z" fill="#688C2E"/>
<path opacity="0.5" d="M26.1692 13.8524C26.1692 13.8524 31.1668 11.4667 29.7272 6.71588C27.1564 6.69531 24.4211 8.46401 24.0098 9.94478L26.7862 9.0193C26.7656 9.0193 25.8607 12.2276 26.1692 13.8524Z" fill="#95B34E"/>
<defs>
<linearGradient id="paint0_linear" x1="8.59203" y1="16.4697" x2="19.1127" y2="29.6278" gradientUnits="userSpaceOnUse">
<stop stop-color="#8A5881"/>
<stop offset="1" stop-color="#614256"/>
</linearGradient>
</defs>
</svg>
