<svg width="40" height="40" viewBox="0 0 40 40" fill="none" xmlns="http://www.w3.org/2000/svg">
<g clip-path="url(#clip0)">
<path d="M27.9311 1.03946C27.9311 1.03946 24.1345 -1.6272 19.0272 1.58184C14.417 4.49709 9.15146 5.46884 6.4848 6.44059C1.35485 8.2711 -1.26662 13.514 0.60909 19.3671C2.07802 23.9773 6.30401 27.7287 12.6317 27.8643C18.5074 27.9773 24.0441 25.1073 28.2023 18.6214C31.1176 14.0338 33.3323 4.85867 27.9311 1.03946Z" fill="url(#paint0_linear)"/>
<path d="M30.1017 3.4801C30.1243 3.86428 30.1469 4.22587 30.1469 4.61005C30.0791 8.70044 27.9774 16.8586 23.548 20.836C19.4124 24.8134 12.6554 26.9829 7.27686 26.7569C8.83618 27.4349 10.6215 27.8417 12.6328 27.8869C18.5085 27.9999 24.0452 25.1298 28.2034 18.6439C30.6215 14.8473 32.5424 7.93208 30.1017 3.4801Z" fill="#344820"/>
<path d="M23.2767 1.37841C20.9038 0.384058 17.3558 4.65525 12.9264 5.6722C8.09028 6.77954 5.01683 7.86429 5.10723 10.9603C5.17502 13.5592 11.7965 16.3389 17.6948 14.1694C24.7004 11.6157 26.7343 2.82474 23.2767 1.37841Z" fill="url(#paint1_linear)"/>
<path opacity="0.05" d="M15.0959 19.4801C20.4293 15.1411 22.079 7.50265 19.5479 1.28796C19.3897 1.37836 19.2089 1.46875 19.0507 1.58175C14.418 4.497 9.15244 5.46875 6.48577 6.44051C1.35583 8.27101 -1.26564 13.514 0.610067 19.3671C0.94905 20.4292 1.44622 21.4462 2.05639 22.3953C6.53097 23.3445 11.3671 22.5083 15.0959 19.4801Z" fill="white"/>
<path opacity="0.2" d="M13.2656 23.3221C8.49727 23.2317 4.20348 21.582 0.47467 18.9153C0.519868 19.0735 0.565066 19.2317 0.610264 19.3899C2.07919 24.0001 6.30518 27.7515 12.6329 27.8871C18.5086 28.0001 24.0453 25.13 28.2035 18.6441C28.4069 18.3051 28.6329 17.9662 28.8137 17.582C24.6329 21.2656 18.8024 23.4351 13.2656 23.3221Z" fill="#162D00"/>
<path d="M26.4407 1.33325C26.4407 1.33325 25.8306 4.04512 28.7684 3.25416C28.7684 3.25416 28.4746 1.46885 26.4407 1.33325Z" fill="#AF9440"/>
<path d="M11.4575 7.50273C11.1185 6.57618 9.40103 7.00556 9.67222 8.1581C9.89821 9.06205 11.8643 8.63267 11.4575 7.50273Z" fill="#BAC476"/>
<path d="M8.65542 8.42926C8.15825 7.16372 4.00006 8.47445 4.56503 10.0112C5.1074 11.4575 9.017 9.35581 8.65542 8.42926Z" fill="#BAC476"/>
<path d="M8.02289 31.6836C8.02289 31.6836 11.0511 40.339 21.8986 40.4972C33.1528 40.6554 40.0907 31.887 39.9551 20.113L8.02289 31.6836Z" fill="#344820"/>
<path d="M37.469 26.644C39.0735 23.8191 41.2204 19.0282 39.1187 15.9773C36.6329 12.3615 29.7176 14.5084 24.3843 15.7513C17.2656 17.4237 10.1696 17.8756 7.95488 22.983C5.96618 27.5931 7.41251 35.8869 15.2091 37.627C26.7797 40.2033 35.2769 30.531 37.469 26.644Z" fill="#6F812C"/>
<path d="M10.2596 21.7399C7.54772 24.4518 6.25959 33.4235 14.4404 36.1806C23.1183 39.1185 32.8585 31.0507 35.4799 27.5026C37.898 24.2032 40.0901 19.2314 37.4686 16.4066C34.8472 13.5817 29.5138 15.8868 23.3443 17.1298C17.1748 18.3953 13.672 18.3275 10.2596 21.7399Z" fill="url(#paint2_radial)"/>
<path d="M20.0902 19.3219C14.5083 20.3388 8.06764 23.1637 10.5761 29.8981C13.401 37.5365 28.9942 33.5139 32.9716 26.5535C34.2371 24.3614 35.0733 21.627 33.6948 19.7512C31.6609 16.9038 25.2202 18.3953 20.0902 19.3219Z" fill="url(#paint3_radial)"/>
<path d="M20.3387 20.8135C16.4291 21.1977 15.5252 21.74 15.2992 25.4237C15.141 28.0225 16.4291 30.7118 19.819 31.2994C24.9263 32.2033 30.2144 28.6101 29.5139 25.0169C28.9037 21.853 24.4517 20.4067 20.3387 20.8135Z" fill="url(#paint4_radial)"/>
<path d="M27.6837 23.209C26.4859 18.2372 18.4181 17.1751 15.3447 20.7231C13.8757 22.4406 12.5876 25.5818 13.7628 27.8869C15.2317 30.757 18.8249 30.9152 21.5142 30.2824C26.4859 29.0847 28.2486 25.6044 27.6837 23.209Z" fill="url(#paint5_linear)"/>
<path d="M27.6834 23.2089C27.5252 22.5761 27.2766 22.0112 26.9151 21.514C26.3727 25.175 22.8473 28.0902 19.1637 28.0902C16.7682 28.0902 14.7343 27.0281 13.3331 25.3784C13.2653 26.2597 13.3783 27.1185 13.7625 27.8869C15.2315 30.7569 18.8247 30.9151 21.5139 30.2823C26.4857 29.0846 28.2484 25.6044 27.6834 23.2089Z" fill="url(#paint6_linear)"/>
<path d="M20.0451 20.2034C19.5932 19.096 16.5875 20.2485 17.0847 21.6723C17.5141 22.983 20.5875 21.4915 20.0451 20.2034Z" fill="#E5D5B4"/>
</g>
<defs>
<linearGradient id="paint0_linear" x1="8.32661" y1="-3.83745" x2="22.3868" y2="26.857" gradientUnits="userSpaceOnUse">
<stop stop-color="#53651A"/>
<stop offset="1" stop-color="#47530F"/>
</linearGradient>
<linearGradient id="paint1_linear" x1="13.3858" y1="1.8915" x2="18.5441" y2="19.5276" gradientUnits="userSpaceOnUse">
<stop stop-color="#6D7B2B"/>
<stop offset="0.5451" stop-color="#5C6920"/>
<stop offset="1" stop-color="#535F1A"/>
</linearGradient>
<radialGradient id="paint2_radial" cx="0" cy="0" r="1" gradientUnits="userSpaceOnUse" gradientTransform="translate(23.1115 24.5668) rotate(-19.7966) scale(26.8638 14.5595)">
<stop stop-color="#FFD97E"/>
<stop offset="0.3308" stop-color="#FFD97E"/>
<stop offset="0.4358" stop-color="#F6D579"/>
<stop offset="0.6054" stop-color="#DEC96A"/>
<stop offset="0.8171" stop-color="#B8B553"/>
<stop offset="1" stop-color="#91A23C"/>
</radialGradient>
<radialGradient id="paint3_radial" cx="0" cy="0" r="1" gradientUnits="userSpaceOnUse" gradientTransform="translate(21.871 25.0372) rotate(-21.8624) scale(19.2294 14.8831)">
<stop stop-color="#FFEB8F"/>
<stop offset="0.497" stop-color="#FFEB8F"/>
<stop offset="1" stop-color="#C8CC44"/>
</radialGradient>
<radialGradient id="paint4_radial" cx="0" cy="0" r="1" gradientUnits="userSpaceOnUse" gradientTransform="translate(22.4317 26.0822) scale(9.46804)">
<stop stop-color="#D4BE6B"/>
<stop offset="0.497" stop-color="#D4BE6B"/>
<stop offset="1" stop-color="#B9AF46"/>
</radialGradient>
<linearGradient id="paint5_linear" x1="18.2629" y1="9.25743" x2="21.193" y2="29.5591" gradientUnits="userSpaceOnUse">
<stop stop-color="#C4A67F"/>
<stop offset="0.1728" stop-color="#C1A179"/>
<stop offset="0.405" stop-color="#B99268"/>
<stop offset="0.6708" stop-color="#AD7A4C"/>
<stop offset="0.9597" stop-color="#9B5825"/>
<stop offset="1" stop-color="#98531F"/>
</linearGradient>
<linearGradient id="paint6_linear" x1="18.2631" y1="9.25763" x2="21.1933" y2="29.5596" gradientUnits="userSpaceOnUse">
<stop stop-color="#A37C4F"/>
<stop offset="0.2682" stop-color="#A07749"/>
<stop offset="0.6276" stop-color="#986838"/>
<stop offset="1" stop-color="#8D531F"/>
</linearGradient>
<clipPath id="clip0">
<rect width="40" height="40" fill="white"/>
</clipPath>
</defs>
</svg>
