<svg width="40" height="40" viewBox="0 0 40 40" fill="none" xmlns="http://www.w3.org/2000/svg">
<g clip-path="url(#clip0)">
<path d="M2.93777 32.9449C2.52689 31.7739 1.9311 26.2475 2.77342 24.7477C4.84841 21.0497 10.6008 19.9814 15.8602 18.1119C22.1468 15.8725 31.4945 12.7087 35.2336 15.0713C36.3225 15.7698 35.8705 24.5217 35.7883 26.2885C33.2203 33.8283 13.3127 39.1493 2.93777 32.9449Z" fill="#D16327"/>
<path d="M1.60256 28.384C1.60256 28.384 0.575341 29.1442 0.595885 29.7605C0.61643 30.3768 1.43821 31.856 2.91741 32.1847C4.3966 32.5134 5.30056 32.2669 5.30056 32.2669L7.49881 31.0343L7.37555 33.3352C7.37555 33.3352 8.32059 34.2597 11.8953 34.0748L13.2718 32.4518C13.2718 32.4518 15.0181 34.4241 15.6344 34.2392C16.2507 34.0543 16.1891 32.3696 16.1891 32.3696C16.1891 32.3696 17.3601 33.3763 17.545 33.4996C17.7299 33.6229 21.1198 34.2803 23.0715 32.9243C23.0715 32.9243 23.3797 32.8011 23.3386 32.2053C23.2975 31.6095 23.0304 31.1575 23.0304 31.1575C23.0304 31.1575 25.3519 31.4041 25.9477 31.363L26.3997 30.5617L26.3586 29.8221C26.3586 29.8221 28.4336 30.3152 29.7895 30.2947C31.1455 30.2741 32.7479 29.2058 32.7479 29.2058C32.7479 29.2058 33.4464 28.8565 32.9944 28.3018C32.5425 27.7471 33.0355 28.1786 33.0355 28.1786L32.2343 26.6377C32.2343 26.6377 34.1038 27.1924 35.583 27.0692C37.0417 26.9459 37.5964 25.1585 37.5964 25.1585C37.5964 25.1585 38.0278 24.2957 36.6514 23.967C35.2132 23.6588 6.90302 25.4051 1.60256 28.384Z" fill="#7C982D"/>
<path d="M30.5498 27.5419C30.7347 27.9733 32.8097 27.9322 33.0357 28.4458C33.0151 28.4047 32.9741 28.3431 32.933 28.302C32.481 27.7473 32.9741 28.1788 32.9741 28.1788L32.1728 26.6379L31.1867 26.4736C31.1867 26.4736 30.3649 27.1104 30.5498 27.5419Z" fill="#7C982D"/>
<path d="M25.6191 31.3836C25.5369 31.3425 21.839 29.3908 21.5719 29.6785C21.3048 29.9661 23.1949 31.6713 23.1949 31.6713C23.1949 31.6713 23.1949 31.6713 23.2154 31.6713C23.1332 31.3631 23.01 31.1576 23.01 31.1576C23.01 31.1576 24.7768 31.3425 25.6191 31.3836Z" fill="#7C982D"/>
<path d="M11.6491 30.8906C11.4025 31.055 12.2654 33.0067 11.8956 33.8901L11.9778 33.9517L13.2721 32.452C13.2515 32.452 11.8956 30.7263 11.6491 30.8906Z" fill="#7C982D"/>
<path d="M9.71772 32.6161L10.8888 31.1575L7.04694 30.6644C7.04694 30.6644 9.73826 32.308 9.71772 32.6161Z" fill="#7C982D"/>
<path d="M5.30037 32.2465L7.49863 31.0138C7.49863 31.0138 5.588 29.6784 5.07438 29.9661C4.58132 30.2537 5.62908 31.5274 5.07438 32.2876C5.2182 32.267 5.30037 32.2465 5.30037 32.2465Z" fill="#7C982D"/>
<path d="M29.7277 30.1921L28.3718 27.9117L32.3779 29.4114C32.3779 29.3909 30.796 30.1921 29.7277 30.1921Z" fill="#8AB52D"/>
<path d="M14.0933 33.2531L15.0589 31.9382L16.0656 33.1093C16.0656 33.1093 16.3121 35.2664 14.0933 33.2531Z" fill="#8AB52D"/>
<path d="M11.5665 31.8974L10.1694 34.034C10.1694 34.034 11.6281 34.3833 11.8746 34.0546C12.0595 33.8286 11.8541 32.2672 11.5665 31.8974Z" fill="#8AB52D"/>
<path d="M1.52032 31.4042C1.52032 31.4042 3.65695 29.6579 4.21165 29.5346C4.7458 29.4319 4.84852 29.966 4.84852 29.966C4.84852 29.966 5.44431 31.8356 5.25941 32.0821C5.05397 32.3287 3.51313 32.8012 1.52032 31.4042Z" fill="#8AB52D"/>
<path d="M12.7376 15.8727C12.7376 15.8727 3.61586 21.4197 0.616373 27.0284C0.493107 27.2338 0.575284 27.8707 0.616373 28.1378C0.698551 28.4459 2.36265 29.3499 4.95125 30.1511C4.97179 30.0278 5.01288 29.9251 5.1156 29.884C5.36214 29.8224 6.55371 30.4798 6.88242 30.6647C9.57374 31.3016 12.8609 31.6919 16.2301 31.3427C16.2918 31.24 16.374 31.1372 16.4972 31.0962C16.6821 31.0345 17.2368 31.0756 17.771 31.1167C19.0653 30.8907 20.3801 30.5415 21.6539 30.0278C21.5717 29.8429 21.5101 29.5964 21.6128 29.5142C21.736 29.4321 22.1058 29.5759 22.3935 29.7197C24.1397 28.939 25.8038 27.8501 27.3241 26.3709C27.5296 25.9601 18.942 18.4819 12.7376 15.8727Z" fill="#F69677"/>
<path d="M0.616394 27.0078C0.862927 28.0144 16.4767 35.4721 27.3447 25.4053C27.5501 24.9739 18.9626 17.5162 12.7581 14.9071C12.7376 14.9071 3.24608 21.2142 0.616394 27.0078Z" fill="#D65C4C"/>
<path d="M39.8154 18.5638C37.3295 16.9408 29.7486 13.8797 23.8729 12.2156C23.8729 12.2156 15.121 17.7215 12.4913 23.515C12.6557 24.193 22.3321 28.8976 30.5499 27.3157C30.7142 27.0692 31.3717 26.1036 32.0085 25.9598C32.5221 25.8365 33.2617 26.1652 33.6315 26.3707C36.2201 25.2202 38.5006 23.2068 40.0003 19.8992C40.0414 19.7965 39.9592 18.7076 39.8154 18.5638Z" fill="#F69677"/>
<path d="M12.4913 22.5289C12.7379 23.5356 32.666 33.5202 39.8154 18.6255C40.0209 18.1941 31.2689 13.3456 23.8729 11.2295C23.8729 11.2295 15.121 16.7354 12.4913 22.5289Z" fill="#D65C4C"/>
<path d="M2.0339 21.8509C2.0339 21.8509 0 23.2891 0 25.4051C0 27.8088 2.87622 29.74 6.69748 27.0076C6.69748 27.0076 7.70416 30.5618 11.2583 30.4796C14.792 30.3769 15.6549 28.3635 17.6682 27.9321C19.7021 27.5007 21.6333 30.2125 25.6189 28.7744C29.584 27.3363 29.0909 22.2618 29.0909 22.2618C29.0909 22.2618 31.5357 25.1997 33.8983 24.1108C36.8567 22.7549 35.85 20.2279 36.7745 19.3034C36.7745 19.3034 42.9379 15.9136 35.8911 12.873C28.8238 9.853 2.0339 21.8509 2.0339 21.8509Z" fill="#FDBE10"/>
<path d="M1.6644 24.8095C1.6644 24.8095 1.25351 19.6323 2.13692 18.1326C4.27354 14.4346 10.2725 13.3663 15.7373 11.4967C22.2705 9.25741 31.6182 6.13465 35.5011 8.49726C36.6516 9.19577 36.7748 16.8178 36.7748 16.8178C36.7748 16.8178 34.8847 22.8784 23.8524 25.9395C11.0327 29.4937 1.6644 24.8095 1.6644 24.8095Z" fill="#D16327"/>
<path d="M1.91045 21.132C0.533971 17.0231 6.34804 10.983 15.7368 7.3261C24.4888 3.89518 34.4734 5.1073 36.0142 9.36C37.4729 13.3662 31.5766 19.8787 23.7286 23.0426C14.9972 26.5557 3.3691 25.5079 1.91045 21.132Z" fill="#FF972A"/>
<path d="M2.81484 20.1253C1.6849 16.3657 9.22471 10.305 16.0865 7.81917C23.4414 5.16894 33.5493 5.37438 35.0285 9.21619C36.4255 12.832 30.0157 19.3241 23.5236 22.0976C15.162 25.6517 4.00642 24.152 2.81484 20.1253Z" fill="url(#paint0_linear)"/>
<path d="M8.11516 14.3728C7.35502 15.0919 12.3679 22.344 13.0458 22.0153C13.9292 21.625 8.79313 13.7359 8.11516 14.3728Z" fill="#DB7634"/>
<path d="M24.4478 7.98353C23.6876 8.53823 29.1114 14.9892 29.7893 14.4345C30.5495 13.8592 25.2079 7.40828 24.4478 7.98353Z" fill="#DB7634"/>
<path d="M11.2376 11.7432C10.4774 12.3595 17.1955 22.1798 18.387 21.5429C19.291 21.0498 12.0183 11.1063 11.2376 11.7432Z" fill="#DB7634"/>
<path d="M15.3466 9.72985C14.5248 10.2435 22.3933 20.8649 23.174 20.3513C24.119 19.7144 16.3943 9.05188 15.3466 9.72985Z" fill="#DB7634"/>
<path d="M19.7843 8.53816C19.1063 9.05177 26.3585 18.0708 26.8721 17.701C27.6939 17.1257 20.7498 7.83965 19.7843 8.53816Z" fill="#DB7634"/>
<path opacity="0.3" d="M7.80658 19.7349C7.68332 19.6527 7.51896 19.6322 7.37515 19.6733C7.23134 19.7143 7.08753 19.8171 7.02589 19.9403C6.88208 20.2074 6.96426 20.5567 7.23134 20.721C7.3546 20.8032 7.51896 20.8237 7.66277 20.7827C7.80658 20.7416 7.95039 20.6388 8.01203 20.5156C8.15584 20.228 8.07366 19.8787 7.80658 19.7349Z" fill="#B98D84"/>
<path opacity="0.3" d="M28.1666 15.0509C28.0433 14.9687 27.8789 14.9481 27.7351 14.9892C27.5913 15.0303 27.4475 15.133 27.3859 15.2563C27.2421 15.5234 27.3242 15.8726 27.5913 16.037C27.7146 16.1192 27.8789 16.1397 28.0228 16.0986C28.1666 16.0575 28.3104 15.9548 28.372 15.8316C28.5158 15.5645 28.4337 15.2152 28.1666 15.0509Z" fill="#B98D84"/>
<path opacity="0.3" d="M6.24562 16.9205C6.04017 16.7972 5.73201 16.8794 5.60874 17.0848C5.48548 17.3108 5.54711 17.5984 5.7731 17.7217C5.97854 17.845 6.28671 17.7628 6.40997 17.5573C6.55379 17.3314 6.49215 17.0643 6.24562 16.9205Z" fill="#B98D84"/>
<path opacity="0.3" d="M29.3377 9.11358C29.1323 8.99031 28.8241 9.07249 28.7008 9.27794C28.5776 9.50392 28.6392 9.79155 28.8652 9.91481C29.0706 10.0381 29.3788 9.9559 29.5021 9.75046C29.6253 9.52447 29.5637 9.23685 29.3377 9.11358Z" fill="#B98D84"/>
<path opacity="0.3" d="M5.93706 19.0159C5.7727 18.9132 5.52617 18.9748 5.42345 19.1392C5.32073 19.3241 5.38236 19.5501 5.54672 19.6528C5.71107 19.7555 5.9576 19.6939 6.06033 19.5295C6.18359 19.3446 6.12196 19.1186 5.93706 19.0159Z" fill="#B98D84"/>
<path d="M11.7102 31.4041C11.6075 31.4041 11.5253 31.3836 11.4226 31.3836C11.4431 31.5479 11.5048 31.7328 11.5664 31.9794C11.7308 32.5752 11.9568 33.3969 11.7513 33.9516C11.5048 34.1571 8.40257 33.9106 7.68352 33.3764C7.82733 33.2942 8.23821 33.212 8.50529 33.1504C9.22435 32.9861 9.67632 32.8628 9.73796 32.6163C9.7585 32.5546 9.7585 32.4519 9.65578 32.3492C8.36148 31.096 5.64962 29.6989 5.15655 29.7811C5.01274 29.8017 4.91002 29.8633 4.84838 29.966C4.70457 30.2126 4.80729 30.5824 4.9511 31.0343C5.07437 31.4247 5.21818 31.8767 5.07437 32.1026C5.03328 32.1848 4.9511 32.2259 4.80729 32.267C3.78007 32.4724 1.47909 31.6096 0.90385 30.1304C0.739495 29.6989 0.760039 29.247 1.43801 28.7539C1.33528 28.6923 1.25311 28.6512 1.17093 28.5895C0.595684 29.0004 0.472417 29.5962 0.636773 30.192C1.19147 31.9177 3.51299 32.8011 4.86893 32.5341C5.07437 32.493 5.21818 32.3903 5.3209 32.2465C5.52635 31.9177 5.36199 31.4247 5.21818 30.9522C5.11546 30.6234 5.01274 30.2536 5.09492 30.1304C5.09492 30.1098 5.11546 30.0893 5.19764 30.0687C5.48526 30.0277 8.0944 31.2398 9.45034 32.5546C9.32707 32.6573 8.77237 32.8012 8.44366 32.8628C7.76569 33.0271 7.41644 33.1093 7.37535 33.3148C7.3548 33.3559 7.3548 33.4586 7.45753 33.5408C7.95059 33.9927 9.9434 34.3009 11.0939 34.3009C11.361 34.3009 11.587 34.2804 11.7513 34.2393C11.854 34.2187 11.9773 34.1776 12.0389 34.0544C12.2855 33.3969 12.0389 32.5135 11.8746 31.8767C11.7924 31.7328 11.7308 31.5479 11.7102 31.4041Z" fill="#A8D458"/>
<path d="M25.9474 28.6513C25.8652 28.6924 25.7625 28.7335 25.6803 28.754C25.6803 28.7745 25.7008 28.7951 25.7008 28.8156C26.0501 29.5141 26.5226 30.4797 26.0501 30.9728C25.6597 31.4042 24.4682 30.7263 23.5231 30.1716C22.5781 29.6374 21.8179 29.206 21.4892 29.5347C21.407 29.6169 21.366 29.7196 21.366 29.8223C21.3865 30.1099 21.6947 30.377 22.085 30.7057C22.6397 31.1782 23.3382 31.774 23.1739 32.452C22.9684 33.2943 20.3182 33.7258 18.6952 33.5819C17.9556 33.5203 17.7707 33.356 17.7707 33.3354C17.7501 33.0889 18.5925 32.904 19.2088 32.7807C19.9895 32.6164 20.6469 32.4725 20.8113 32.1233C20.8523 32.0411 20.8729 31.8973 20.7291 31.7329C20.1744 31.1166 17.2365 30.7263 16.4353 31.0139C15.8806 31.2193 15.9217 31.8768 15.9833 32.4931C16.0244 33.0478 16.0655 33.6436 15.7368 33.9312C15.3259 34.301 13.9289 32.8629 13.0865 32.0206C12.8606 31.774 12.6551 31.5891 12.4908 31.4248C12.3469 31.4248 12.2031 31.4248 12.0593 31.4042C12.3059 31.6302 12.614 31.9384 12.9016 32.226C14.0316 33.3765 15.3259 34.6913 15.9422 34.1572C16.3942 33.7668 16.3326 33.0683 16.2915 32.4725C16.2298 31.8151 16.2298 31.4042 16.5586 31.281C17.3187 30.9933 20.1127 31.4453 20.5442 31.9178C20.5853 31.9589 20.5853 31.9795 20.5853 31.9795C20.4825 32.2055 19.7635 32.3493 19.1677 32.4725C18.3048 32.6574 17.4831 32.8218 17.5036 33.3354C17.5241 33.623 17.9145 33.7874 18.6746 33.849C20.1949 33.9723 23.1739 33.623 23.4615 32.4931C23.6669 31.6302 22.9068 30.9933 22.2905 30.4592C21.9823 30.2127 21.6741 29.9456 21.6741 29.7812C21.6741 29.7607 21.6741 29.7401 21.7152 29.699C21.9001 29.5141 22.763 30.0278 23.3999 30.377C24.5503 31.0344 25.7419 31.7124 26.2761 31.1166C26.8719 30.4797 26.3583 29.4114 25.9679 28.6307C25.9679 28.6718 25.9679 28.6513 25.9474 28.6513Z" fill="#A8D458"/>
<path d="M37.1443 23.9875C37.0622 24.0697 36.98 24.1314 36.9183 24.2135C37.2881 24.3368 37.473 24.5628 37.473 24.8915C37.4525 25.6311 36.4664 26.72 35.5213 26.7816C34.9872 26.8227 34.3092 26.5351 33.6723 26.268C32.9327 25.9598 32.2342 25.6516 31.7411 25.8776C31.2686 26.1036 30.2414 26.8227 30.3647 27.4596C30.4468 27.9115 31.0221 28.1375 32.1109 28.1992C32.5835 28.2197 32.8711 28.3635 32.8916 28.5484C32.9327 28.836 32.3575 29.4318 30.6934 29.9249C29.0293 30.418 27.509 29.1442 26.564 28.3019C26.4818 28.3635 26.3996 28.4046 26.2969 28.4457C27.283 29.3291 28.906 30.7261 30.755 30.192C32.3164 29.74 33.2409 29.1031 33.1587 28.5073C33.1176 28.1581 32.7273 27.9321 32.0904 27.9115C30.8783 27.8499 30.6317 27.5623 30.6112 27.3979C30.529 27.0076 31.2892 26.3707 31.8233 26.1242C32.1931 25.9598 32.83 26.2269 33.5285 26.5145C34.2065 26.8021 34.8844 27.0898 35.5008 27.0487C36.5075 26.987 37.6785 25.8365 37.7196 24.8915C37.7607 24.4806 37.5552 24.1724 37.1443 23.9875Z" fill="#A8D458"/>
</g>
<defs>
<linearGradient id="paint0_linear" x1="11.289" y1="10.7047" x2="39.3017" y2="25.7431" gradientUnits="userSpaceOnUse">
<stop offset="0.1902" stop-color="#FFE49B"/>
<stop offset="1" stop-color="#FFB144"/>
</linearGradient>
<clipPath id="clip0">
<rect width="40" height="40" fill="white"/>
</clipPath>
</defs>
</svg>
