<svg width="40" height="40" viewBox="0 0 40 40" fill="none" xmlns="http://www.w3.org/2000/svg">
<g clip-path="url(#clip0)">
<path d="M24.3504 0.482093C16.876 -1.18959 9.06078 5.33014 6.88833 15.0436C6.73556 15.7267 6.60981 16.4161 6.52232 17.0926L33.4039 23.1047C33.613 22.4554 33.7929 21.7781 33.9457 21.0951C36.1181 11.3816 31.8249 2.15378 24.3504 0.482093Z" fill="#C9C9C7"/>
<path d="M33.9464 21.0954C35.7794 12.8996 33.0105 5.0472 27.6095 1.79272C28.6789 5.08557 28.8718 8.6003 28.1698 11.9905C27.3822 15.323 25.7165 18.3839 23.3461 20.8554L33.4047 23.105C33.6137 22.4557 33.7936 21.7784 33.9464 21.0954Z" fill="#A8A8A6"/>
<path d="M23.4428 4.54069C15.971 2.86959 8.15298 9.38939 5.98067 19.1022C4.00877 27.919 7.36677 36.3352 13.5908 39.0638C13.9639 37.346 13.9278 35.5643 13.4853 33.8631C13.1864 32.5976 13.186 31.2797 13.484 30.0139C14.2361 26.6512 16.6625 24.3323 18.9042 24.8337C21.1459 25.335 22.3533 28.4666 21.6012 31.8293C21.3316 33.1015 20.7698 34.2937 19.9603 35.3112C18.8352 36.6619 18.0436 38.2584 17.6494 39.9716C24.4427 40.1543 31.0661 33.9704 33.038 25.1537C35.2103 15.4409 30.9146 6.21178 23.4428 4.54069Z" fill="#E04343"/>
<path d="M13.4961 20.4279C14.0419 18.0016 16.4486 16.4746 18.8763 17.0144L22.2584 17.7709C24.5238 18.2873 26.025 20.4417 25.7248 22.7457C25.4245 25.0497 23.4213 26.7477 21.0992 26.6664C21.3277 27.1024 21.5002 27.5655 21.6129 28.0447C24.5397 27.8676 26.8913 25.5653 27.1295 22.6426C27.368 19.72 25.4207 17.0669 22.561 16.418L19.1788 15.6616C16.3152 15.0305 13.4232 16.6012 12.3939 19.347C11.3644 22.0927 12.5112 25.1774 15.0837 26.5844C15.3898 26.1989 15.7431 25.8534 16.1356 25.5562C14.1349 24.7061 13.0253 22.5502 13.4961 20.4279Z" fill="#F26666"/>
<path d="M10.7907 19.823C11.6723 15.9031 15.5599 13.4366 19.4818 14.3089L22.8639 15.0654C26.3818 15.8556 28.7905 19.1022 28.5273 22.6981C28.2641 26.2939 25.4078 29.1547 21.8125 29.424C21.8338 29.8869 21.8181 30.3509 21.7658 30.8116C26.0822 30.5694 29.559 27.1811 29.9121 22.8718C30.265 18.5629 27.3861 14.6538 23.1665 13.7125L19.7843 12.9561C15.5657 12.0101 11.2959 14.3204 9.77961 18.3691C8.26329 22.4182 9.96542 26.9648 13.7675 29.0227C13.9163 28.5837 14.0998 28.1572 14.3163 27.7475C11.5262 26.1687 10.0953 22.9524 10.7907 19.823Z" fill="#F26666"/>
<path d="M8.08559 19.2178C9.30282 13.8048 14.6717 10.3985 20.0875 11.6032L23.4697 12.3596C28.4294 13.4654 31.7818 18.1012 31.279 23.1576C30.7758 28.2143 26.5753 32.0986 21.4952 32.2054C21.3697 32.6827 21.2055 33.1488 21.0041 33.5994C26.8808 33.7331 31.902 29.3908 32.6166 23.5563C33.3316 17.7219 29.5074 12.2957 23.7723 11.0067L20.3901 10.2503C14.6523 8.97326 8.8809 12.2534 7.0423 17.8365C5.20337 23.4195 7.89637 29.4872 13.2701 31.8696C13.2799 31.3762 13.3298 30.8845 13.4196 30.3993C9.28521 28.3388 7.08559 23.7278 8.08559 19.2178Z" fill="#F26666"/>
<path d="M13.4009 33.4044C9.40106 31.9005 6.41205 28.5054 5.42725 24.3474C5.43943 25.994 5.64809 27.6336 6.04899 29.2308C7.85659 31.9785 10.5648 34.0103 13.708 34.9776C13.6497 34.6039 13.5779 34.232 13.4851 33.8623C13.4482 33.7171 13.4281 33.5589 13.4009 33.4044Z" fill="#F26666"/>
<path d="M20.2313 34.9321C20.1413 35.0583 20.0558 35.1928 19.9604 35.3092C19.7191 35.6031 19.495 35.9091 19.2836 36.2232C22.5394 36.6871 25.8551 36.0026 28.661 34.2867C29.7041 33.0125 30.5913 31.618 31.3038 30.1334C28.6418 33.4761 24.4907 35.2754 20.2313 34.9321Z" fill="#F26666"/>
<path d="M20.6918 8.89734L24.074 9.65377C28.5791 10.6662 32.1916 14.0225 33.5327 18.4408C33.4089 16.7596 33.0709 15.1015 32.5267 13.5062C30.5061 10.8669 27.6205 9.024 24.3765 8.3009L20.9944 7.54447C17.7514 6.81675 14.3556 7.25481 11.4033 8.78184C10.2314 9.99333 9.21917 11.3494 8.39101 12.8178C11.4864 9.39175 16.1846 7.89415 20.6918 8.89734Z" fill="#F26666"/>
<path d="M23.4429 4.54072C23.2163 4.49005 22.9885 4.44778 22.7614 4.41189L18.2077 24.7723C18.6775 24.7497 19.1452 24.8543 19.5606 25.0748L24.1143 4.71447C23.8935 4.65018 23.6694 4.5914 23.4429 4.54072Z" fill="#F26666"/>
<path d="M22.2312 22.6572C22.5748 21.121 21.6419 19.6046 20.1476 19.2704C18.6534 18.9362 17.1633 19.9107 16.8198 21.4469C16.4762 22.9831 17.4092 24.4992 18.9034 24.8334C20.3977 25.1676 21.8876 24.1934 22.2312 22.6572Z" fill="#F26666"/>
</g>
<defs>
<clipPath id="clip0">
<rect width="40" height="40" fill="white"/>
</clipPath>
</defs>
</svg>
