<svg width="40" height="40" viewBox="0 0 40 40" fill="none" xmlns="http://www.w3.org/2000/svg">
<g clip-path="url(#clip0)">
<path d="M38.512 13.1751C38.512 13.1751 37.2124 9.04592 33.477 9.91463C29.7886 10.7871 31.6395 16.6235 31.6395 16.6235L38.512 13.1751Z" fill="#84B73B"/>
<path d="M0.245792 24.4994C0.245792 24.4994 -1.36907 20.9964 2.09761 18.8969C5.54476 16.8052 8.83162 21.4732 8.83162 21.4732C8.83162 21.4732 2.95504 21.1389 0.245792 24.4994Z" fill="#84B73B"/>
<path d="M34.9019 5.61885C33.3532 5.38005 29.5051 8.22325 29.5051 8.22325C29.5051 8.22325 28.1536 1.93618 25.3792 2.486C22.9604 2.96072 21.6673 8.42904 21.6673 8.42904C19.852 4.48476 17.4988 2.8678 15.6899 3.39194C11.9394 4.44833 11.1397 15.3691 8.1791 14.8364C5.21846 14.3038 -0.397688 16.7015 0.129196 18.0099C0.490938 18.9083 5.19409 20.6683 5.19409 20.6683C8.2584 20.3876 16.3083 27.359 16.3083 27.359C16.3083 27.359 17.9634 29.6656 20.2827 31.8182C20.3867 31.1182 20.5845 30.4257 20.8761 29.7409C21.2499 29.0911 21.6315 28.4608 22.0053 27.811C22.6873 26.8555 23.5691 26.1146 24.6274 25.643C25.6071 24.9762 26.697 24.5827 27.9047 24.4822C29.0615 24.3114 30.1681 24.4105 31.2402 24.8185C31.5844 24.8842 31.9169 24.9772 32.2377 25.0977C31.979 21.4117 31.9414 16.9786 32.9524 14.6423C34.8617 10.1968 36.4506 5.85765 34.9019 5.61885Z" fill="#538416"/>
<path d="M28.9723 21.3289C31.7483 21.4593 32.9162 31.1793 32.9162 31.1793C32.9162 31.1793 33.6079 34.4186 28.1407 35.3265C22.6619 36.2617 16.316 27.3787 16.316 27.3787C16.316 27.3787 27.6626 21.289 28.9723 21.3289Z" fill="#71A726"/>
<path d="M31.3938 20.2403C31.6259 14.1098 32.4176 6.55115 33.9451 0.988474C33.9451 0.988474 27.8262 -1.01852 26.4941 2.83139C25.9893 4.28294 28.9612 6.30895 27.0347 6.65352C26.2297 6.79612 20.9075 6.14775 20.2535 10.7232C19.457 16.2412 31.3938 20.2403 31.3938 20.2403Z" fill="url(#paint0_linear)"/>
<path d="M13.5561 17.3693C13.5561 17.3693 7.55967 5.80356 9.78136 4.61387C11.9757 3.41252 15.157 8.10034 16.485 7.56559C17.8129 7.03084 18.9449 4.60049 20.9585 4.69748C23.1597 4.80967 22.8835 10.4359 23.6611 10.2817C24.4387 10.1274 27.1251 7.04839 26.699 13.8243C26.4052 18.6179 19.9747 28.9692 19.9747 28.9692L13.5561 17.3693Z" fill="url(#paint1_linear)"/>
<path d="M11.7025 23.6988C11.7025 23.6988 6.30905 15.8847 -0.816716 14.6462C-1.73968 14.4959 2.88444 10.8182 5.66407 12.5358C5.66407 12.5358 6.72229 10.3168 8.86312 9.65894C12.883 8.426 14.6404 17.7497 15.024 19.6605C15.396 21.5987 11.7025 23.6988 11.7025 23.6988Z" fill="url(#paint2_linear)"/>
<path d="M2.99067 9.50449C2.99067 9.50449 12.1579 14.4599 18.1374 27.1672C23.3587 38.2735 25.2266 24.426 24.6673 20.9519C24.1081 17.4777 22.421 11.4846 19.6171 11.1158C16.8406 10.7586 14.4479 14.0598 13.3671 13.2921C12.2864 12.5245 13.5452 7.47847 11.0294 6.58513C8.86974 5.84343 5.156 7.61125 2.99067 9.50449Z" fill="url(#paint3_linear)"/>
<path d="M19.6363 11.108C16.8598 10.7509 14.4671 14.052 13.3863 13.2844C12.3056 12.5167 13.5644 7.47068 11.0486 6.57734C10.5439 6.39477 9.94179 6.36489 9.28516 6.42505C9.28516 6.42505 11.1463 6.53803 11.7906 7.91264C12.5645 9.55279 11.7238 12.8191 13.2035 13.6757C14.6794 14.5793 16.5918 11.4943 19.6363 11.108Z" fill="url(#paint4_linear)"/>
<path d="M21.6296 27.6673C19.9186 26.518 18.3994 23.8162 18.9615 21.7742C19.5237 19.7322 23.229 21.0997 23.4859 20.6105C23.7623 20.1133 18.8133 13.4593 20.9439 11.7616C22.618 10.452 25.6883 12.7788 26.1687 12.5627C27.4652 11.9498 26.2939 7.51926 30.8822 6.96524C29.236 15.2765 29.2806 21.0232 31.6777 28.0467C31.6777 28.0467 33.3553 29.9584 32.5753 32.474C32.0553 34.1132 30.7273 34.648 30.7273 34.648C30.7273 34.648 31.3462 31.7888 28.9671 30.8404C25.4611 29.4607 23.3055 28.7854 21.6296 27.6673Z" fill="url(#paint5_linear)"/>
<path d="M24.3639 28.4273C24.3639 28.4273 24.2936 31.8599 25.766 32.9238C27.2306 33.9681 30.6904 32.3025 30.5191 30.919C30.3438 29.469 27.6601 28.666 27.6601 28.666L32.4065 28.8427C32.4065 28.8427 34.3166 33.248 29.02 35.1993C23.4538 37.2138 21.608 31.8974 24.3639 28.4273Z" fill="url(#paint6_linear)"/>
<path d="M26.3456 13.0588C27.4002 12.6341 27.4528 10.003 27.9847 8.44974C26.8037 9.96931 27.0707 12.154 26.1686 12.5627C25.6882 12.7788 22.6179 10.452 20.9438 11.7616C18.7937 13.4672 23.7622 20.1134 23.4858 20.6105C23.2989 20.9354 21.5542 20.4352 20.2685 20.6805C21.0979 20.9366 23.7776 21.6732 24.2257 21.0388C24.74 20.287 19.5891 14.259 20.992 12.3323C22.1844 10.672 25.0372 13.5857 26.3456 13.0588Z" fill="url(#paint7_linear)"/>
<path d="M34.3414 11.8363C32.1542 12.717 32.0952 14.2614 31.2837 14.9513C30.4721 15.6412 29.6654 13.3561 27.2568 14.8707C24.8287 16.3932 25.8498 20.1125 28.1996 21.8898C28.1996 21.8898 26.4678 21.929 26.1729 22.8874C25.8975 23.8381 28.0968 24.7908 28.1144 25.6234C28.1515 26.4482 25.5021 26.9704 26.537 28.1877C27.5719 29.4051 31.371 29.0327 31.8436 30.5445C33.0291 34.3339 27.1309 36.4821 24.7831 33.8643C23.0349 31.8902 25.9669 25.0811 23.3372 23.9613C20.7075 22.8414 19.1491 25.1711 18.2053 24.4618C17.2615 23.7525 17.0802 18.0608 15.0776 17.5963C13.0749 17.1319 13.5846 19.4685 12.7405 19.6268C11.8965 19.7851 9.62615 15.1617 7.17693 16.0118C5.36049 16.6298 6.24886 18.7231 4.55392 19.4737C3.30028 20.024 -0.309784 20.9784 0.194952 24.5426C0.194952 24.5426 5.04385 21.7049 9.2403 24.1229C12.967 26.2762 17.4759 35.3316 20.9548 36.813C23.1267 37.7541 25.6901 37.2438 28.4436 36.135C29.5372 35.6946 30.6778 35.258 31.5712 34.4897C33.4713 32.8395 33.8691 30.7275 33.4337 28.4063C32.9506 25.7413 32.628 23.1931 33.1221 20.4749C33.9598 15.8482 38.4495 13.2459 38.4495 13.2459C38.4495 13.2459 36.8802 10.8139 34.3414 11.8363Z" fill="#8EC726"/>
<path d="M23.6809 10.2737C22.9032 10.4279 23.16 4.80955 20.9783 4.6895C18.9569 4.57299 17.8132 7.03073 16.5048 7.55761C15.5869 7.92722 13.7327 5.74616 11.9479 4.80812C11.9283 4.81599 11.9088 4.82385 11.9088 4.82385C11.9088 4.82385 15.2435 8.20167 16.4003 8.03089C17.5376 7.86797 19.189 5.20577 20.6273 5.05779C22.6363 4.86159 22.4386 10.6831 23.5216 10.7236C24.0963 10.7418 24.8054 9.68466 25.7392 9.46748C24.9649 9.34808 24.0834 10.2024 23.6809 10.2737Z" fill="url(#paint8_linear)"/>
<path d="M7.2091 16.43C8.45081 15.7938 10.5152 17.5951 11.1067 18.1059C10.0523 16.8964 8.6651 15.4805 7.20805 15.9765C5.39161 16.5945 6.27998 18.6878 4.58504 19.4384C3.52669 19.91 0.764484 20.6592 0.257918 23.0646C0.250316 23.1585 0.242714 23.2523 0.235112 23.3462C0.235112 23.3462 0.860687 21.6871 2.5551 20.7098C3.99184 19.8816 4.78596 20.1065 5.43775 19.6398C6.37841 18.9886 6.29151 16.9129 7.2091 16.43Z" fill="url(#paint9_linear)"/>
<path d="M35.5998 11.5793C35.2127 11.5763 34.7907 11.6554 34.3416 11.8363C32.1543 12.7171 32.0954 14.2614 31.2838 14.9513C30.4722 15.6413 29.6655 13.3561 27.257 14.8707C24.8288 16.3932 25.85 20.1126 28.1997 21.8898C28.1997 21.8898 24.7422 17.8125 26.9111 15.759C29.314 13.4977 30.0898 15.9314 31.2811 15.4517C32.7067 14.8777 32.0328 12.5844 35.5998 11.5793Z" fill="url(#paint10_linear)"/>
<path d="M1.43525 23.2259C1.43525 23.2259 2.66569 21.0964 5.30849 21.1216C7.95129 21.1467 7.08547 18.6584 8.27673 18.1787C9.46798 17.699 12.0584 22.1028 13.0858 21.7799C14.1053 21.4374 13.8934 19.3894 14.722 19.3054C15.5427 19.2018 16.0092 26.5035 17.4678 26.6878C18.9265 26.872 20.9662 24.7797 21.9702 26.1457C22.9741 27.5116 21.0315 36.1011 17.0284 31.0634C12.9664 25.9358 10.0784 19.6093 1.43525 23.2259Z" fill="url(#paint11_linear)"/>
</g>
<defs>
<linearGradient id="paint0_linear" x1="27.4394" y1="-0.762284" x2="26.1559" y2="23.6474" gradientUnits="userSpaceOnUse">
<stop stop-color="#8EC726"/>
<stop offset="1" stop-color="#6D9F3B"/>
</linearGradient>
<linearGradient id="paint1_linear" x1="17.1087" y1="2.92325" x2="18.8774" y2="14.6053" gradientUnits="userSpaceOnUse">
<stop stop-color="#8EC726"/>
<stop offset="1" stop-color="#6D9F3B"/>
</linearGradient>
<linearGradient id="paint2_linear" x1="-4.82701" y1="7.52659" x2="10.1661" y2="16.183" gradientUnits="userSpaceOnUse">
<stop stop-color="#8EC726"/>
<stop offset="1" stop-color="#6D9F3B"/>
</linearGradient>
<linearGradient id="paint3_linear" x1="11.5982" y1="8.71675" x2="17.7101" y2="23.8947" gradientUnits="userSpaceOnUse">
<stop stop-color="#8EC726"/>
<stop offset="1" stop-color="#6D9F3B"/>
</linearGradient>
<linearGradient id="paint4_linear" x1="14.4034" y1="9.8627" x2="30.073" y2="30.3068" gradientUnits="userSpaceOnUse">
<stop stop-color="#C7E339"/>
<stop offset="0.3046" stop-color="#B9DD3E"/>
<stop offset="0.8776" stop-color="#95CE4B"/>
<stop offset="0.9975" stop-color="#8CCB4E"/>
<stop offset="1" stop-color="#8CCB4E"/>
</linearGradient>
<linearGradient id="paint5_linear" x1="23.87" y1="12.5557" x2="31.3826" y2="32.8677" gradientUnits="userSpaceOnUse">
<stop stop-color="#8EC726"/>
<stop offset="0.9975" stop-color="#5D9734"/>
</linearGradient>
<linearGradient id="paint6_linear" x1="20.7719" y1="20.4274" x2="28.6856" y2="32.4045" gradientUnits="userSpaceOnUse">
<stop stop-color="#70A51E"/>
<stop offset="0.9975" stop-color="#588D25"/>
<stop offset="1" stop-color="#588D25"/>
</linearGradient>
<linearGradient id="paint7_linear" x1="18.2589" y1="6.90768" x2="33.9285" y2="27.3518" gradientUnits="userSpaceOnUse">
<stop stop-color="#C7E339"/>
<stop offset="0.3046" stop-color="#B9DD3E"/>
<stop offset="0.8776" stop-color="#95CE4B"/>
<stop offset="0.9975" stop-color="#8CCB4E"/>
<stop offset="1" stop-color="#8CCB4E"/>
</linearGradient>
<linearGradient id="paint8_linear" x1="12.1046" y1="1.37724" x2="37.4722" y2="21.2" gradientUnits="userSpaceOnUse">
<stop stop-color="#C7E339"/>
<stop offset="0.3046" stop-color="#B9DD3E"/>
<stop offset="0.8776" stop-color="#95CE4B"/>
<stop offset="0.9975" stop-color="#8CCB4E"/>
<stop offset="1" stop-color="#8CCB4E"/>
</linearGradient>
<linearGradient id="paint9_linear" x1="0.364939" y1="16.4007" x2="25.7326" y2="36.2235" gradientUnits="userSpaceOnUse">
<stop stop-color="#C7E339"/>
<stop offset="0.3046" stop-color="#B9DD3E"/>
<stop offset="0.8776" stop-color="#95CE4B"/>
<stop offset="0.9975" stop-color="#8CCB4E"/>
<stop offset="1" stop-color="#8CCB4E"/>
</linearGradient>
<linearGradient id="paint10_linear" x1="22.0237" y1="4.02237" x2="37.6933" y2="24.4664" gradientUnits="userSpaceOnUse">
<stop stop-color="#C7E339"/>
<stop offset="0.3046" stop-color="#B9DD3E"/>
<stop offset="0.8776" stop-color="#95CE4B"/>
<stop offset="0.9975" stop-color="#8CCB4E"/>
<stop offset="1" stop-color="#8CCB4E"/>
</linearGradient>
<linearGradient id="paint11_linear" x1="10.6466" y1="22.8409" x2="22.738" y2="30.3072" gradientUnits="userSpaceOnUse">
<stop stop-color="#A5D251"/>
<stop offset="1" stop-color="#8EC726"/>
</linearGradient>
<clipPath id="clip0">
<rect width="40" height="40" fill="white"/>
</clipPath>
</defs>
</svg>
