<svg width="35" height="35" viewBox="0 0 35 35" fill="none" xmlns="http://www.w3.org/2000/svg">
<g clip-path="url(#clip0)">
<path d="M21.1087 11.2358C23.266 10.9052 24.7467 8.88852 24.416 6.73117C24.0854 4.57382 22.0687 3.09318 19.9114 3.42383C19.7089 3.45485 19.5145 3.50529 19.3243 3.56512C18.7809 1.68661 16.9191 0.45579 14.9342 0.760006C12.9494 1.06422 11.5416 2.79615 11.5858 4.75116C11.3864 4.75105 11.1858 4.76116 10.9834 4.79219C8.82602 5.12284 7.34537 7.1395 7.67602 9.29685C8.00667 11.4542 10.0233 12.9348 12.1807 12.6042" fill="#ED7775"/>
<path d="M12.2662 13.1619C9.80481 13.5392 7.49529 11.8435 7.11803 9.38209C6.74078 6.92068 8.43644 4.61116 10.8979 4.23391C13.3593 3.85666 15.6688 5.55232 16.046 8.01373L14.93 8.18478C14.647 6.33831 12.9154 5.06691 11.0689 5.34991C9.22243 5.63291 7.95103 7.36458 8.23404 9.21105C8.51704 11.0575 10.2487 12.3289 12.0952 12.0459L12.2662 13.1619Z" fill="#DC6068"/>
<path d="M21.1939 11.7936L21.0229 10.6776C22.8693 10.3946 24.1407 8.66292 23.8577 6.81645C23.5747 4.96998 21.843 3.69858 19.9966 3.98158C19.8364 4.00614 19.6774 4.04249 19.5232 4.08956L19.1953 3.00903C19.4003 2.94609 19.613 2.89815 19.8255 2.86558C22.2869 2.48833 24.5965 4.18399 24.9737 6.6454C25.351 9.10682 23.6553 11.4163 21.1939 11.7936Z" fill="#DC6068"/>
<path d="M19.5873 6.65571L18.5736 6.15714C18.8804 5.53511 18.9866 4.84148 18.881 4.15297C18.598 2.3065 16.8664 1.03511 15.0199 1.31811C13.3644 1.57184 12.1287 3.02335 12.1457 4.69531L11.0172 4.70653C10.9942 2.47666 12.6419 0.540355 14.8488 0.202106C17.3103 -0.175146 19.6198 1.52051 19.997 3.98193C20.1378 4.90039 19.9962 5.82505 19.5873 6.65571Z" fill="#DC6068"/>
<path d="M7.15891 13.3745L26.1309 10.4667L26.8151 14.9307L7.84309 17.8385L7.15891 13.3745Z" fill="#CB9E78"/>
<path d="M24.5828 15.2724L23.4135 33.7271L16.7175 34.7533L10.0748 17.496" fill="#CB9E78"/>
<path d="M10.0748 17.496L16.7175 34.7533L21.1815 34.0691L22.3508 15.6145L10.0748 17.496Z" fill="#DBAF89"/>
<path d="M26.9007 15.4888L7.92868 18.3966C7.6208 18.4438 7.33247 18.2328 7.28516 17.9241L6.60098 13.4601C6.55367 13.1514 6.76558 12.8638 7.07346 12.8166L26.0455 9.9088C26.3534 9.86162 26.6417 10.0726 26.689 10.3813L27.3732 14.8453C27.4205 15.154 27.2086 15.4416 26.9007 15.4888ZM8.31564 17.1951L26.1717 14.4583L25.6585 11.1103L7.8025 13.8471L8.31564 17.1951Z" fill="#BC8F6F"/>
<path d="M23.4994 34.2855L16.8034 35.3118C16.541 35.352 16.2866 35.2042 16.191 34.9567L9.54825 17.6994L10.6021 17.2936L17.0817 34.127L22.8796 33.2383L24.0202 15.237L25.1472 15.3086L23.9779 33.7632C23.9602 34.0281 23.7618 34.2453 23.4994 34.2855Z" fill="#BC8F6F"/>
<path d="M12.3204 23.6016L17.9901 15.8794L18.9001 16.5475L13.2304 24.2698L12.3204 23.6016Z" fill="#BC8F6F"/>
<path d="M17.1659 17.9557L17.834 17.0457L24.2692 21.7705L23.6011 22.6804L17.1659 17.9557Z" fill="#BC8F6F"/>
<path d="M14.2058 28.4526L24.1276 14.9389L25.0379 15.6073L15.1161 29.1209L14.2058 28.4526Z" fill="#BC8F6F"/>
<path d="M9.74084 17.9515L10.409 17.0415L22.6358 26.0183L21.9678 26.9286L9.74084 17.9515Z" fill="#BC8F6F"/>
<path d="M16.0913 33.3038L23.6507 23.0078L24.561 23.6758L17.0016 33.9719L16.0913 33.3038Z" fill="#BC8F6F"/>
<path d="M15.1862 27.3968L15.8544 26.4869L23.5769 32.1565L22.9088 33.0668L15.1862 27.3968Z" fill="#BC8F6F"/>
</g>
<defs>
<clipPath id="clip0">
<rect width="35" height="35" fill="white"/>
</clipPath>
</defs>
</svg>
