<svg width="40" height="40" viewBox="0 0 40 40" fill="none" xmlns="http://www.w3.org/2000/svg">
<g clip-path="url(#clip0)">
<path d="M0 12.9518C0.770031 20.7354 6.74297 36.3441 24.4121 33.2224C41.8314 30.1214 40.5203 9.3722 39.4589 6.66669C35.7544 6.83318 4.72424 11.7864 0 12.9518Z" fill="#58A037"/>
<path d="M38.7303 6.72913C33.5066 7.22861 10.4889 10.8915 2.30995 12.4731C2.12264 13.8051 7.07581 34.4294 24.516 31.3493C40.978 28.4149 39.6252 8.33162 38.7303 6.72913Z" fill="#ADCC7A"/>
<path d="M38.0436 6.79144C31.925 7.47823 11.4463 10.7457 3.03839 12.3273C3.2257 14.6582 8.7616 33.3055 24.0998 30.3919C39.3131 27.5198 38.8552 8.76855 38.0436 6.79144Z" fill="#F1D7D2"/>
<path d="M4.51644 11.932C4.05859 12.1193 8.82446 31.6822 23.8297 28.8518C38.4603 26.0631 37.2948 7.37421 36.5248 6.89554C35.3593 6.16713 7.01384 10.8914 4.51644 11.932Z" fill="url(#paint0_linear)"/>
<path d="M13.5277 15.0537C12.8617 15.0121 11.613 18.5709 13.5069 18.5709C15.2342 18.5917 14.2769 15.1161 13.5277 15.0537Z" fill="#5A2C27"/>
<path d="M22.5183 14.9081C21.894 15.137 21.4985 18.4877 23.2051 18.1131C25.0781 17.7177 23.2467 14.6375 22.5183 14.9081Z" fill="#5A2C27"/>
<path d="M30.2183 11.0579C29.5315 11.3493 29.6356 14.8456 31.3005 14.0964C32.8406 13.4096 30.7594 10.829 30.2183 11.0579Z" fill="#914028"/>
<path d="M18.7303 20.8809C18.106 20.985 17.2319 24.627 19.0841 24.4397C21.2277 24.19 19.5628 20.7353 18.7303 20.8809Z" fill="#5A2C27"/>
<path d="M27.5548 19.3411C27.201 19.4868 26.9929 22.8375 28.5954 22.2964C30.1354 21.7761 28.3248 19.0289 27.5548 19.3411Z" fill="#5A2C27"/>
<path d="M7.42985 12.3691C7.3466 11.6615 15.2966 10.3088 15.588 10.6417C16.1915 11.3077 7.53391 13.1183 7.42985 12.3691Z" fill="#FFDAD1"/>
<path d="M16.9823 10.5378C16.795 9.95509 19.8751 9.39317 20 9.99671C20.0832 10.6211 17.1904 11.2246 16.9823 10.5378Z" fill="#FFDAD1"/>
</g>
<defs>
<linearGradient id="paint0_linear" x1="18.4429" y1="-2.43114" x2="23.7085" y2="27.2998" gradientUnits="userSpaceOnUse">
<stop offset="0.0920245" stop-color="#EB7C75"/>
<stop offset="0.7669" stop-color="#EA2C28"/>
<stop offset="1" stop-color="#EA2C28"/>
</linearGradient>
<clipPath id="clip0">
<rect width="40" height="40" fill="white"/>
</clipPath>
</defs>
</svg>
