<svg width="35" height="35" viewBox="0 0 35 35" fill="none" xmlns="http://www.w3.org/2000/svg">
<g clip-path="url(#clip0)">
<path d="M26.4354 17.0676C27.4123 17.2994 28.4799 17.2944 29.6187 16.8138C31.5762 15.9881 32.9682 14.1105 33.0117 11.986C33.0608 9.60646 31.5511 7.57709 29.436 6.83513C29.2874 4.67475 27.4923 2.96786 25.2948 2.96786C25.2885 2.96786 25.2822 2.96849 25.2759 2.96849C25.3149 2.6416 25.2929 2.29582 25.1871 1.93491C24.8898 0.920859 23.9986 0.142997 22.9492 0.0182871C22.0889 -0.0837482 21.299 0.224247 20.7454 0.771585C20.2201 0.29731 19.5298 2.15093e-05 18.7645 2.15093e-05C17.125 2.15093e-05 15.796 1.329 15.796 2.96849C15.796 2.97353 15.7973 2.97857 15.7973 2.98361C13.8045 3.13477 12.2336 4.79631 12.2336 6.82757C12.2336 7.13808 12.2739 7.43852 12.3432 7.72762C9.97122 7.82651 8.07726 9.77463 8.07726 12.1706C8.07726 12.9824 8.29771 13.7408 8.67751 14.3964C7.94878 14.9954 7.48395 15.9037 7.48395 16.9202C7.48395 18.3418 8.39408 19.548 9.66259 19.9964C9.49883 25.8017 11.5704 29.2268 15.5781 33.8405C15.6499 33.923 15.7224 34.0061 15.7954 34.0886C15.8112 34.1063 15.8269 34.1239 15.8427 34.1415C17.5092 36.0116 21.2682 34.5793 20.4594 32.2085C16.1418 19.5423 29.4505 21.3733 29.4505 21.3733C29.4505 21.3733 29.8309 17.5419 26.3976 17.3624C26.402 17.2667 26.4065 17.1703 26.4109 17.0746C26.4197 17.0727 26.4266 17.0695 26.4354 17.0676Z" fill="#88C057"/>
<path d="M15.8433 34.1418C15.8275 34.1242 15.8118 34.1066 15.796 34.0889C15.723 34.0064 15.6505 33.9239 15.5787 33.8408C11.5704 29.2271 9.49882 25.802 9.66321 19.9967C8.3947 19.5483 7.48457 18.3421 7.48457 16.9205C7.48457 15.9033 7.94939 14.9957 8.67813 14.3967C8.29896 13.7411 8.07788 12.9827 8.07788 12.1709C8.07788 9.77491 9.97184 7.82617 12.3438 7.72791C12.2746 7.43881 12.2342 7.13837 12.2342 6.82786C12.2342 5.21419 13.2269 3.83734 14.6333 3.26166C14.5401 2.95618 14.4217 2.64819 14.2661 2.34019C13.4902 0.802736 12.1247 -0.16282 10.8782 0.0399908C9.8509 0.2069 9.13225 1.04523 8.82299 2.17265C7.96136 1.59256 7.00525 1.36708 6.14173 1.6713C4.29061 2.32319 3.70674 4.98492 4.76678 7.45015C4.76992 7.45771 4.77433 7.464 4.77748 7.47156C2.77079 8.43019 2.23731 11.2802 3.5096 13.8513C3.6954 14.226 3.91144 14.5706 4.14701 14.8886C1.93057 15.8051 1.34544 18.5877 2.74119 21.0196C3.18712 21.7968 3.78295 22.4367 4.44555 22.9198C4.13189 23.67 4.19991 24.5927 4.69875 25.4443C5.36828 26.5881 6.62483 27.267 7.80138 27.2589C9.86917 31.3195 12.4062 32.8947 16.2476 34.5248C16.2879 34.5418 16.3283 34.5588 16.3686 34.5752C16.1796 34.4555 16.0001 34.3182 15.8433 34.1418Z" fill="#659C35"/>
<path d="M17.3492 15.3804C17.3857 15.2998 17.4027 15.2154 17.404 15.1322C17.8556 13.996 18.3991 13.0424 18.9647 12.2469C21.789 11.6599 23.9197 12.5423 23.967 12.5624C24.0495 12.599 24.1351 12.6154 24.2183 12.6154C24.4608 12.6154 24.6919 12.4743 24.7959 12.2387C24.9357 11.92 24.7902 11.5484 24.4721 11.4086C24.3846 11.3708 22.6468 10.6288 20.1482 10.8108C21.3689 9.53792 22.4402 8.96035 22.6002 8.87973C23.5154 8.44135 24.8525 9.00822 25.2915 9.26394C25.3917 9.32314 25.5013 9.35085 25.6103 9.35085C25.8257 9.35085 26.036 9.24 26.1532 9.04097C26.3295 8.74116 26.2307 8.3557 25.9302 8.17871C25.8584 8.13588 24.4425 7.31771 22.992 7.4821C23.1161 6.97129 23.3913 6.50646 23.5318 6.32003C23.7428 6.04416 23.6898 5.64924 23.4133 5.43824C23.1381 5.22724 22.7419 5.27889 22.5309 5.55602C22.4912 5.60704 21.6649 6.70298 21.6668 7.96456C20.7503 8.52575 18.3828 10.227 16.7263 13.6458C16.6368 13.8297 16.5505 14.0275 16.4649 14.2259C14.7466 13.0512 15.0294 10.9614 15.0452 10.86C15.0987 10.5173 14.8651 10.1955 14.5218 10.1407C14.1791 10.0859 13.8554 10.3202 13.8006 10.6635C13.618 11.8066 13.88 14.1623 16.0019 15.4276C15.5333 16.8057 15.1781 18.4509 15.0685 20.3927C15.0559 20.4538 15.0534 20.513 15.0584 20.5735C14.9929 21.9346 15.0559 23.4443 15.2751 25.0977C14.4764 24.658 14.1111 24.015 14.0878 23.9715C13.9234 23.666 13.5443 23.5495 13.2382 23.7108C12.9308 23.8726 12.8118 24.2537 12.9743 24.5617C13.0076 24.6253 13.7616 26.0191 15.5043 26.5577C15.9585 29.0493 16.7678 31.8471 18.0766 34.9869C18.5081 34.9586 18.9282 34.8446 19.2998 34.6594C19.2979 34.6544 19.2985 34.6487 19.2967 34.643C17.923 31.3747 17.0941 28.4957 16.6532 25.9517C16.6507 25.9366 16.6494 25.9221 16.6463 25.9077C16.3187 23.9992 16.2123 22.2841 16.274 20.7479C17.1558 19.2445 19.7476 19.184 19.7741 19.1834C20.1218 19.1777 20.3995 18.8924 20.3945 18.5447C20.3894 18.1996 20.1092 17.9237 19.7653 17.9237C19.7627 17.9237 19.7602 17.9237 19.7577 17.9237C19.655 17.925 17.8593 17.964 16.4346 18.8571C16.6085 17.61 16.8976 16.5053 17.256 15.524C17.2931 15.4805 17.3252 15.4333 17.3492 15.3804Z" fill="#659C35"/>
</g>
<defs>
<clipPath id="clip0">
<rect width="35" height="35" fill="white"/>
</clipPath>
</defs>
</svg>
