<svg width="40" height="40" viewBox="0 0 40 40" fill="none" xmlns="http://www.w3.org/2000/svg">
<g clip-path="url(#clip0)">
<path d="M24.6813 13.3127C24.6813 13.3127 30.4602 2.0913 30.8691 2.15119C31.2781 2.21107 30.0494 7.44184 29.3279 9.09821C29.3279 9.09821 36.0679 -0.0265174 37.2198 0.255247C38.3717 0.537012 34.7758 6.35463 32.3209 9.28956C32.3209 9.28956 35.6046 7.76263 36.17 8.25159C36.4527 8.49608 28.4743 16.3929 28.4743 16.3929L24.6813 13.3127Z" fill="url(#paint0_linear)"/>
<path d="M11.0384 34.0122C10.6144 33.6455 10.3066 33.2023 10.0677 32.7219C9.12248 33.2666 8.08271 33.8898 7.74612 34.9275C7.71241 35.0552 7.78484 35.2147 7.91663 35.2052C8.51069 35.1514 9.09722 34.9442 9.62691 34.6444C9.29338 35.1806 8.23341 36.9582 8.13325 37.7997C8.11916 37.9511 8.24088 38.0497 8.39631 38.0206C9.52007 37.667 10.4738 36.7959 11.3451 35.8734C11.1846 36.4257 11.1755 36.9921 11.3239 37.5077C11.3767 37.6435 11.5241 37.7009 11.6835 37.6284C12.5991 37.1682 13.2032 36.0682 13.3391 35.0773C12.4604 34.9082 11.6646 34.5505 11.0384 34.0122Z" fill="#AD8C70"/>
<path d="M29.825 35.6302C31.9564 33.1233 32.255 29.6822 31.8628 26.395C31.3274 22.069 30.3488 18.0509 31.9376 13.639C32.0584 13.2794 28.1912 13.5739 26.9115 14.1965C27.5746 12.2293 26.441 8.93851 26.2911 9.14272C23.3267 11.223 20.8905 11.8471 16.8136 11.8166C13.2814 11.7932 9.88912 11.6738 6.98208 13.6067C1.72534 17.1098 1.75907 24.2471 6.47542 30.5331C8.78757 33.5845 11.8648 36.6199 15.3506 38.0789C20.4339 40.1884 26.3449 39.735 29.825 35.6302Z" fill="url(#paint1_linear)"/>
<path opacity="0.7" d="M25.4628 11.0074C25.4628 11.0074 23.0406 13.3563 14.3757 13.1605C9.32545 13.0395 6.02752 15.6559 4.82758 19.4058C3.90486 22.287 4.54147 25.2916 7.51258 28.2953C10.9429 31.7562 16.2356 31.6163 19.6327 28.6381C24.3915 24.3905 26.5389 16.3218 25.4628 11.0074Z" fill="#B64161"/>
<path opacity="0.2" d="M25.0618 16.4897C19.37 12.0109 9.66222 12.9399 6.51901 18.5815C3.76871 23.5179 6.91812 30.4652 11.4913 33.8362C16.1253 37.2565 24.0075 38.3611 28.0274 33.8484C32.2661 29.0942 30.1842 20.5227 25.0618 16.4897Z" fill="#C66373"/>
<path d="M29.2431 19.148C29.2431 19.148 29.5717 32.7269 18.5606 35.2362C18.5606 35.2362 27.0632 32.2534 29.2431 19.148Z" fill="#BE4F62"/>
<path d="M25.7872 22.0551C25.7872 22.0551 23.2883 28.0403 19.7384 30.7861C19.7384 30.7861 25.1852 28.5224 25.7872 22.0551Z" fill="#BE4F62"/>
<path d="M13.2542 18.183C13.2542 18.183 7.68667 20.8064 7.86634 26.8446C7.86634 26.8446 8.78412 22.6103 13.2542 18.183Z" fill="#CC6077"/>
<path d="M15.8197 19.4473C15.8197 19.4473 12.4614 21.7745 11.6116 25.5133C11.6096 25.535 15.1471 20.3446 15.8197 19.4473Z" fill="#CC6077"/>
<path d="M17.525 14.719C15.9451 14.1138 13.5778 14.7006 13.194 15.7775C12.9268 16.5381 13.6742 17.4149 14.885 17.7676C16.3296 18.1857 18.1772 17.7904 18.7437 16.8614C19.2311 16.0777 18.6215 15.1265 17.525 14.719Z" fill="#CD8095"/>
<path opacity="0.7" d="M29.8252 35.6301C31.4933 33.6474 32.0378 31.08 31.9962 28.4799C29.0522 32.9183 23.888 37.3028 16.1407 35.6871C12.0538 34.8266 7.65862 31.8867 5.29417 28.4595C4.83346 27.784 4.41801 27.0908 4.07149 26.3604C4.63879 27.7658 5.44604 29.1718 6.47562 30.533C8.78777 33.5845 11.865 36.6199 15.3508 38.0788C20.4341 40.1883 26.3451 39.735 29.8252 35.6301Z" fill="#72162F"/>
</g>
<defs>
<linearGradient id="paint0_linear" x1="24.0403" y1="17.3266" x2="36.7724" y2="1.05576" gradientUnits="userSpaceOnUse">
<stop stop-color="#669E3E"/>
<stop offset="1" stop-color="#9EC251"/>
</linearGradient>
<linearGradient id="paint1_linear" x1="27.3057" y1="-7.3453" x2="13.8892" y2="37.2917" gradientUnits="userSpaceOnUse">
<stop stop-color="#C64F69"/>
<stop offset="0.5954" stop-color="#962C47"/>
<stop offset="1" stop-color="#73122E"/>
</linearGradient>
<clipPath id="clip0">
<rect width="40" height="40" fill="white"/>
</clipPath>
</defs>
</svg>
