<svg width="40" height="40" viewBox="0 0 40 40" fill="none" xmlns="http://www.w3.org/2000/svg">
<g clip-path="url(#clip0)">
<path d="M7.03193 31.4892C3.51592 25.4556 6.9017 17.5337 11.0471 13.1713C16.1475 7.81045 25.8274 4.18593 32.6424 8.20112C40.7813 12.9976 43.2121 26.5408 34.5523 34.289C25.3499 42.5364 11.6331 39.4111 7.03193 31.4892Z" fill="#7C4F30"/>
<path d="M27.2166 35.3309C30.6241 33.79 33.9882 30.86 35.8764 27.2571L35.9632 27.1052C35.9632 27.1052 38.9366 25.6294 38.8932 24.9783C38.8498 24.3488 36.7662 25.0651 36.7662 25.0651C36.7662 25.0651 39.7831 21.1801 38.98 20.8111C38.5677 20.6158 37.8948 21.2235 37.3739 21.8312C37.8297 19.1182 37.6344 16.3185 36.5058 13.6706C36.3756 13.3451 36.2236 13.0412 36.05 12.7156C36.2019 11.4351 36.5058 8.54852 36.0066 8.48341C35.3772 8.4183 34.7695 9.82905 34.7695 9.82905C34.7695 9.82905 33.7277 6.6603 33.2936 6.76882C32.8596 6.87734 32.903 8.11445 32.903 8.11445C32.903 8.11445 30.5807 4.16437 29.9079 4.20778C29.5823 4.22948 30.1466 5.35807 30.2985 6.03089C25.9361 3.31792 21.0093 2.75363 16.2128 3.73029C15.1276 3.25281 12.9572 2.27614 12.6751 2.81874C12.3712 3.36133 13.9339 4.40311 14.3897 4.68526C14.368 4.68526 14.3463 4.70696 14.3246 4.70696C13.5432 4.44652 10.4613 3.51326 10.3094 3.94733C10.114 4.51163 11.5682 5.14104 12.3712 5.44489C12.3712 5.44489 12.3495 5.44489 12.3495 5.46659C6.79337 8.07104 3.58122 13.4536 2.69137 18.988C1.88833 19.4438 -0.282047 20.3554 0.0218051 21.0282C0.217139 21.484 1.82322 20.9848 2.47433 20.6809C2.47433 20.8762 0.130324 24.4574 0.716325 24.7178C1.1721 24.9348 2.36581 23.242 2.71307 22.6994C2.865 23.5024 3.32077 25.4774 3.62463 26.2805C5.99033 32.5312 11.9155 36.2425 18.687 36.7417C19.8156 37.2843 22.5503 38.5648 23.158 38.5431C23.9393 38.5431 22.1162 36.9804 22.1162 36.9804C22.1162 36.9804 26.1531 38.2392 26.1965 37.7618C26.2182 37.4579 25.2633 36.7634 24.547 36.2859C25.4586 36.0255 26.3701 35.7216 27.2166 35.3309Z" fill="#AC8768"/>
<path d="M7.16227 30.187C2.88663 24.8479 2.84322 16.9043 6.51115 11.5001C11.9805 3.42631 25.3066 1.53809 32.2301 8.91736C37.7645 14.8208 37.6343 24.9998 31.8394 31.0769C25.1113 38.1306 12.9355 37.371 7.16227 30.187Z" fill="#946B4C"/>
<path d="M7.81332 29.6663C3.71131 24.6093 3.73302 17.0347 7.20561 11.9343C12.4145 4.27292 25.1112 2.49321 31.6006 9.50352C36.7661 15.0814 36.5491 24.6744 31.0797 30.3825C24.7639 36.9588 13.3044 36.4162 7.81332 29.6663Z" fill="#EAE6E1"/>
<path d="M27.1514 13.7791C23.3966 9.76394 16.7119 10.4151 13.2393 14.2566C10.3744 17.4471 9.78836 22.7211 12.6533 26.3022C15.8437 30.3174 22.1378 30.6863 26.0879 27.344C30.0597 23.9799 30.7325 17.6207 27.1514 13.7791Z" fill="white"/>
<path d="M26.3702 13.0629C22.6154 9.04775 15.9307 9.69886 12.4581 13.5404C9.59318 16.7309 9.00718 22.0049 11.8721 25.586C15.0625 29.6012 21.3566 29.9702 25.3067 26.6278C29.2785 23.242 29.9296 16.8828 26.3702 13.0629Z" fill="url(#paint0_linear)"/>
<path opacity="0.2" d="M19.8157 18.836C21.8559 16.5788 25.0029 15.4285 28.0198 15.6672C27.6291 14.7123 27.0865 13.8224 26.3486 13.0411C22.5938 9.0259 15.9091 9.67701 12.4365 13.5186C9.57157 16.709 8.98557 21.983 11.8505 25.5642C13.3914 27.4958 15.6486 28.581 18.0143 28.8197C16.647 25.4773 17.4717 21.4621 19.8157 18.836Z" fill="#AD977F"/>
<path opacity="0.4" d="M17.3847 22.873C20.141 19.8345 24.8941 18.7927 28.6272 20.4856C28.9744 17.8595 28.2799 15.1031 26.3917 13.0629C22.637 9.04775 15.9522 9.69886 12.4796 13.5404C9.61472 16.7309 9.02872 22.0049 11.8936 25.586C12.7618 26.6712 13.847 27.4742 15.0407 28.0168C15.2794 26.1069 16.1041 24.2838 17.3847 22.873Z" fill="#AD977F"/>
<path d="M13.3479 14.9728C16.2779 11.6956 21.4867 10.5887 25.35 12.1296C21.4867 9.17792 15.6267 10.0244 12.458 13.5404C10.0055 16.2533 9.24585 20.4856 10.8302 23.8931C10.2225 20.7243 11.3294 17.23 13.3479 14.9728Z" fill="url(#paint1_linear)"/>
</g>
<defs>
<linearGradient id="paint0_linear" x1="30.299" y1="17.7699" x2="11.1944" y2="20.9978" gradientUnits="userSpaceOnUse">
<stop stop-color="#EAE6E1"/>
<stop offset="1" stop-color="#CCBFB0"/>
</linearGradient>
<linearGradient id="paint1_linear" x1="22.2432" y1="24.6292" x2="13.3705" y2="10.5174" gradientUnits="userSpaceOnUse">
<stop stop-color="#B2A292"/>
<stop offset="1" stop-color="#A6917E"/>
</linearGradient>
<clipPath id="clip0">
<rect width="40" height="40" fill="white"/>
</clipPath>
</defs>
</svg>
