<svg width="40" height="40" viewBox="0 0 40 40" fill="none" xmlns="http://www.w3.org/2000/svg">
<g clip-path="url(#clip0)">
<path d="M33.0641 12.7168C29.5329 7.56074 25.1567 6.45586 25.1567 6.45586L14.4113 6.41254C14.4113 6.41254 9.03857 8.34065 7.11046 13.8C4.96571 19.8877 5.83228 35.3559 7.97703 38.3672C10.1218 41.3785 30.3994 40.8369 32.8692 38.6922C35.3172 36.5257 36.3138 17.4396 33.0641 12.7168ZM29.9228 22.8123C27.8864 22.444 24.3335 13.1934 25.0917 11.6986C25.5033 10.8754 29.2296 13.2801 30.0528 15.1649C30.8544 17.0063 31.201 23.0506 29.9228 22.8123Z" fill="url(#paint0_linear)"/>
<path opacity="0.1" d="M25.1567 6.4342L22.9253 6.41254C28.7747 8.38398 30.9411 11.092 32.1109 13.3017C33.2158 15.4032 33.9091 22.444 33.2158 27.5568C32.2843 34.4243 24.0085 39.6237 16.751 39.0388C10.6201 38.5622 6.87219 32.3879 6.02728 29.2682C6.33058 33.4494 7.02383 37.0673 7.95539 38.3672C10.1001 41.3785 30.3778 40.8369 32.8475 38.6922C35.3172 36.5474 36.3138 17.4396 33.0642 12.7168C29.5112 7.56074 25.1567 6.4342 25.1567 6.4342Z" fill="#AC9D8C"/>
<path opacity="0.3" d="M14.6929 6.32585C16.101 7.95066 17.7692 9.05553 19.8489 9.0122C23.4885 8.94721 24.8317 6.19586 24.8317 6.19586L14.6929 6.32585Z" fill="#AC9D8C"/>
<path d="M14.3895 1.71155V6.36934C14.3895 6.36934 19.069 8.94738 25.135 6.41267V1.81987L14.3895 1.71155Z" fill="#71C7E0"/>
<path d="M25.1566 1.81976L24.0084 1.7981L22.7302 2.81631L22.7518 7.21414C23.5317 7.04082 24.3333 6.80252 25.1566 6.45589V1.81976Z" fill="#62B9E0"/>
<path d="M14.3895 1.71147C14.3895 1.71147 16.6426 0 19.8272 0C22.9902 0 25.1566 1.81979 25.1566 1.81979C25.1566 1.81979 23.5318 4.09453 19.5023 4.09453C16.231 4.09453 14.3895 1.71147 14.3895 1.71147Z" fill="#A0DEED"/>
<path opacity="0.5" d="M14.6929 2.0365C15.3211 2.68642 16.9893 4.07293 19.5023 4.07293C20.4555 4.07293 21.2571 3.94295 21.9504 3.74797C17.4226 4.15959 14.7362 2.07983 14.6929 2.0365Z" fill="white"/>
<path opacity="0.2" d="M29.923 22.8123C27.8865 22.444 24.3336 13.1934 25.0919 11.6986C25.0919 11.6986 19.7841 18.3495 21.8639 21.5558C23.0988 23.4623 29.923 22.8123 29.923 22.8123Z" fill="#AC9D8C"/>
<path opacity="0.3" d="M25.2869 14.2333C24.9836 13.0418 24.8753 12.1102 25.0702 11.6986C25.0702 11.6986 22.1022 15.4248 21.474 18.6311C21.474 18.6528 21.474 18.6528 21.474 18.6745C21.474 18.7395 21.4523 18.7828 21.4523 18.8478C21.4307 19.0211 21.409 19.1944 21.3873 19.3461C22.4705 17.2663 23.8787 15.4032 25.2869 14.2333Z" fill="#AC9D8C"/>
<path d="M12.1149 9.29389C11.7466 8.68729 8.71361 11.4603 8.02035 13.93C7.3271 16.3997 6.69884 23.9172 7.24044 24.2205C7.78205 24.5238 8.32365 15.2515 8.7786 13.93C9.23355 12.6085 12.3315 9.68384 12.1149 9.29389Z" fill="white"/>
<path opacity="0.1" d="M6.72028 34.6844C7.04524 36.3742 7.47852 37.674 7.95513 38.3456C10.0999 41.3569 30.3776 40.8153 32.8473 38.6706C33.5622 38.0423 34.1471 36.0059 34.5587 33.2979C27.1063 37.8907 14.7144 40.2737 6.72028 34.6844Z" fill="#AC9D8C"/>
</g>
<defs>
<linearGradient id="paint0_linear" x1="43.326" y1="37.4112" x2="-3.80114" y2="10.891" gradientUnits="userSpaceOnUse">
<stop stop-color="#CEC7BB"/>
<stop offset="0.2929" stop-color="#E0DBD0"/>
<stop offset="0.735" stop-color="#F7F4E9"/>
<stop offset="1" stop-color="#FFFDF3"/>
</linearGradient>
<clipPath id="clip0">
<rect width="40" height="40" fill="white"/>
</clipPath>
</defs>
</svg>
