<svg width="40" height="40" viewBox="0 0 40 40" fill="none" xmlns="http://www.w3.org/2000/svg">
<g clip-path="url(#clip0)">
<path d="M23.1407 9.23779L25.0749 11.1388L22.8912 18.654C22.2017 21.0276 19.9895 22.7259 17.523 22.5625C16.117 22.4689 14.7366 21.8913 13.6532 20.8262C12.5698 19.7611 11.9678 18.391 11.8498 16.9869C11.643 14.5239 13.3027 12.2826 15.6641 11.5517L23.1407 9.23779Z" fill="#EA9D2D"/>
<path d="M31.018 5.57434C30.6227 5.1859 30.0844 5.03059 29.5759 5.10723L29.0038 5.19059L29.0926 4.63129C29.1604 4.12074 28.9963 3.5859 28.6004 3.19739C27.9326 2.54114 26.8594 2.55059 26.2038 3.2184C25.5475 3.88621 25.557 4.95942 26.2248 5.61504C26.3075 5.69637 26.3963 5.76762 26.4906 5.82864L23.14 9.23746L25.0742 11.1385L28.4248 7.72965C28.4871 7.82254 28.5597 7.90996 28.6431 7.99137C29.3109 8.64762 30.3841 8.63817 31.0397 7.97035C31.6953 7.30317 31.6858 6.22996 31.018 5.57434Z" fill="#DBDBDB"/>
<path d="M38.3055 40H1.69529L0.339355 36.6102H39.6614L38.3055 40Z" fill="#8ACED8"/>
<path d="M23.39 36.6101H10.5086C6.38995 36.6101 3.05096 33.2711 3.05096 29.1524C3.05096 20.9152 9.72893 14.2372 17.9662 14.2372H28.8136C33.3065 14.2372 36.9492 17.8799 36.9492 22.3728V23.0508C36.9493 30.5396 30.8789 36.6101 23.39 36.6101Z" fill="#EA9D2D"/>
<path d="M26.7808 14.9151H18.6452C10.4079 14.9151 3.72998 21.5931 3.72998 29.8303C3.72998 31.7171 4.43639 33.4351 5.5917 34.7483C6.9049 35.9035 8.62287 36.61 10.5097 36.61H20.6792C28.168 36.61 34.2385 30.5395 34.2385 23.0507V22.3728C34.2385 20.2988 33.4561 18.4121 32.1782 16.9755C30.7415 15.6975 28.8547 14.9151 26.7808 14.9151Z" fill="#FBB540"/>
<path d="M31.2751 10.5938L33.2093 12.4948L31.0255 20.01C30.3361 22.3836 28.1238 24.0819 25.6574 23.9185C24.2513 23.8249 22.871 23.2473 21.7875 22.1822C20.7042 21.1171 20.1022 19.747 19.9842 18.3429C19.7774 15.8799 21.4371 13.6385 23.7984 12.9077L31.2751 10.5938Z" fill="#F7BA61"/>
<path d="M25.6586 23.9188C28.125 24.0828 30.3373 22.3838 31.0267 20.0103L32.7508 14.0767L31.2762 12.6279L23.7996 14.9418C21.9013 15.5289 20.4592 17.093 20.0728 18.9628C20.2951 20.1452 20.8653 21.2747 21.7887 22.1825C22.8722 23.2475 24.2525 23.8252 25.6586 23.9188Z" fill="#FBB540"/>
<path d="M36.5599 9.0862C36.6222 9.17909 36.6948 9.26651 36.7782 9.34792C37.446 10.0042 38.5192 9.99471 39.1748 9.3269C39.8304 8.65909 39.8216 7.58588 39.1538 6.93026C38.7586 6.54182 38.2202 6.3865 37.7118 6.46314L37.2433 6.52549L37.2284 5.98783C37.2962 5.47728 37.1322 4.94244 36.7362 4.55392C36.0684 3.89767 34.9952 3.90712 34.3396 4.57494C33.6833 5.24275 33.6928 6.31596 34.3606 6.97158C34.4433 7.05291 34.5321 7.12416 34.6264 7.18518L34.6026 7.20955L31.2758 10.5946L33.21 12.4957L36.5368 9.11057L36.5599 9.0862Z" fill="#EAEAE8"/>
<path d="M9.15281 22.373H7.79688V23.7289H9.15281V22.373Z" fill="#EA9D2D"/>
<path d="M14.5767 22.373H13.2208V23.7289H14.5767V22.373Z" fill="#EA9D2D"/>
<path d="M11.8644 19.6612H10.5085V21.0171H11.8644V19.6612Z" fill="#EA9D2D"/>
<path d="M28.1352 28.4748H26.7792V29.8307H28.1352V28.4748Z" fill="#EA9D2D"/>
<path d="M22.7129 28.4748H21.357V29.8307H22.7129V28.4748Z" fill="#EA9D2D"/>
<path d="M25.4228 31.1866H24.0669V32.5425H25.4228V31.1866Z" fill="#EA9D2D"/>
<path d="M13.8987 8.81361C13.5245 8.81361 13.2208 8.50986 13.2208 8.13564C13.2208 7.21564 13.7394 6.7397 14.1184 6.39259C14.4445 6.09361 14.5767 5.96001 14.5767 5.64884C14.5767 5.33767 14.4445 5.20408 14.1184 4.90447C13.7394 4.55736 13.2208 4.08142 13.2208 3.16142C13.2208 2.24275 13.7401 1.76681 14.119 1.4204C14.4444 1.12142 14.5767 0.988529 14.5767 0.67806C14.5767 0.303842 14.8805 9.15527e-05 15.2547 9.15527e-05C15.6289 9.15527e-05 15.9326 0.303842 15.9326 0.67806C15.9326 1.59736 15.4133 2.07267 15.0344 2.41978C14.709 2.71806 14.5767 2.85165 14.5767 3.1615C14.5767 3.47267 14.7089 3.60626 15.035 3.90587C15.414 4.25228 15.9326 4.72892 15.9326 5.64892C15.9326 6.56822 15.414 7.04486 15.035 7.39197C14.7089 7.69025 14.5767 7.82455 14.5767 8.13572C14.5767 8.50986 14.273 8.81361 13.8987 8.81361Z" fill="#F7BA61"/>
<path d="M3.05089 8.81361C2.67667 8.81361 2.37292 8.50986 2.37292 8.13564C2.37292 7.21564 2.8916 6.7397 3.27058 6.39259C3.59667 6.09361 3.72886 5.96001 3.72886 5.64884C3.72886 5.33767 3.59667 5.20345 3.27058 4.90447C2.8916 4.55736 2.37292 4.08142 2.37292 3.16142C2.37292 2.24275 2.89222 1.76681 3.27121 1.4204C3.5966 1.12142 3.72886 0.988529 3.72886 0.67806C3.72886 0.303842 4.03261 9.15527e-05 4.40683 9.15527e-05C4.78105 9.15527e-05 5.0848 0.303842 5.0848 0.67806C5.0848 1.59736 4.5655 2.07267 4.18652 2.41978C3.86113 2.71806 3.72886 2.85165 3.72886 3.1615C3.72886 3.47267 3.86105 3.60626 4.18714 3.90525C4.56613 4.25236 5.0848 4.729 5.0848 5.649C5.0848 6.5683 4.56613 7.04494 4.18714 7.39205C3.86105 7.69033 3.72886 7.82462 3.72886 8.1358C3.72886 8.50986 3.42511 8.81361 3.05089 8.81361Z" fill="#F7BA61"/>
<path d="M8.47484 10.1695C8.10063 10.1695 7.79688 9.86578 7.79688 9.49157C7.79688 8.57157 8.31555 8.09563 8.69453 7.74852C9.02063 7.44953 9.15281 7.31594 9.15281 7.00477C9.15281 6.6936 9.02063 6.56 8.69453 6.26039C8.31555 5.91328 7.79688 5.43735 7.79688 4.51735C7.79688 3.59867 8.31617 3.12274 8.69516 2.77633C9.02055 2.47735 9.15281 2.34446 9.15281 2.03399C9.15281 1.65977 9.45656 1.35602 9.83078 1.35602C10.205 1.35602 10.5088 1.65977 10.5088 2.03399C10.5088 2.95328 9.98945 3.4286 9.61047 3.77571C9.28508 4.07399 9.15281 4.20758 9.15281 4.51742C9.15281 4.8286 9.285 4.96219 9.61109 5.2618C9.99008 5.60821 10.5088 6.08485 10.5088 7.00485C10.5088 7.92414 9.99008 8.40078 9.61109 8.74789C9.285 9.04618 9.15281 9.18047 9.15281 9.49164C9.15281 9.86586 8.84906 10.1695 8.47484 10.1695Z" fill="#F7BA61"/>
<path d="M1.01764 38.3052L1.69561 40.0001H38.3058L38.9837 38.3052H1.01764Z" fill="#6FBBC6"/>
<path d="M32.394 16.9172C32.2977 16.8319 31.9777 16.8122 31.8773 16.7308C31.074 18.1152 27.9247 23.5505 28.0265 23.4895C28.1247 23.4312 32.3586 20.3973 33.6895 19.4434C33.7818 18.5484 33.0347 17.6379 32.394 16.9172Z" fill="#EA9D2D"/>
<path d="M25.6584 23.9188C28.1248 24.0828 30.3371 22.3838 31.0265 20.0103L31.9615 16.7913L32.7499 14.0767L31.2753 12.6279L23.7986 14.9418C21.9004 15.5289 20.4583 17.093 20.0718 18.9628C20.2942 20.1452 20.8644 21.2747 21.7878 22.1825C22.872 23.2475 24.2523 23.8252 25.6584 23.9188Z" fill="#FBB540"/>
</g>
<defs>
<clipPath id="clip0">
<rect width="40" height="40" fill="white"/>
</clipPath>
</defs>
</svg>
