<svg width="40" height="40" viewBox="0 0 40 40" fill="none" xmlns="http://www.w3.org/2000/svg">
<g clip-path="url(#clip0)">
<path d="M13.5527 11.6833C13.2981 11.1411 9.97081 5.89614 10.6816 4.38172C11.3924 2.8673 16.5357 8.57773 16.5357 8.57773C16.5357 8.57773 15.0584 1.22992 16.3894 0.364188C17.7068 -0.481731 19.2399 5.55756 19.2399 5.55756C19.2399 5.55756 20.9555 2.33667 22.5702 2.45794C24.6023 2.5897 23.1175 11.6371 23.1175 11.6371C23.1175 11.6371 17.0926 19.3305 13.5527 11.6833Z" fill="url(#paint0_linear)"/>
<path d="M15.825 14.5584C15.825 14.5584 17.7194 13.1745 16.1179 11.7006C15.3087 10.9651 12.8785 9.50368 12.1625 9.18405C12.8195 10.4146 13.4429 11.4609 13.5527 11.6833C14.0359 12.7204 14.5541 13.4743 15.1195 14.0118C15.5446 14.3498 15.825 14.5584 15.825 14.5584Z" fill="#3C702C"/>
<path d="M16.8925 17.376C16.8925 17.376 8.67654 11.0482 8.98658 9.13944C9.29967 7.2474 16.1946 12.6906 16.1946 12.6906C16.1946 12.6906 14.6791 5.03814 15.8899 4.36744C17.4342 3.5321 19.3761 10.8645 19.3761 10.8645C19.3761 10.8645 19.8326 5.48407 21.2842 5.37537C22.7359 5.26667 22.4146 9.77422 22.4146 9.77422C22.4146 9.77422 25.4994 5.99226 26.4655 6.73374C27.4148 7.47828 25.2494 13.5509 22.9521 17.1894C20.6548 20.8279 16.8925 17.376 16.8925 17.376Z" fill="url(#paint1_linear)"/>
<path d="M23.4583 10.0862C21.7262 9.79592 19.6894 13.4389 19.6894 13.4389C18.3998 11.1118 16.6629 10.1299 15.8586 10.2764C15.9274 10.7486 15.8268 10.5765 15.8833 10.9817L18.5777 18.454C19.8606 19.0339 21.6307 19.248 22.9354 17.1926C23.6601 16.0392 24.3724 14.6283 24.9843 13.2358C24.8269 12.0873 24.5475 10.2686 23.4583 10.0862Z" fill="#3A6C26"/>
<path d="M9.25539 15.0803C9.82613 13.7473 15.4372 15.7544 15.4372 15.7544C15.4372 15.7544 14.1041 11.2886 15.2752 10.4001C16.69 9.32866 19.6487 14.8312 19.6487 14.8312C19.6487 14.8312 21.3717 10.9858 22.7715 10.7827C24.3587 10.5627 23.1419 15.4758 23.1419 15.4758C23.1419 15.4758 28.0626 12.7442 28.8886 13.667C29.7146 14.5898 24.9681 19.0381 20.336 19.7436C16.3574 20.33 8.6679 16.4165 9.25539 15.0803Z" fill="url(#paint2_linear)"/>
<path d="M11.9887 21.2472C11.9887 21.2472 13.2467 16.6556 15.2832 16.146C16.4575 15.8455 17.3644 17.1171 17.3644 17.1171C17.3644 17.1171 18.0126 15.164 19.3239 14.6654C21.0724 14.0006 22.3224 16.3003 22.3224 16.3003C22.3224 16.3003 22.6617 15.2171 23.609 14.7156C24.5426 14.2339 28.2328 16.4352 29.1374 19.975C29.7949 22.5385 10.5356 29.8041 11.9887 21.2472Z" fill="url(#paint3_linear)"/>
<path opacity="0.2" d="M29.1373 19.9749C28.849 18.8675 28.2881 17.8791 27.6236 17.0827C26.7283 18.0595 26.5095 19.5188 26.5095 19.5188C26.5095 19.5188 24.519 16.5751 22.9517 17.1895C21.3845 17.804 20.6725 20.1669 20.6725 20.1669C20.6725 20.1669 19.098 17.8917 17.1256 18.3723C15.1363 18.8559 14.5206 22.0322 14.5206 22.0322C14.0874 20.605 13.0879 20.0601 12.4633 19.8623C12.1559 20.6453 11.9886 21.2471 11.9886 21.2471C10.5355 29.804 29.7948 22.5383 29.1373 19.9749Z" fill="#713E2A"/>
<path d="M10.5299 26.0658C10.5299 26.0658 10.6696 20.847 12.2339 20.4062C13.6169 20.0157 14.6542 23.9987 14.6542 23.9987C14.6542 23.9987 15.1902 19.4347 16.9007 18.8461C19.1153 18.079 20.9677 22.4502 20.9677 22.4502C20.9677 22.4502 21.2266 18.2656 22.9813 17.8247C25.199 17.2649 26.5914 21.5814 26.5914 21.5814C26.5914 21.5814 27.0606 17.7912 28.0065 17.3765C29.0497 16.9268 31.3453 20.7844 31.6752 23.1652C32.4068 28.4157 27.1698 32.8322 22.8636 33.2359C18.5742 33.6367 10.0967 32.6192 10.5299 26.0658Z" fill="url(#paint4_linear)"/>
<path opacity="0.2" d="M22.8804 33.233C27.1866 32.8292 32.4236 28.4128 31.692 23.1623C31.5912 22.4189 31.2862 21.5051 30.8867 20.643C30.4423 21.6242 30.5557 23.3866 30.5557 23.3866C30.5557 23.3866 28.6342 21.6767 27.1506 22.0855C25.9321 22.4287 25.3801 25.0048 25.3801 25.0048C25.3801 25.0048 23.5375 22.3976 21.3289 23.0077C19.1204 23.6178 18.5639 26.4544 18.5639 26.4544C18.5639 26.4544 16.5721 24.1687 14.9272 24.6415C13.2822 25.1144 12.8002 27.5046 12.8002 27.5046C11.9405 26.0167 11.072 25.4305 10.5616 25.1946C10.5191 25.7217 10.5101 26.0522 10.5101 26.0522C10.0967 32.6193 18.5742 33.6367 22.8804 33.233Z" fill="#713E2A"/>
<path d="M11.6294 33.2402C10.6796 31.1628 9.76716 27.1051 9.98917 26.0433C10.1458 25.2877 12.1219 26.3472 12.9399 30.4567C12.9399 30.4567 12.8254 25.6477 15.0675 25.0315C16.9302 24.5189 18.7355 29.1064 18.7355 29.1064C18.7355 29.1064 19.0322 24.084 21.6125 23.6139C23.8912 23.1987 25.5212 27.4892 25.5212 27.4892C25.5212 27.4892 25.6948 23.2163 27.5743 22.7007C29.2559 22.2385 31.1933 25.746 31.1933 25.746C31.1933 25.746 30.7332 21.4154 31.2541 21.2339C31.9395 21.0052 33.2173 28.4932 32.5008 31.1166C31.9836 33.0285 31.4757 35.5619 30.0242 36.0515C28.5635 36.4907 15.1572 41.0108 11.6294 33.2402Z" fill="url(#paint5_linear)"/>
<path opacity="0.2" d="M29.7085 30.8982C29.7085 30.8982 27.1679 27.5006 25.1879 28.225C23.2079 28.9493 22.7247 32.188 22.7247 32.188C22.7247 32.188 20.6078 29.4057 18.8135 29.8192C16.6674 30.2968 15.7473 34.2729 15.7473 34.2729C14.8127 32.2793 12.0491 31.3633 10.8517 31.0621C11.0851 31.8678 11.3626 32.6309 11.6294 33.2401C15.1572 41.0107 28.5636 36.4906 30.0181 36.0178C31.4727 35.5451 31.9775 32.9949 32.4947 31.083C32.7761 30.0623 32.7526 28.3181 32.5722 26.5679C30.4141 27.7401 29.7085 30.8982 29.7085 30.8982Z" fill="#713E2A"/>
<path d="M29.9699 33.7588C29.9699 33.7588 27.5169 28.3719 25.3068 28.8784C23.08 29.388 23.0166 35.2162 23.0166 35.2162C23.0166 35.2162 20.6231 29.8703 18.6658 30.4346C16.7056 30.9822 16.1576 36.2409 16.1576 36.2409C15.226 33.8831 12.113 31.5247 10.4176 31.6259C11.0232 33.9045 13.1617 37.3753 14.4569 38.403C17.8487 41.0569 28.563 39.4336 31.4498 35.705C32.3313 34.5577 33.6993 30.7596 32.9789 26.8054C30.4354 28.0478 29.9699 33.7588 29.9699 33.7588Z" fill="url(#paint6_linear)"/>
<path d="M17.3508 20.2701C17.0157 20.3312 17.4833 24.2276 18.0027 24.1329C18.3378 24.0719 17.9038 20.1694 17.3508 20.2701Z" fill="#FFD668"/>
<path d="M15.1457 26.8867C14.5837 26.9372 15.1867 30.532 15.7061 30.4373C16.2088 30.3457 15.7048 26.8195 15.1457 26.8867Z" fill="#FFD668"/>
<path d="M18.9378 32.497C18.6423 32.5855 18.9788 36.1423 19.4982 36.0476C20.0176 35.953 19.3003 32.3964 18.9378 32.497Z" fill="#FFD668"/>
<path d="M21.5811 25.2468C21.2079 25.3841 21.8385 29.32 22.3579 29.2254C22.8773 29.1308 22.1157 25.0456 21.5811 25.2468Z" fill="#FFD668"/>
<path d="M28.009 24.2315C27.5688 24.3809 28.5694 27.7821 29.0888 27.6874C29.6082 27.5928 28.5467 24.047 28.009 24.2315Z" fill="#FFD668"/>
<path d="M23.3656 19.1743C22.8035 19.2247 23.926 22.7249 24.4454 22.6302C24.9648 22.5356 23.9277 19.1238 23.3656 19.1743Z" fill="#FFD668"/>
<path d="M19.8029 15.7726C19.2561 15.9068 19.7843 18.8055 20.2869 18.7139C20.8063 18.6192 20.1685 15.6887 19.8029 15.7726Z" fill="#FFD668"/>
<path d="M25.7295 30.9134C25.2817 31.1162 26.1833 34.6392 26.7027 34.5446C27.2084 34.4698 26.1635 30.7305 25.7295 30.9134Z" fill="#FFD668"/>
</g>
<defs>
<linearGradient id="paint0_linear" x1="16.2674" y1="1.45673" x2="18.405" y2="9.94154" gradientUnits="userSpaceOnUse">
<stop stop-color="#6FA346"/>
<stop offset="1" stop-color="#4C833A"/>
</linearGradient>
<linearGradient id="paint1_linear" x1="17.2402" y1="5.27032" x2="19.2562" y2="15.5648" gradientUnits="userSpaceOnUse">
<stop stop-color="#6FA346"/>
<stop offset="1" stop-color="#4C833A"/>
</linearGradient>
<linearGradient id="paint2_linear" x1="13.6961" y1="11.6666" x2="25.3406" y2="18.503" gradientUnits="userSpaceOnUse">
<stop stop-color="#6FA346"/>
<stop offset="1" stop-color="#4C833A"/>
</linearGradient>
<linearGradient id="paint3_linear" x1="19.0957" y1="14.7465" x2="21.0347" y2="23.6128" gradientUnits="userSpaceOnUse">
<stop stop-color="#FFC400"/>
<stop offset="1" stop-color="#C0550D"/>
</linearGradient>
<linearGradient id="paint4_linear" x1="19.7683" y1="18.7109" x2="22.198" y2="30.399" gradientUnits="userSpaceOnUse">
<stop stop-color="#FFC400"/>
<stop offset="1" stop-color="#C0550D"/>
</linearGradient>
<linearGradient id="paint5_linear" x1="20.7057" y1="23.8499" x2="23.1993" y2="35.4092" gradientUnits="userSpaceOnUse">
<stop stop-color="#FFC400"/>
<stop offset="1" stop-color="#C0550D"/>
</linearGradient>
<linearGradient id="paint6_linear" x1="21.4941" y1="28.05" x2="23.6459" y2="39.8601" gradientUnits="userSpaceOnUse">
<stop stop-color="#FFC400"/>
<stop offset="1" stop-color="#C0550D"/>
</linearGradient>
<clipPath id="clip0">
<rect width="40" height="40" fill="white"/>
</clipPath>
</defs>
</svg>
