<svg width="24" height="24" viewBox="0 0 24 24" fill="none" xmlns="http://www.w3.org/2000/svg">
<g clip-path="url(#clip0)">
<path d="M11.6793 0.740205L1.52941 5.64019C1.40213 5.70164 1.32129 5.83047 1.32129 5.97178V18.0289C1.32129 18.1702 1.40217 18.299 1.52941 18.3604L11.6793 23.2604C11.8816 23.3581 12.1174 23.3581 12.3197 23.2604L22.4696 18.3604C22.5969 18.299 22.6777 18.1702 22.6777 18.0289V5.97178C22.6777 5.83047 22.5968 5.70164 22.4696 5.64019L12.3197 0.740205C12.1174 0.642588 11.8816 0.642588 11.6793 0.740205Z" fill="#FFE17D"/>
<path d="M1.38252 5.77051C1.34382 5.82943 1.32129 5.8988 1.32129 5.97207V18.0291C1.32129 18.1705 1.40217 18.2993 1.52941 18.3607L11.6793 23.2607C11.7805 23.3095 11.89 23.3339 11.9995 23.3339V10.896L1.38252 5.77051Z" fill="#FFC350"/>
<path d="M22.616 5.77051C22.6547 5.82943 22.6772 5.8988 22.6772 5.97207V18.0291C22.6772 18.1705 22.5964 18.2993 22.4691 18.3607L12.3192 23.2607C12.2181 23.3095 12.1085 23.3339 11.999 23.3339V10.896L22.616 5.77051Z" fill="#FFD164"/>
<path d="M4.35879 17.3862C4.30522 17.3862 4.25055 17.3743 4.19915 17.3495L2.6321 16.593C2.44873 16.5045 2.37214 16.2845 2.46059 16.1015C2.54869 15.9184 2.76947 15.8422 2.95213 15.9299L4.51918 16.6865C4.70255 16.775 4.77914 16.9951 4.69069 17.1781C4.62742 17.3096 4.49581 17.3862 4.35879 17.3862Z" fill="#FFE17D"/>
<path d="M5.80086 16.4474C5.74729 16.4474 5.69262 16.4356 5.64122 16.4108L2.63399 14.9591C2.45097 14.8707 2.37403 14.6506 2.46248 14.4676C2.55058 14.2849 2.77172 14.2084 2.95402 14.2961L5.96121 15.7477C6.14422 15.8362 6.22117 16.0563 6.13271 16.2393C6.06949 16.3708 5.93788 16.4474 5.80086 16.4474Z" fill="#FFF6D8"/>
<path d="M19.0185 7.50155L8.36421 2.35449L5.55566 3.71582L16.2339 8.87085L19.0185 7.50155Z" fill="#FF8087"/>
<path d="M16.2334 8.87023V12.8638C16.2334 12.9995 16.3753 13.0886 16.4976 13.0296L18.8099 11.9133C18.9372 11.8518 19.018 11.723 19.018 11.5817V7.50098L16.2334 8.87023Z" fill="#E6646E"/>
</g>
<defs>
<clipPath id="clip0">
<rect width="22.6667" height="22.6667" fill="white" transform="translate(0.666016 0.666992)"/>
</clipPath>
</defs>
</svg>
