<svg width="131" height="30" viewBox="0 0 131 30" fill="none" xmlns="http://www.w3.org/2000/svg">
<path d="M37.62 9.82V24H43.1C45.76 24 47.48 22.34 47.48 20.04C47.48 18.28 46.36 17.02 44.98 16.68C46.16 16.28 47.04 15.1 47.04 13.64C47.04 11.44 45.48 9.82 42.72 9.82H37.62ZM40.34 15.68V12.14H42.28C43.62 12.14 44.32 12.82 44.32 13.9C44.32 14.98 43.56 15.68 42.3 15.68H40.34ZM40.34 21.7V17.96H42.62C44 17.96 44.72 18.74 44.72 19.86C44.72 21 43.92 21.7 42.58 21.7H40.34ZM54.1447 21.88C52.8447 21.88 51.6447 20.92 51.6447 19.08C51.6447 17.22 52.8447 16.28 54.1447 16.28C55.4447 16.28 56.6447 17.22 56.6447 19.08C56.6447 20.94 55.4447 21.88 54.1447 21.88ZM54.1447 13.86C51.2047 13.86 48.9847 16.04 48.9847 19.08C48.9847 22.1 51.2047 24.3 54.1447 24.3C57.0847 24.3 59.3047 22.1 59.3047 19.08C59.3047 16.04 57.0847 13.86 54.1447 13.86ZM67.4044 14.12C67.2044 14.1 67.0044 14.08 66.7844 14.08C65.9444 14.08 64.5844 14.32 63.9844 15.62V14.16H61.4044V24H64.0644V19.5C64.0644 17.38 65.2444 16.72 66.6044 16.72C66.8444 16.72 67.1044 16.74 67.4044 16.8V14.12ZM73.5978 21.88C72.2978 21.88 71.0978 20.92 71.0978 19.08C71.0978 17.22 72.2978 16.28 73.5978 16.28C74.8978 16.28 76.0978 17.22 76.0978 19.08C76.0978 20.94 74.8978 21.88 73.5978 21.88ZM73.5978 13.86C70.6578 13.86 68.4378 16.04 68.4378 19.08C68.4378 22.1 70.6578 24.3 73.5978 24.3C76.5378 24.3 78.7578 22.1 78.7578 19.08C78.7578 16.04 76.5378 13.86 73.5978 13.86ZM81.0575 9.82V24H86.5375C89.1975 24 90.9175 22.34 90.9175 20.04C90.9175 18.28 89.7975 17.02 88.4175 16.68C89.5975 16.28 90.4775 15.1 90.4775 13.64C90.4775 11.44 88.9175 9.82 86.1575 9.82H81.0575ZM83.7775 15.68V12.14H85.7175C87.0575 12.14 87.7575 12.82 87.7575 13.9C87.7575 14.98 86.9975 15.68 85.7375 15.68H83.7775ZM83.7775 21.7V17.96H86.0575C87.4375 17.96 88.1575 18.74 88.1575 19.86C88.1575 21 87.3575 21.7 86.0175 21.7H83.7775ZM92.445 21.32C92.445 22.86 93.725 24.28 95.825 24.28C97.285 24.28 98.225 23.6 98.725 22.82C98.725 23.2 98.765 23.74 98.825 24H101.265C101.205 23.66 101.145 22.96 101.145 22.44V17.6C101.145 15.62 99.985 13.86 96.865 13.86C94.225 13.86 92.805 15.56 92.645 17.1L95.005 17.6C95.085 16.74 95.725 16 96.885 16C98.005 16 98.545 16.58 98.545 17.28C98.545 17.62 98.365 17.9 97.805 17.98L95.385 18.34C93.745 18.58 92.445 19.56 92.445 21.32ZM96.385 22.3C95.525 22.3 95.105 21.74 95.105 21.16C95.105 20.4 95.645 20.02 96.325 19.92L98.545 19.58V20.02C98.545 21.76 97.505 22.3 96.385 22.3ZM111.286 24V21.68H106.406L111.206 16.38V14.16H103.266V16.46H107.806L103.146 21.66V24H111.286ZM112.972 21.32C112.972 22.86 114.252 24.28 116.352 24.28C117.812 24.28 118.752 23.6 119.252 22.82C119.252 23.2 119.292 23.74 119.352 24H121.792C121.732 23.66 121.672 22.96 121.672 22.44V17.6C121.672 15.62 120.512 13.86 117.392 13.86C114.752 13.86 113.332 15.56 113.172 17.1L115.532 17.6C115.612 16.74 116.252 16 117.412 16C118.532 16 119.072 16.58 119.072 17.28C119.072 17.62 118.892 17.9 118.332 17.98L115.912 18.34C114.272 18.58 112.972 19.56 112.972 21.32ZM116.912 22.3C116.052 22.3 115.632 21.74 115.632 21.16C115.632 20.4 116.172 20.02 116.852 19.92L119.072 19.58V20.02C119.072 21.76 118.032 22.3 116.912 22.3ZM130.354 14.12C130.154 14.1 129.954 14.08 129.734 14.08C128.894 14.08 127.534 14.32 126.934 15.62V14.16H124.354V24H127.014V19.5C127.014 17.38 128.194 16.72 129.554 16.72C129.794 16.72 130.054 16.74 130.354 16.8V14.12Z" fill="black"/>
<path fill-rule="evenodd" clip-rule="evenodd" d="M14.9999 24.4202C12.6994 24.4202 10.6073 23.1216 9.63967 21.1061C9.43533 20.6807 9.62614 20.1726 10.0646 19.9743C10.5031 19.776 11.0268 19.9612 11.2311 20.3866C11.9118 21.8046 13.3814 22.7159 14.9999 22.7159C16.6198 22.7159 18.0894 21.8046 18.7688 20.3866C18.9731 19.9599 19.4955 19.776 19.9353 19.9743C20.3738 20.1726 20.5646 20.6794 20.3602 21.1061C19.3926 23.1216 17.3005 24.4202 14.9999 24.4202ZM12.3083 3.78081C11.6168 4.45177 11.1878 5.37613 11.1878 6.3911V7.48484H14.9999H18.8121V6.3911C18.8121 5.37482 18.3831 4.45045 17.6916 3.78081C16.1989 2.33255 13.8023 2.33255 12.3083 3.78081ZM5.62183 29H14.9999H24.3781C25.8179 29 27.0738 27.8537 26.9966 26.4593L26.0872 10.0255C26.0101 8.63111 24.9085 7.48484 23.4687 7.48484H20.5673V6.3911C20.5673 4.90476 19.9407 3.55366 18.9325 2.57546C16.766 0.474628 13.2339 0.474628 11.0674 2.57677C10.0592 3.55497 9.43262 4.90607 9.43262 6.39241V7.48616H6.53122C5.09135 7.48616 3.98979 8.63242 3.91266 10.0269L3.00326 26.4606C2.92748 27.855 4.18196 29 5.62183 29Z" fill="#02B290"/>
</svg>
