<svg width="55" height="55" viewBox="0 0 55 55" fill="none" xmlns="http://www.w3.org/2000/svg">
<path d="M48.8415 50.2957L48.8423 50.3059L48.8451 50.3158C48.8812 50.4413 48.9001 50.5745 48.9001 50.7108C48.9001 51.5117 48.2513 52.1604 47.452 52.1604H47.452H47.4519H47.4518H47.4518H47.4517H47.4516H47.4516H47.4515H47.4515H47.4514H47.4513H47.4513H47.4512H47.4511H47.4511H47.451H47.4509H47.4509H47.4508H47.4508H47.4507H47.4506H47.4506H47.4505H47.4504H47.4504H47.4503H47.4502H47.4502H47.4501H47.4501H47.45H47.4499H47.4499H47.4498H47.4497H47.4497H47.4496H47.4496H47.4495H47.4494H47.4494H47.4493H47.4492H47.4492H47.4491H47.449H47.449H47.4489H47.4489H47.4488H47.4487H47.4487H47.4486H47.4485H47.4485H47.4484H47.4483H47.4483H47.4482H47.4482H47.4481H47.448H47.448H47.4479H47.4478H47.4478H47.4477H47.4477H47.4476H47.4475H47.4475H47.4474H47.4473H47.4473H47.4472H47.4471H47.4471H47.447H47.447H47.4469H47.4468H47.4468H47.4467H47.4466H47.4466H47.4465H47.4464H47.4464H47.4463H47.4463H47.4462H47.4461H47.4461H47.446H47.4459H47.4459H47.4458H47.4458H47.4457H47.4456H47.4456H47.4455H47.4454H47.4454H47.4453H47.4452H47.4452H47.4451H47.4451H47.445H47.4449H47.4449H47.4448H47.4447H47.4447H47.4446H47.4446H47.4445H47.4444H47.4444H47.4443H47.4442H47.4442H47.4441H47.444H47.444H47.4439H47.4439H47.4438H47.4437H47.4437H47.4436H47.4435H47.4435H47.4434H47.4434H47.4433H47.4432H47.4432H47.4431H47.443H47.443H47.4429H47.4429H47.4428H47.4427H47.4427H47.4426H47.4425H47.4425H47.4424H47.4424H47.4423H47.4422H47.4422H47.4421H47.442H47.442H47.4419H47.4419H47.4418H47.4417H47.4417H47.4416H47.4415H47.4415H47.4414H47.4414H47.4413H47.4412H47.4412H47.4411H47.441H47.441H47.4409H47.4409H47.4408H47.4407H47.4407H47.4406H47.4405H47.4405H47.4404H47.4404H47.4403H47.4402H47.4402H47.4401H47.44H47.44H47.4399H47.4399H47.4398H47.4397H47.4397H47.4396H47.4395H47.4395H47.4394H47.4394H47.4393H47.4392H47.4392H47.4391H47.439H47.439H47.4389H47.4389H47.4388H47.4387H47.4387H47.4386H47.4386H47.4385H47.4384H47.4384H47.4383H47.4382H47.4382H47.4381H47.4381H47.438H47.4379H47.4379H47.4378H47.4377H47.4377H47.4376H47.4376H47.4375H47.4374H47.4374H47.4373H47.4373H47.4372H47.4371H47.4371H47.437H47.4369H47.4369H47.4368H47.4368H47.4367H47.4366H47.4366H47.4365H47.4365H47.4364H47.4363H47.4363H47.4362H47.4361H47.4361H47.436H47.436H47.4359H47.4358H47.4358H47.4357H47.4357H47.4356H47.4355H47.4355H47.4354H47.4354H47.4353H47.4352H47.4352H47.4351H47.4351H47.435H47.4349H47.4349H47.4348H47.4347H47.4347H47.4346H47.4346H47.4345H47.4344H47.4344H47.4343H47.4343H47.4342H47.4341H47.4341H47.434H47.434H47.4339H47.4338H47.4338H47.4337H47.4337H47.4336H47.4335H47.4335H47.4334H47.4333H47.4333H47.4332H47.4332H47.4331H47.433H47.433H47.4329H47.4329H47.4328H47.4327H47.4327H47.4326H47.4326H47.4325H47.4324H47.4324H47.4323H47.4323H47.4322H47.4321H47.4321H47.432H47.432H47.4319H47.4318H47.4318H47.4317H47.4317H47.4316H47.4315H47.4315H47.4314H47.4314H47.4313H47.4313H47.4312H47.4311H47.4311H47.431H47.431H47.4309H47.4308H47.4308H47.4307H47.4307H47.4306H47.4305H47.4305H47.4304H47.4304H47.4303H47.4302H47.4302H47.4301H47.4301H47.43H47.4299H47.4299H47.4298H47.4298H47.4297H47.4296H47.4296H47.4295H47.4295H47.4294H47.4294H47.4293H47.4292H47.4292H47.4291H47.4291H47.429H47.4289H47.4289H47.4288H47.4288H47.4287H47.4286H47.4286H47.4285H47.4285H47.4284H47.4284H47.4283H47.4282H47.4282H47.4281H47.4281H47.428H47.4279H47.4279H47.4278H47.4278H47.4277H47.4277H47.4276H47.4275H47.4275H47.4274H47.4274H47.4273H47.4272H47.4272H47.4271H47.4271H47.427H47.427H47.4269H47.4268H47.4268H47.4267H47.4267H47.4266H47.4266H47.4265H47.4264H47.4264H47.4263H47.4263H47.4262H47.4262H47.4261H47.426H47.426H47.4259H47.4259H47.4258H47.4258H47.4257H47.4256H47.4256H47.4255H47.4255H47.4254H47.4254H47.4253H47.4252H47.4252H47.4251H47.4251H47.425H47.425H47.4249H47.4248H47.4248H47.4247H47.4247H47.4246H47.4246H47.4245H47.4244H47.4244H47.4243H47.4243H47.4242H47.4242H47.4241H47.4241H47.424H47.4239H47.4239H47.4238H47.4238H47.4237H47.4237H47.4236H47.4235H47.4235H47.4234H47.4234H47.4233H47.4233H47.4232H47.4232H47.4231H47.423H47.423H47.4229H47.4229H47.4228H47.4228H47.4227H47.4227H47.4226H47.4226H47.4225H47.4224H47.4224H47.4223H47.4223H47.4222H47.4222H47.4221H47.4221H47.422H47.4219H47.4219H47.4218H47.4218H47.4217H47.4217H47.4216H47.4216H47.4215H47.4214H47.4214H47.4213H47.4213H47.4212H47.4212H47.4211H47.4211H7.54781C7.14526 52.1604 6.76008 51.9924 6.48645 51.697C6.2127 51.4016 6.07372 51.0047 6.10412 50.6038L8.68782 16.5466L8.68783 16.5465C8.7443 15.7906 9.37415 15.2071 10.1315 15.2071H44.8358C45.5932 15.2071 46.223 15.7907 46.2795 16.5449L46.2795 16.545L48.8415 50.2957ZM9.1169 49.1567L9.10874 49.2643H9.21662H45.7507H45.8586L45.8504 49.1567L43.5005 18.1956L43.4935 18.1032H43.4008H11.5666H11.4739L11.4669 18.1956L9.1169 49.1567Z" fill="#E9AD26" stroke="#FAFAF8" stroke-width="0.2"/>
<path d="M15.1991 15.128C15.1991 8.3532 20.7103 2.84048 27.4836 2.84048C34.2568 2.84048 39.768 8.3532 39.768 15.128V21.2986C39.768 22.0979 39.1193 22.7466 38.32 22.7466C37.5207 22.7466 36.8719 22.0979 36.8719 21.2986V15.128C36.8719 9.94876 32.6613 5.73659 27.4836 5.73659C22.3058 5.73659 18.0952 9.94876 18.0952 15.128V21.2986C18.0952 22.0979 17.4465 22.7466 16.6472 22.7466C15.8479 22.7466 15.1991 22.0979 15.1991 21.2986V15.128Z" fill="#E9AD26" stroke="#FAFAF8" stroke-width="0.2"/>
</svg>
