<svg width="20" height="20" viewBox="0 0 20 20" fill="none" xmlns="http://www.w3.org/2000/svg">
<g clip-path="url(#clip0)">
<path fill-rule="evenodd" clip-rule="evenodd" d="M19.9994 9.99863C19.999 8.08783 19.4512 6.21715 18.4207 4.60805C17.3902 2.99895 15.9202 1.7188 14.1847 0.919162C12.4493 0.119521 10.5211 -0.166128 8.62838 0.0960227C6.73565 0.358173 4.95766 1.15715 3.50489 2.39837C2.05213 3.63959 0.985424 5.27107 0.431055 7.09968C-0.123315 8.9283 -0.142133 10.8775 0.376828 12.7164C0.895789 14.5554 1.9308 16.2072 3.35933 17.4762C4.78786 18.7453 6.55009 19.5784 8.4374 19.8771V12.8903H5.89745V9.99863H8.4374V7.79663C8.38302 7.28217 8.4424 6.76204 8.61134 6.27307C8.78027 5.78411 9.05464 5.33826 9.415 4.96709C9.77537 4.59593 10.2129 4.30853 10.6967 4.12523C11.1805 3.94194 11.6986 3.86724 12.2144 3.90641C12.9645 3.91693 13.7127 3.98236 14.4532 4.10215V6.56258H13.1916C12.9766 6.53422 12.7581 6.55454 12.552 6.62203C12.346 6.68953 12.1577 6.80248 12.0012 6.95253C11.8447 7.10257 11.724 7.28588 11.6478 7.48889C11.5717 7.69191 11.5422 7.90944 11.5615 8.1254V10.0002H14.3339L13.8904 12.8918H11.5615V19.8801C13.9142 19.5076 16.0567 18.3076 17.6036 16.4962C19.1504 14.6847 20 12.3807 19.9994 9.99863Z" fill="#3B5998"/>
</g>
<defs>
<clipPath id="clip0">
<rect width="20" height="19.8792" fill="white"/>
</clipPath>
</defs>
</svg>
