<svg width="20" height="20" viewBox="0 0 20 20" fill="none" xmlns="http://www.w3.org/2000/svg">
<path d="M20 3.14553C19.2495 3.47138 18.4555 3.68596 17.6431 3.78246C18.4971 3.28261 19.1393 2.48831 19.4492 1.5486C18.6423 2.0202 17.761 2.35108 16.8431 2.52707C16.4562 2.12219 15.991 1.80021 15.4758 1.58069C14.9606 1.36118 14.4062 1.24872 13.8462 1.25014C13.3116 1.24568 12.7815 1.34657 12.286 1.54705C11.7905 1.74754 11.3393 2.04368 10.9583 2.41857C10.5772 2.79345 10.2738 3.23973 10.0653 3.73191C9.8568 4.2241 9.7473 4.75255 9.74308 5.28707C9.7414 5.5979 9.77704 5.9078 9.84923 6.21014C8.22262 6.13448 6.62975 5.71989 5.17265 4.99294C3.71556 4.26598 2.42638 3.24269 1.38769 1.98861C1.02318 2.6028 0.830302 3.30362 0.82923 4.01784C0.831673 4.68659 1.0006 5.3442 1.32076 5.93134C1.64092 6.51848 2.10223 7.01665 2.66308 7.38091C2.00949 7.36529 1.36932 7.19219 0.796923 6.87629V6.92707C0.802887 7.86593 1.1343 8.77365 1.73467 9.49549C2.33503 10.2173 3.16718 10.7086 4.08923 10.8855C3.7379 10.9791 3.3759 11.0267 3.01231 11.0271C2.75404 11.0273 2.49639 11.002 2.24308 10.9517C2.51221 11.7594 3.02604 12.4634 3.71329 12.9659C4.40054 13.4685 5.22715 13.7447 6.07846 13.7563C4.61812 14.8817 2.82522 15.49 0.981539 15.4855C0.653473 15.4846 0.32574 15.4645 0 15.4255C1.75353 16.541 3.77268 17.1689 5.84954 17.2446C7.92639 17.3203 9.9859 16.8411 11.816 15.8563C13.6461 14.8715 15.1806 13.4167 16.2616 11.6418C17.3426 9.86679 17.931 7.83577 17.9662 5.75783C17.9662 5.58245 17.9662 5.40707 17.9538 5.2363C18.7547 4.6665 19.4476 3.9585 20 3.14553Z" fill="#55ACEE"/>
</svg>
