<svg width="20" height="20" viewBox="0 0 20 20" fill="none" xmlns="http://www.w3.org/2000/svg">
<path d="M19.8708 5.81231C19.9076 5.00844 19.6238 4.22284 19.0818 3.62805C18.5398 3.03325 17.7839 2.67789 16.98 2.64001C14.8154 2.53847 12.6093 2.5 10.3523 2.5H9.64927C7.3985 2.5 5.18773 2.53847 3.02312 2.64001C2.2193 2.68065 1.46432 3.03807 0.923411 3.63404C0.382502 4.23002 0.0997235 5.01601 0.136964 5.82C0.0400411 7.20461 -0.00149732 8.60154 4.1139e-05 9.99231C0.0015796 11.3831 0.0400411 12.7754 0.132349 14.1692C0.0950915 14.9739 0.377938 15.7607 0.919056 16.3574C1.46017 16.9542 2.21555 17.3124 3.02004 17.3538C5.29389 17.46 7.62619 17.5077 9.99696 17.5077C12.3677 17.5077 14.6985 17.4662 16.9739 17.3538C17.7789 17.3132 18.5351 16.9553 19.0769 16.3584C19.6186 15.7616 19.9019 14.9744 19.8647 14.1692C19.9585 12.7738 20.0016 11.3831 19.997 9.98922C19.9923 8.59538 19.9647 7.20615 19.8708 5.81231ZM8.08619 13.8246V6.1477L13.7508 9.98461L8.08619 13.8246Z" fill="#E82A00"/>
</svg>
